solid OpenSCAD_Model
  facet normal -1 0 0
    outer loop
      vertex -25 -5 -3
      vertex -25 5 3
      vertex -25 5 -3
    endloop
  endfacet
  facet normal -1 -0 0
    outer loop
      vertex -25 5 3
      vertex -25 -5 -3
      vertex -25 -5 3
    endloop
  endfacet
  facet normal -0 0 1
    outer loop
      vertex -25 5 3
      vertex 25 -5 3
      vertex 25 5 3
    endloop
  endfacet
  facet normal 0 0 1
    outer loop
      vertex 25 -5 3
      vertex -25 5 3
      vertex -25 -5 3
    endloop
  endfacet
  facet normal 1 -0 0
    outer loop
      vertex 25 -5 3
      vertex 25 5 -3
      vertex 25 5 3
    endloop
  endfacet
  facet normal 1 0 0
    outer loop
      vertex 25 5 -3
      vertex 25 -5 3
      vertex 25 -5 -3
    endloop
  endfacet
  facet normal 0 1 0
    outer loop
      vertex 25 5 3
      vertex 20 5 2
      vertex -25 5 3
    endloop
  endfacet
  facet normal 0 1 0
    outer loop
      vertex 25 5 3
      vertex 20 5 -2
      vertex 20 5 2
    endloop
  endfacet
  facet normal 0 1 0
    outer loop
      vertex 20 5 -2
      vertex 25 5 -3
      vertex -20 5 -2
    endloop
  endfacet
  facet normal 0 1 -0
    outer loop
      vertex 25 5 -3
      vertex 20 5 -2
      vertex 25 5 3
    endloop
  endfacet
  facet normal 0 1 -0
    outer loop
      vertex -20 5 2
      vertex -25 5 3
      vertex 20 5 2
    endloop
  endfacet
  facet normal 0 1 -0
    outer loop
      vertex -20 5 -2
      vertex -25 5 3
      vertex -20 5 2
    endloop
  endfacet
  facet normal 0 1 0
    outer loop
      vertex -20 5 -2
      vertex -25 5 -3
      vertex -25 5 3
    endloop
  endfacet
  facet normal 0 1 0
    outer loop
      vertex -25 5 -3
      vertex -20 5 -2
      vertex 25 5 -3
    endloop
  endfacet
  facet normal 0 0 -1
    outer loop
      vertex -25 -5 -3
      vertex 25 5 -3
      vertex 25 -5 -3
    endloop
  endfacet
  facet normal -0 0 -1
    outer loop
      vertex 25 5 -3
      vertex -25 -5 -3
      vertex -25 5 -3
    endloop
  endfacet
  facet normal 0 -1 0
    outer loop
      vertex -25 -5 3
      vertex -20 -5 2
      vertex 25 -5 3
    endloop
  endfacet
  facet normal 0 -1 0
    outer loop
      vertex -25 -5 3
      vertex -20 -5 -2
      vertex -20 -5 2
    endloop
  endfacet
  facet normal 0 -1 -0
    outer loop
      vertex -20 -5 -2
      vertex -25 -5 -3
      vertex 20 -5 -2
    endloop
  endfacet
  facet normal 0 -1 0
    outer loop
      vertex -25 -5 -3
      vertex -20 -5 -2
      vertex -25 -5 3
    endloop
  endfacet
  facet normal 0 -1 0
    outer loop
      vertex 20 -5 2
      vertex 25 -5 3
      vertex -20 -5 2
    endloop
  endfacet
  facet normal 0 -1 0
    outer loop
      vertex 20 -5 -2
      vertex 25 -5 3
      vertex 20 -5 2
    endloop
  endfacet
  facet normal 0 -1 0
    outer loop
      vertex 20 -5 -2
      vertex 25 -5 -3
      vertex 25 -5 3
    endloop
  endfacet
  facet normal 0 -1 0
    outer loop
      vertex 25 -5 -3
      vertex 20 -5 -2
      vertex -25 -5 -3
    endloop
  endfacet
  facet normal 1 -0 0
    outer loop
      vertex -20 -5 2
      vertex -20 5 -2
      vertex -20 5 2
    endloop
  endfacet
  facet normal 1 0 0
    outer loop
      vertex -20 5 -2
      vertex -20 -5 2
      vertex -20 -5 -2
    endloop
  endfacet
  facet normal 0 0 -1
    outer loop
      vertex -20 -5 2
      vertex 20 5 2
      vertex 20 -5 2
    endloop
  endfacet
  facet normal -0 0 -1
    outer loop
      vertex 20 5 2
      vertex -20 -5 2
      vertex -20 5 2
    endloop
  endfacet
  facet normal -1 0 0
    outer loop
      vertex 20 -5 -2
      vertex 20 5 2
      vertex 20 5 -2
    endloop
  endfacet
  facet normal -1 -0 0
    outer loop
      vertex 20 5 2
      vertex 20 -5 -2
      vertex 20 -5 2
    endloop
  endfacet
  facet normal -0 0 1
    outer loop
      vertex -20 5 -2
      vertex 20 -5 -2
      vertex 20 5 -2
    endloop
  endfacet
  facet normal 0 0 1
    outer loop
      vertex 20 -5 -2
      vertex -20 5 -2
      vertex -20 -5 -2
    endloop
  endfacet
endsolid OpenSCAD_Model
