solid OpenSCAD_Model
  facet normal -0.951059 0.309008 0
    outer loop
      vertex -16.1394 3.43054 0
      vertex -15.0735 6.71115 10
      vertex -15.0735 6.71115 0
    endloop
  endfacet
  facet normal -0.951059 0.309008 0
    outer loop
      vertex -15.0735 6.71115 10
      vertex -16.1394 3.43054 0
      vertex -16.1394 3.43054 10
    endloop
  endfacet
  facet normal 0.866028 0.499995 0
    outer loop
      vertex 15.0735 6.71115 10
      vertex 13.3488 9.69846 0
      vertex 13.3488 9.69846 10
    endloop
  endfacet
  facet normal 0.866028 0.499995 0
    outer loop
      vertex 13.3488 9.69846 0
      vertex 15.0735 6.71115 10
      vertex 15.0735 6.71115 0
    endloop
  endfacet
  facet normal 0.951059 0.309008 0
    outer loop
      vertex 16.1394 3.43054 10
      vertex 15.0735 6.71115 0
      vertex 15.0735 6.71115 10
    endloop
  endfacet
  facet normal 0.951059 0.309008 0
    outer loop
      vertex 15.0735 6.71115 0
      vertex 16.1394 3.43054 10
      vertex 16.1394 3.43054 0
    endloop
  endfacet
  facet normal 0.207918 0.978146 -0
    outer loop
      vertex 5.09878 15.6924 0
      vertex 1.72472 16.4096 10
      vertex 5.09878 15.6924 10
    endloop
  endfacet
  facet normal 0.207918 0.978146 0
    outer loop
      vertex 1.72472 16.4096 10
      vertex 5.09878 15.6924 0
      vertex 1.72472 16.4096 0
    endloop
  endfacet
  facet normal 0.406733 0.913547 -0
    outer loop
      vertex 8.25 14.2894 0
      vertex 5.09878 15.6924 10
      vertex 8.25 14.2894 10
    endloop
  endfacet
  facet normal 0.406733 0.913547 0
    outer loop
      vertex 5.09878 15.6924 10
      vertex 8.25 14.2894 0
      vertex 5.09878 15.6924 0
    endloop
  endfacet
  facet normal -0.207918 0.978146 0
    outer loop
      vertex -1.72472 16.4096 0
      vertex -5.09878 15.6924 10
      vertex -1.72472 16.4096 10
    endloop
  endfacet
  facet normal -0.207918 0.978146 0
    outer loop
      vertex -5.09878 15.6924 10
      vertex -1.72472 16.4096 0
      vertex -5.09878 15.6924 0
    endloop
  endfacet
  facet normal -0.866028 0.499995 0
    outer loop
      vertex -15.0735 6.71115 0
      vertex -13.3488 9.69846 10
      vertex -13.3488 9.69846 0
    endloop
  endfacet
  facet normal -0.866028 0.499995 0
    outer loop
      vertex -13.3488 9.69846 10
      vertex -15.0735 6.71115 0
      vertex -15.0735 6.71115 10
    endloop
  endfacet
  facet normal 0.994521 -0.104539 0
    outer loop
      vertex 16.1394 -3.43054 10
      vertex 16.5 0 0
      vertex 16.5 0 10
    endloop
  endfacet
  facet normal 0.994521 -0.104539 0
    outer loop
      vertex 16.5 0 0
      vertex 16.1394 -3.43054 10
      vertex 16.1394 -3.43054 0
    endloop
  endfacet
  facet normal 0.743149 0.669126 0
    outer loop
      vertex 13.3488 9.69846 10
      vertex 11.0407 12.2619 0
      vertex 11.0407 12.2619 10
    endloop
  endfacet
  facet normal 0.743149 0.669126 0
    outer loop
      vertex 11.0407 12.2619 0
      vertex 13.3488 9.69846 10
      vertex 13.3488 9.69846 0
    endloop
  endfacet
  facet normal 0 1 -0
    outer loop
      vertex 1.72472 16.4096 0
      vertex -1.72472 16.4096 10
      vertex 1.72472 16.4096 10
    endloop
  endfacet
  facet normal 0 1 0
    outer loop
      vertex -1.72472 16.4096 10
      vertex 1.72472 16.4096 0
      vertex -1.72472 16.4096 0
    endloop
  endfacet
  facet normal 0.587773 0.809026 -0
    outer loop
      vertex 11.0407 12.2619 0
      vertex 8.25 14.2894 10
      vertex 11.0407 12.2619 10
    endloop
  endfacet
  facet normal 0.587773 0.809026 0
    outer loop
      vertex 8.25 14.2894 10
      vertex 11.0407 12.2619 0
      vertex 8.25 14.2894 0
    endloop
  endfacet
  facet normal -0.994521 0.104539 0
    outer loop
      vertex -16.5 0 0
      vertex -16.1394 3.43054 10
      vertex -16.1394 3.43054 0
    endloop
  endfacet
  facet normal -0.994521 0.104539 0
    outer loop
      vertex -16.1394 3.43054 10
      vertex -16.5 0 0
      vertex -16.5 0 10
    endloop
  endfacet
  facet normal -0.743149 0.669126 0
    outer loop
      vertex -13.3488 9.69846 0
      vertex -11.0407 12.2619 10
      vertex -11.0407 12.2619 0
    endloop
  endfacet
  facet normal -0.743149 0.669126 0
    outer loop
      vertex -11.0407 12.2619 10
      vertex -13.3488 9.69846 0
      vertex -13.3488 9.69846 10
    endloop
  endfacet
  facet normal -0.406733 0.913547 0
    outer loop
      vertex -5.09878 15.6924 0
      vertex -8.25 14.2894 10
      vertex -5.09878 15.6924 10
    endloop
  endfacet
  facet normal -0.406733 0.913547 0
    outer loop
      vertex -8.25 14.2894 10
      vertex -5.09878 15.6924 0
      vertex -8.25 14.2894 0
    endloop
  endfacet
  facet normal -0.587773 0.809026 0
    outer loop
      vertex -8.25 14.2894 0
      vertex -11.0407 12.2619 10
      vertex -8.25 14.2894 10
    endloop
  endfacet
  facet normal -0.587773 0.809026 0
    outer loop
      vertex -11.0407 12.2619 10
      vertex -8.25 14.2894 0
      vertex -11.0407 12.2619 0
    endloop
  endfacet
  facet normal 0.994521 0.104539 0
    outer loop
      vertex 16.5 0 10
      vertex 16.1394 3.43054 0
      vertex 16.1394 3.43054 10
    endloop
  endfacet
  facet normal 0.994521 0.104539 0
    outer loop
      vertex 16.1394 3.43054 0
      vertex 16.5 0 10
      vertex 16.5 0 0
    endloop
  endfacet
  facet normal -0.587773 -0.809026 0
    outer loop
      vertex -11.0407 -12.2619 0
      vertex -8.25 -14.2894 10
      vertex -11.0407 -12.2619 10
    endloop
  endfacet
  facet normal -0.587773 -0.809026 -0
    outer loop
      vertex -8.25 -14.2894 10
      vertex -11.0407 -12.2619 0
      vertex -8.25 -14.2894 0
    endloop
  endfacet
  facet normal -0.866028 -0.499995 0
    outer loop
      vertex -13.3488 -9.69846 0
      vertex -15.0735 -6.71115 10
      vertex -15.0735 -6.71115 0
    endloop
  endfacet
  facet normal -0.866028 -0.499995 0
    outer loop
      vertex -15.0735 -6.71115 10
      vertex -13.3488 -9.69846 0
      vertex -13.3488 -9.69846 10
    endloop
  endfacet
  facet normal 0.587773 -0.809026 0
    outer loop
      vertex 8.25 -14.2894 0
      vertex 11.0407 -12.2619 10
      vertex 8.25 -14.2894 10
    endloop
  endfacet
  facet normal 0.587773 -0.809026 0
    outer loop
      vertex 11.0407 -12.2619 10
      vertex 8.25 -14.2894 0
      vertex 11.0407 -12.2619 0
    endloop
  endfacet
  facet normal 0 0 1
    outer loop
      vertex 14 0 10
      vertex 16.5 0 10
      vertex 16.1394 3.43054 10
    endloop
  endfacet
  facet normal 0 0 1
    outer loop
      vertex 13.6941 2.91076 10
      vertex 16.1394 3.43054 10
      vertex 15.0735 6.71115 10
    endloop
  endfacet
  facet normal 0 0 1
    outer loop
      vertex 16.5 0 10
      vertex 14 0 10
      vertex 16.1394 -3.43054 10
    endloop
  endfacet
  facet normal -0 0 1
    outer loop
      vertex 13.6941 -2.91076 10
      vertex 16.1394 -3.43054 10
      vertex 14 0 10
    endloop
  endfacet
  facet normal 0 0 1
    outer loop
      vertex 16.1394 3.43054 10
      vertex 13.6941 2.91076 10
      vertex 14 0 10
    endloop
  endfacet
  facet normal 0 0 1
    outer loop
      vertex 12.7896 5.69431 10
      vertex 15.0735 6.71115 10
      vertex 13.3488 9.69846 10
    endloop
  endfacet
  facet normal 0 0 1
    outer loop
      vertex 15.0735 6.71115 10
      vertex 12.7896 5.69431 10
      vertex 13.6941 2.91076 10
    endloop
  endfacet
  facet normal 0 0 1
    outer loop
      vertex 13.3488 9.69846 10
      vertex 11.3262 8.22899 10
      vertex 12.7896 5.69431 10
    endloop
  endfacet
  facet normal 0 0 1
    outer loop
      vertex 11.0407 12.2619 10
      vertex 11.3262 8.22899 10
      vertex 13.3488 9.69846 10
    endloop
  endfacet
  facet normal 0 0 1
    outer loop
      vertex 11.0407 12.2619 10
      vertex 9.36783 10.404 10
      vertex 11.3262 8.22899 10
    endloop
  endfacet
  facet normal 0 0 1
    outer loop
      vertex 8.25 14.2894 10
      vertex 9.36783 10.404 10
      vertex 11.0407 12.2619 10
    endloop
  endfacet
  facet normal 0 0 1
    outer loop
      vertex 8.25 14.2894 10
      vertex 7 12.1244 10
      vertex 9.36783 10.404 10
    endloop
  endfacet
  facet normal 0 0 1
    outer loop
      vertex 5.09878 15.6924 10
      vertex 7 12.1244 10
      vertex 8.25 14.2894 10
    endloop
  endfacet
  facet normal 0 0 1
    outer loop
      vertex 5.09878 15.6924 10
      vertex 4.32624 13.3148 10
      vertex 7 12.1244 10
    endloop
  endfacet
  facet normal 0 0 1
    outer loop
      vertex 1.72472 16.4096 10
      vertex 4.32624 13.3148 10
      vertex 5.09878 15.6924 10
    endloop
  endfacet
  facet normal 0 0 1
    outer loop
      vertex 1.72472 16.4096 10
      vertex 1.4634 13.9233 10
      vertex 4.32624 13.3148 10
    endloop
  endfacet
  facet normal 0 0 1
    outer loop
      vertex 1.72472 16.4096 10
      vertex -1.4634 13.9233 10
      vertex 1.4634 13.9233 10
    endloop
  endfacet
  facet normal -0 0 1
    outer loop
      vertex -1.72472 16.4096 10
      vertex -1.4634 13.9233 10
      vertex 1.72472 16.4096 10
    endloop
  endfacet
  facet normal 0 0 1
    outer loop
      vertex -1.72472 16.4096 10
      vertex -4.32624 13.3148 10
      vertex -1.4634 13.9233 10
    endloop
  endfacet
  facet normal -0 0 1
    outer loop
      vertex -5.09878 15.6924 10
      vertex -4.32624 13.3148 10
      vertex -1.72472 16.4096 10
    endloop
  endfacet
  facet normal 0 0 1
    outer loop
      vertex -5.09878 15.6924 10
      vertex -7 12.1244 10
      vertex -4.32624 13.3148 10
    endloop
  endfacet
  facet normal -0 0 1
    outer loop
      vertex -8.25 14.2894 10
      vertex -7 12.1244 10
      vertex -5.09878 15.6924 10
    endloop
  endfacet
  facet normal 0 0 1
    outer loop
      vertex -8.25 14.2894 10
      vertex -9.36783 10.404 10
      vertex -7 12.1244 10
    endloop
  endfacet
  facet normal -0 0 1
    outer loop
      vertex -11.0407 12.2619 10
      vertex -9.36783 10.404 10
      vertex -8.25 14.2894 10
    endloop
  endfacet
  facet normal 0 0 1
    outer loop
      vertex -11.0407 12.2619 10
      vertex -11.3262 8.22899 10
      vertex -9.36783 10.404 10
    endloop
  endfacet
  facet normal -0 0 1
    outer loop
      vertex -13.3488 9.69846 10
      vertex -11.3262 8.22899 10
      vertex -11.0407 12.2619 10
    endloop
  endfacet
  facet normal 0 0 1
    outer loop
      vertex -11.3262 8.22899 10
      vertex -13.3488 9.69846 10
      vertex -12.7896 5.69431 10
    endloop
  endfacet
  facet normal -0 0 1
    outer loop
      vertex -15.0735 6.71115 10
      vertex -12.7896 5.69431 10
      vertex -13.3488 9.69846 10
    endloop
  endfacet
  facet normal 0 0 1
    outer loop
      vertex -12.7896 5.69431 10
      vertex -15.0735 6.71115 10
      vertex -13.6941 2.91076 10
    endloop
  endfacet
  facet normal -0 0 1
    outer loop
      vertex -16.1394 3.43054 10
      vertex -13.6941 2.91076 10
      vertex -15.0735 6.71115 10
    endloop
  endfacet
  facet normal 0 0 1
    outer loop
      vertex 16.1394 -3.43054 10
      vertex 13.6941 -2.91076 10
      vertex 15.0735 -6.71115 10
    endloop
  endfacet
  facet normal -0 0 1
    outer loop
      vertex 12.7896 -5.69431 10
      vertex 15.0735 -6.71115 10
      vertex 13.6941 -2.91076 10
    endloop
  endfacet
  facet normal 0 0 1
    outer loop
      vertex 15.0735 -6.71115 10
      vertex 12.7896 -5.69431 10
      vertex 13.3488 -9.69846 10
    endloop
  endfacet
  facet normal -0 0 1
    outer loop
      vertex 11.3262 -8.22899 10
      vertex 13.3488 -9.69846 10
      vertex 12.7896 -5.69431 10
    endloop
  endfacet
  facet normal 0 0 1
    outer loop
      vertex 11.3262 -8.22899 10
      vertex 11.0407 -12.2619 10
      vertex 13.3488 -9.69846 10
    endloop
  endfacet
  facet normal -0 0 1
    outer loop
      vertex 9.36783 -10.404 10
      vertex 11.0407 -12.2619 10
      vertex 11.3262 -8.22899 10
    endloop
  endfacet
  facet normal 0 0 1
    outer loop
      vertex 9.36783 -10.404 10
      vertex 8.25 -14.2894 10
      vertex 11.0407 -12.2619 10
    endloop
  endfacet
  facet normal -0 0 1
    outer loop
      vertex 7 -12.1244 10
      vertex 8.25 -14.2894 10
      vertex 9.36783 -10.404 10
    endloop
  endfacet
  facet normal 0 0 1
    outer loop
      vertex 7 -12.1244 10
      vertex 5.09878 -15.6924 10
      vertex 8.25 -14.2894 10
    endloop
  endfacet
  facet normal -0 0 1
    outer loop
      vertex 4.32624 -13.3148 10
      vertex 5.09878 -15.6924 10
      vertex 7 -12.1244 10
    endloop
  endfacet
  facet normal 0 0 1
    outer loop
      vertex 4.32624 -13.3148 10
      vertex 1.72472 -16.4096 10
      vertex 5.09878 -15.6924 10
    endloop
  endfacet
  facet normal -0 0 1
    outer loop
      vertex 1.4634 -13.9233 10
      vertex 1.72472 -16.4096 10
      vertex 4.32624 -13.3148 10
    endloop
  endfacet
  facet normal -0 0 1
    outer loop
      vertex -1.4634 -13.9233 10
      vertex 1.72472 -16.4096 10
      vertex 1.4634 -13.9233 10
    endloop
  endfacet
  facet normal 0 0 1
    outer loop
      vertex -1.4634 -13.9233 10
      vertex -1.72472 -16.4096 10
      vertex 1.72472 -16.4096 10
    endloop
  endfacet
  facet normal 0 0 1
    outer loop
      vertex -4.32624 -13.3148 10
      vertex -1.72472 -16.4096 10
      vertex -1.4634 -13.9233 10
    endloop
  endfacet
  facet normal 0 0 1
    outer loop
      vertex -4.32624 -13.3148 10
      vertex -5.09878 -15.6924 10
      vertex -1.72472 -16.4096 10
    endloop
  endfacet
  facet normal 0 0 1
    outer loop
      vertex -7 -12.1244 10
      vertex -5.09878 -15.6924 10
      vertex -4.32624 -13.3148 10
    endloop
  endfacet
  facet normal 0 0 1
    outer loop
      vertex -7 -12.1244 10
      vertex -8.25 -14.2894 10
      vertex -5.09878 -15.6924 10
    endloop
  endfacet
  facet normal 0 0 1
    outer loop
      vertex -9.36783 -10.404 10
      vertex -8.25 -14.2894 10
      vertex -7 -12.1244 10
    endloop
  endfacet
  facet normal 0 0 1
    outer loop
      vertex -9.36783 -10.404 10
      vertex -11.0407 -12.2619 10
      vertex -8.25 -14.2894 10
    endloop
  endfacet
  facet normal 0 0 1
    outer loop
      vertex -11.3262 -8.22899 10
      vertex -11.0407 -12.2619 10
      vertex -9.36783 -10.404 10
    endloop
  endfacet
  facet normal 0 0 1
    outer loop
      vertex -13.3488 -9.69846 10
      vertex -11.3262 -8.22899 10
      vertex -12.7896 -5.69431 10
    endloop
  endfacet
  facet normal 0 0 1
    outer loop
      vertex -11.3262 -8.22899 10
      vertex -13.3488 -9.69846 10
      vertex -11.0407 -12.2619 10
    endloop
  endfacet
  facet normal 0 0 1
    outer loop
      vertex -15.0735 -6.71115 10
      vertex -12.7896 -5.69431 10
      vertex -13.6941 -2.91076 10
    endloop
  endfacet
  facet normal 0 0 1
    outer loop
      vertex -16.1394 -3.43054 10
      vertex -13.6941 -2.91076 10
      vertex -14 0 10
    endloop
  endfacet
  facet normal 0 0 1
    outer loop
      vertex -13.6941 2.91076 10
      vertex -16.1394 3.43054 10
      vertex -14 0 10
    endloop
  endfacet
  facet normal 0 0 1
    outer loop
      vertex -12.7896 -5.69431 10
      vertex -15.0735 -6.71115 10
      vertex -13.3488 -9.69846 10
    endloop
  endfacet
  facet normal 0 0 1
    outer loop
      vertex -16.5 0 10
      vertex -14 0 10
      vertex -16.1394 3.43054 10
    endloop
  endfacet
  facet normal 0 0 1
    outer loop
      vertex -13.6941 -2.91076 10
      vertex -16.1394 -3.43054 10
      vertex -15.0735 -6.71115 10
    endloop
  endfacet
  facet normal 0 0 1
    outer loop
      vertex -14 0 10
      vertex -16.5 0 10
      vertex -16.1394 -3.43054 10
    endloop
  endfacet
  facet normal 0.866028 -0.499995 0
    outer loop
      vertex 13.3488 -9.69846 10
      vertex 15.0735 -6.71115 0
      vertex 15.0735 -6.71115 10
    endloop
  endfacet
  facet normal 0.866028 -0.499995 0
    outer loop
      vertex 15.0735 -6.71115 0
      vertex 13.3488 -9.69846 10
      vertex 13.3488 -9.69846 0
    endloop
  endfacet
  facet normal -0.994521 -0.104539 0
    outer loop
      vertex -16.1394 -3.43054 0
      vertex -16.5 0 10
      vertex -16.5 0 0
    endloop
  endfacet
  facet normal -0.994521 -0.104539 0
    outer loop
      vertex -16.5 0 10
      vertex -16.1394 -3.43054 0
      vertex -16.1394 -3.43054 10
    endloop
  endfacet
  facet normal -0.743149 -0.669126 0
    outer loop
      vertex -11.0407 -12.2619 0
      vertex -13.3488 -9.69846 10
      vertex -13.3488 -9.69846 0
    endloop
  endfacet
  facet normal -0.743149 -0.669126 0
    outer loop
      vertex -13.3488 -9.69846 10
      vertex -11.0407 -12.2619 0
      vertex -11.0407 -12.2619 10
    endloop
  endfacet
  facet normal 0.207918 -0.978146 0
    outer loop
      vertex 1.72472 -16.4096 0
      vertex 5.09878 -15.6924 10
      vertex 1.72472 -16.4096 10
    endloop
  endfacet
  facet normal 0.207918 -0.978146 0
    outer loop
      vertex 5.09878 -15.6924 10
      vertex 1.72472 -16.4096 0
      vertex 5.09878 -15.6924 0
    endloop
  endfacet
  facet normal 0.406733 -0.913547 0
    outer loop
      vertex 5.09878 -15.6924 0
      vertex 8.25 -14.2894 10
      vertex 5.09878 -15.6924 10
    endloop
  endfacet
  facet normal 0.406733 -0.913547 0
    outer loop
      vertex 8.25 -14.2894 10
      vertex 5.09878 -15.6924 0
      vertex 8.25 -14.2894 0
    endloop
  endfacet
  facet normal 0.951059 -0.309008 0
    outer loop
      vertex 15.0735 -6.71115 10
      vertex 16.1394 -3.43054 0
      vertex 16.1394 -3.43054 10
    endloop
  endfacet
  facet normal 0.951059 -0.309008 0
    outer loop
      vertex 16.1394 -3.43054 0
      vertex 15.0735 -6.71115 10
      vertex 15.0735 -6.71115 0
    endloop
  endfacet
  facet normal 0 -1 0
    outer loop
      vertex -1.72472 -16.4096 0
      vertex 1.72472 -16.4096 10
      vertex -1.72472 -16.4096 10
    endloop
  endfacet
  facet normal 0 -1 -0
    outer loop
      vertex 1.72472 -16.4096 10
      vertex -1.72472 -16.4096 0
      vertex 1.72472 -16.4096 0
    endloop
  endfacet
  facet normal -0.207918 -0.978146 0
    outer loop
      vertex -5.09878 -15.6924 0
      vertex -1.72472 -16.4096 10
      vertex -5.09878 -15.6924 10
    endloop
  endfacet
  facet normal -0.207918 -0.978146 -0
    outer loop
      vertex -1.72472 -16.4096 10
      vertex -5.09878 -15.6924 0
      vertex -1.72472 -16.4096 0
    endloop
  endfacet
  facet normal 0 0 -1
    outer loop
      vertex 14 0 0
      vertex 16.5 0 0
      vertex 16.1394 -3.43054 0
    endloop
  endfacet
  facet normal 0 0 -1
    outer loop
      vertex 13.6941 -2.91076 0
      vertex 16.1394 -3.43054 0
      vertex 15.0735 -6.71115 0
    endloop
  endfacet
  facet normal 0 0 -1
    outer loop
      vertex 16.5 0 0
      vertex 14 0 0
      vertex 16.1394 3.43054 0
    endloop
  endfacet
  facet normal 0 0 -1
    outer loop
      vertex 13.6941 2.91076 0
      vertex 16.1394 3.43054 0
      vertex 14 0 0
    endloop
  endfacet
  facet normal 0 0 -1
    outer loop
      vertex 16.1394 -3.43054 0
      vertex 13.6941 -2.91076 0
      vertex 14 0 0
    endloop
  endfacet
  facet normal 0 0 -1
    outer loop
      vertex 12.7896 -5.69431 0
      vertex 15.0735 -6.71115 0
      vertex 13.3488 -9.69846 0
    endloop
  endfacet
  facet normal 0 0 -1
    outer loop
      vertex 15.0735 -6.71115 0
      vertex 12.7896 -5.69431 0
      vertex 13.6941 -2.91076 0
    endloop
  endfacet
  facet normal 0 0 -1
    outer loop
      vertex 13.3488 -9.69846 0
      vertex 11.3262 -8.22899 0
      vertex 12.7896 -5.69431 0
    endloop
  endfacet
  facet normal 0 0 -1
    outer loop
      vertex 11.0407 -12.2619 0
      vertex 11.3262 -8.22899 0
      vertex 13.3488 -9.69846 0
    endloop
  endfacet
  facet normal 0 0 -1
    outer loop
      vertex 11.0407 -12.2619 0
      vertex 9.36783 -10.404 0
      vertex 11.3262 -8.22899 0
    endloop
  endfacet
  facet normal 0 0 -1
    outer loop
      vertex 8.25 -14.2894 0
      vertex 9.36783 -10.404 0
      vertex 11.0407 -12.2619 0
    endloop
  endfacet
  facet normal 0 0 -1
    outer loop
      vertex 8.25 -14.2894 0
      vertex 7 -12.1244 0
      vertex 9.36783 -10.404 0
    endloop
  endfacet
  facet normal 0 0 -1
    outer loop
      vertex 5.09878 -15.6924 0
      vertex 7 -12.1244 0
      vertex 8.25 -14.2894 0
    endloop
  endfacet
  facet normal 0 0 -1
    outer loop
      vertex 5.09878 -15.6924 0
      vertex 4.32624 -13.3148 0
      vertex 7 -12.1244 0
    endloop
  endfacet
  facet normal 0 0 -1
    outer loop
      vertex 1.72472 -16.4096 0
      vertex 4.32624 -13.3148 0
      vertex 5.09878 -15.6924 0
    endloop
  endfacet
  facet normal 0 0 -1
    outer loop
      vertex 1.72472 -16.4096 0
      vertex 1.4634 -13.9233 0
      vertex 4.32624 -13.3148 0
    endloop
  endfacet
  facet normal 0 0 -1
    outer loop
      vertex 1.72472 -16.4096 0
      vertex -1.4634 -13.9233 0
      vertex 1.4634 -13.9233 0
    endloop
  endfacet
  facet normal 0 0 -1
    outer loop
      vertex -1.72472 -16.4096 0
      vertex -1.4634 -13.9233 0
      vertex 1.72472 -16.4096 0
    endloop
  endfacet
  facet normal 0 0 -1
    outer loop
      vertex -1.72472 -16.4096 0
      vertex -4.32624 -13.3148 0
      vertex -1.4634 -13.9233 0
    endloop
  endfacet
  facet normal 0 0 -1
    outer loop
      vertex -5.09878 -15.6924 0
      vertex -4.32624 -13.3148 0
      vertex -1.72472 -16.4096 0
    endloop
  endfacet
  facet normal 0 0 -1
    outer loop
      vertex -5.09878 -15.6924 0
      vertex -7 -12.1244 0
      vertex -4.32624 -13.3148 0
    endloop
  endfacet
  facet normal 0 0 -1
    outer loop
      vertex -8.25 -14.2894 0
      vertex -7 -12.1244 0
      vertex -5.09878 -15.6924 0
    endloop
  endfacet
  facet normal 0 0 -1
    outer loop
      vertex -8.25 -14.2894 0
      vertex -9.36783 -10.404 0
      vertex -7 -12.1244 0
    endloop
  endfacet
  facet normal 0 0 -1
    outer loop
      vertex -11.0407 -12.2619 0
      vertex -9.36783 -10.404 0
      vertex -8.25 -14.2894 0
    endloop
  endfacet
  facet normal 0 0 -1
    outer loop
      vertex -11.0407 -12.2619 0
      vertex -11.3262 -8.22899 0
      vertex -9.36783 -10.404 0
    endloop
  endfacet
  facet normal 0 0 -1
    outer loop
      vertex -13.3488 -9.69846 0
      vertex -11.3262 -8.22899 0
      vertex -11.0407 -12.2619 0
    endloop
  endfacet
  facet normal -0 0 -1
    outer loop
      vertex -11.3262 -8.22899 0
      vertex -13.3488 -9.69846 0
      vertex -12.7896 -5.69431 0
    endloop
  endfacet
  facet normal 0 0 -1
    outer loop
      vertex -15.0735 -6.71115 0
      vertex -12.7896 -5.69431 0
      vertex -13.3488 -9.69846 0
    endloop
  endfacet
  facet normal -0 0 -1
    outer loop
      vertex -12.7896 -5.69431 0
      vertex -15.0735 -6.71115 0
      vertex -13.6941 -2.91076 0
    endloop
  endfacet
  facet normal 0 0 -1
    outer loop
      vertex -16.1394 -3.43054 0
      vertex -13.6941 -2.91076 0
      vertex -15.0735 -6.71115 0
    endloop
  endfacet
  facet normal -0 0 -1
    outer loop
      vertex 16.1394 3.43054 0
      vertex 13.6941 2.91076 0
      vertex 15.0735 6.71115 0
    endloop
  endfacet
  facet normal 0 0 -1
    outer loop
      vertex 12.7896 5.69431 0
      vertex 15.0735 6.71115 0
      vertex 13.6941 2.91076 0
    endloop
  endfacet
  facet normal -0 0 -1
    outer loop
      vertex 15.0735 6.71115 0
      vertex 12.7896 5.69431 0
      vertex 13.3488 9.69846 0
    endloop
  endfacet
  facet normal 0 0 -1
    outer loop
      vertex 11.3262 8.22899 0
      vertex 13.3488 9.69846 0
      vertex 12.7896 5.69431 0
    endloop
  endfacet
  facet normal 0 0 -1
    outer loop
      vertex 11.3262 8.22899 0
      vertex 11.0407 12.2619 0
      vertex 13.3488 9.69846 0
    endloop
  endfacet
  facet normal 0 0 -1
    outer loop
      vertex 9.36783 10.404 0
      vertex 11.0407 12.2619 0
      vertex 11.3262 8.22899 0
    endloop
  endfacet
  facet normal 0 0 -1
    outer loop
      vertex 9.36783 10.404 0
      vertex 8.25 14.2894 0
      vertex 11.0407 12.2619 0
    endloop
  endfacet
  facet normal 0 0 -1
    outer loop
      vertex 7 12.1244 0
      vertex 8.25 14.2894 0
      vertex 9.36783 10.404 0
    endloop
  endfacet
  facet normal 0 0 -1
    outer loop
      vertex 7 12.1244 0
      vertex 5.09878 15.6924 0
      vertex 8.25 14.2894 0
    endloop
  endfacet
  facet normal 0 0 -1
    outer loop
      vertex 4.32624 13.3148 0
      vertex 5.09878 15.6924 0
      vertex 7 12.1244 0
    endloop
  endfacet
  facet normal 0 0 -1
    outer loop
      vertex 4.32624 13.3148 0
      vertex 1.72472 16.4096 0
      vertex 5.09878 15.6924 0
    endloop
  endfacet
  facet normal 0 0 -1
    outer loop
      vertex 1.4634 13.9233 0
      vertex 1.72472 16.4096 0
      vertex 4.32624 13.3148 0
    endloop
  endfacet
  facet normal 0 0 -1
    outer loop
      vertex -1.4634 13.9233 0
      vertex 1.72472 16.4096 0
      vertex 1.4634 13.9233 0
    endloop
  endfacet
  facet normal 0 0 -1
    outer loop
      vertex -1.4634 13.9233 0
      vertex -1.72472 16.4096 0
      vertex 1.72472 16.4096 0
    endloop
  endfacet
  facet normal 0 0 -1
    outer loop
      vertex -4.32624 13.3148 0
      vertex -1.72472 16.4096 0
      vertex -1.4634 13.9233 0
    endloop
  endfacet
  facet normal 0 0 -1
    outer loop
      vertex -4.32624 13.3148 0
      vertex -5.09878 15.6924 0
      vertex -1.72472 16.4096 0
    endloop
  endfacet
  facet normal 0 0 -1
    outer loop
      vertex -7 12.1244 0
      vertex -5.09878 15.6924 0
      vertex -4.32624 13.3148 0
    endloop
  endfacet
  facet normal 0 0 -1
    outer loop
      vertex -7 12.1244 0
      vertex -8.25 14.2894 0
      vertex -5.09878 15.6924 0
    endloop
  endfacet
  facet normal 0 0 -1
    outer loop
      vertex -9.36783 10.404 0
      vertex -8.25 14.2894 0
      vertex -7 12.1244 0
    endloop
  endfacet
  facet normal 0 0 -1
    outer loop
      vertex -9.36783 10.404 0
      vertex -11.0407 12.2619 0
      vertex -8.25 14.2894 0
    endloop
  endfacet
  facet normal 0 0 -1
    outer loop
      vertex -11.3262 8.22899 0
      vertex -11.0407 12.2619 0
      vertex -9.36783 10.404 0
    endloop
  endfacet
  facet normal 0 0 -1
    outer loop
      vertex -13.3488 9.69846 0
      vertex -11.3262 8.22899 0
      vertex -12.7896 5.69431 0
    endloop
  endfacet
  facet normal 0 0 -1
    outer loop
      vertex -11.3262 8.22899 0
      vertex -13.3488 9.69846 0
      vertex -11.0407 12.2619 0
    endloop
  endfacet
  facet normal 0 0 -1
    outer loop
      vertex -15.0735 6.71115 0
      vertex -12.7896 5.69431 0
      vertex -13.6941 2.91076 0
    endloop
  endfacet
  facet normal 0 0 -1
    outer loop
      vertex -16.1394 3.43054 0
      vertex -13.6941 2.91076 0
      vertex -14 0 0
    endloop
  endfacet
  facet normal -0 0 -1
    outer loop
      vertex -13.6941 -2.91076 0
      vertex -16.1394 -3.43054 0
      vertex -14 0 0
    endloop
  endfacet
  facet normal 0 0 -1
    outer loop
      vertex -12.7896 5.69431 0
      vertex -15.0735 6.71115 0
      vertex -13.3488 9.69846 0
    endloop
  endfacet
  facet normal 0 0 -1
    outer loop
      vertex -16.5 0 0
      vertex -14 0 0
      vertex -16.1394 -3.43054 0
    endloop
  endfacet
  facet normal 0 0 -1
    outer loop
      vertex -13.6941 2.91076 0
      vertex -16.1394 3.43054 0
      vertex -15.0735 6.71115 0
    endloop
  endfacet
  facet normal 0 0 -1
    outer loop
      vertex -14 0 0
      vertex -16.5 0 0
      vertex -16.1394 3.43054 0
    endloop
  endfacet
  facet normal -0.951059 -0.309008 0
    outer loop
      vertex -15.0735 -6.71115 0
      vertex -16.1394 -3.43054 10
      vertex -16.1394 -3.43054 0
    endloop
  endfacet
  facet normal -0.951059 -0.309008 0
    outer loop
      vertex -16.1394 -3.43054 10
      vertex -15.0735 -6.71115 0
      vertex -15.0735 -6.71115 10
    endloop
  endfacet
  facet normal 0.743149 -0.669126 0
    outer loop
      vertex 11.0407 -12.2619 10
      vertex 13.3488 -9.69846 0
      vertex 13.3488 -9.69846 10
    endloop
  endfacet
  facet normal 0.743149 -0.669126 0
    outer loop
      vertex 13.3488 -9.69846 0
      vertex 11.0407 -12.2619 10
      vertex 11.0407 -12.2619 0
    endloop
  endfacet
  facet normal -0.406733 -0.913547 0
    outer loop
      vertex -8.25 -14.2894 0
      vertex -5.09878 -15.6924 10
      vertex -8.25 -14.2894 10
    endloop
  endfacet
  facet normal -0.406733 -0.913547 -0
    outer loop
      vertex -5.09878 -15.6924 10
      vertex -8.25 -14.2894 0
      vertex -5.09878 -15.6924 0
    endloop
  endfacet
  facet normal -0.866025 -0.5 0
    outer loop
      vertex 12.7896 5.69431 0
      vertex 11.3262 8.22899 10
      vertex 11.3262 8.22899 0
    endloop
  endfacet
  facet normal -0.866025 -0.5 0
    outer loop
      vertex 11.3262 8.22899 10
      vertex 12.7896 5.69431 0
      vertex 12.7896 5.69431 10
    endloop
  endfacet
  facet normal 0.994523 -0.104517 0
    outer loop
      vertex -14 0 10
      vertex -13.6941 2.91076 0
      vertex -13.6941 2.91076 10
    endloop
  endfacet
  facet normal 0.994523 -0.104517 0
    outer loop
      vertex -13.6941 2.91076 0
      vertex -14 0 10
      vertex -14 0 0
    endloop
  endfacet
  facet normal 0 -1 0
    outer loop
      vertex -1.4634 13.9233 0
      vertex 1.4634 13.9233 10
      vertex -1.4634 13.9233 10
    endloop
  endfacet
  facet normal 0 -1 -0
    outer loop
      vertex 1.4634 13.9233 10
      vertex -1.4634 13.9233 0
      vertex 1.4634 13.9233 0
    endloop
  endfacet
  facet normal -0.743148 -0.669127 0
    outer loop
      vertex 11.3262 8.22899 0
      vertex 9.36783 10.404 10
      vertex 9.36783 10.404 0
    endloop
  endfacet
  facet normal -0.743148 -0.669127 0
    outer loop
      vertex 9.36783 10.404 10
      vertex 11.3262 8.22899 0
      vertex 11.3262 8.22899 10
    endloop
  endfacet
  facet normal -0.207907 -0.978149 0
    outer loop
      vertex 1.4634 13.9233 0
      vertex 4.32624 13.3148 10
      vertex 1.4634 13.9233 10
    endloop
  endfacet
  facet normal -0.207907 -0.978149 -0
    outer loop
      vertex 4.32624 13.3148 10
      vertex 1.4634 13.9233 0
      vertex 4.32624 13.3148 0
    endloop
  endfacet
  facet normal 0.406727 -0.91355 0
    outer loop
      vertex -7 12.1244 0
      vertex -4.32624 13.3148 10
      vertex -7 12.1244 10
    endloop
  endfacet
  facet normal 0.406727 -0.91355 0
    outer loop
      vertex -4.32624 13.3148 10
      vertex -7 12.1244 0
      vertex -4.32624 13.3148 0
    endloop
  endfacet
  facet normal 0.95105 -0.309039 0
    outer loop
      vertex -13.6941 2.91076 10
      vertex -12.7896 5.69431 0
      vertex -12.7896 5.69431 10
    endloop
  endfacet
  facet normal 0.95105 -0.309039 0
    outer loop
      vertex -12.7896 5.69431 0
      vertex -13.6941 2.91076 10
      vertex -13.6941 2.91076 0
    endloop
  endfacet
  facet normal -0.994523 0.104517 0
    outer loop
      vertex 13.6941 -2.91076 0
      vertex 14 0 10
      vertex 14 0 0
    endloop
  endfacet
  facet normal -0.994523 0.104517 0
    outer loop
      vertex 14 0 10
      vertex 13.6941 -2.91076 0
      vertex 13.6941 -2.91076 10
    endloop
  endfacet
  facet normal -0.207907 0.978149 0
    outer loop
      vertex 4.32624 -13.3148 0
      vertex 1.4634 -13.9233 10
      vertex 4.32624 -13.3148 10
    endloop
  endfacet
  facet normal -0.207907 0.978149 0
    outer loop
      vertex 1.4634 -13.9233 10
      vertex 4.32624 -13.3148 0
      vertex 1.4634 -13.9233 0
    endloop
  endfacet
  facet normal -0.587801 -0.809005 0
    outer loop
      vertex 7 12.1244 0
      vertex 9.36783 10.404 10
      vertex 7 12.1244 10
    endloop
  endfacet
  facet normal -0.587801 -0.809005 -0
    outer loop
      vertex 9.36783 10.404 10
      vertex 7 12.1244 0
      vertex 9.36783 10.404 0
    endloop
  endfacet
  facet normal -0.406727 -0.91355 0
    outer loop
      vertex 4.32624 13.3148 0
      vertex 7 12.1244 10
      vertex 4.32624 13.3148 10
    endloop
  endfacet
  facet normal -0.406727 -0.91355 -0
    outer loop
      vertex 7 12.1244 10
      vertex 4.32624 13.3148 0
      vertex 7 12.1244 0
    endloop
  endfacet
  facet normal 0.866025 -0.5 0
    outer loop
      vertex -12.7896 5.69431 10
      vertex -11.3262 8.22899 0
      vertex -11.3262 8.22899 10
    endloop
  endfacet
  facet normal 0.866025 -0.5 0
    outer loop
      vertex -11.3262 8.22899 0
      vertex -12.7896 5.69431 10
      vertex -12.7896 5.69431 0
    endloop
  endfacet
  facet normal 0.587801 -0.809005 0
    outer loop
      vertex -9.36783 10.404 0
      vertex -7 12.1244 10
      vertex -9.36783 10.404 10
    endloop
  endfacet
  facet normal 0.587801 -0.809005 0
    outer loop
      vertex -7 12.1244 10
      vertex -9.36783 10.404 0
      vertex -7 12.1244 0
    endloop
  endfacet
  facet normal 0.207907 -0.978149 0
    outer loop
      vertex -4.32624 13.3148 0
      vertex -1.4634 13.9233 10
      vertex -4.32624 13.3148 10
    endloop
  endfacet
  facet normal 0.207907 -0.978149 0
    outer loop
      vertex -1.4634 13.9233 10
      vertex -4.32624 13.3148 0
      vertex -1.4634 13.9233 0
    endloop
  endfacet
  facet normal 0.743148 -0.669127 0
    outer loop
      vertex -11.3262 8.22899 10
      vertex -9.36783 10.404 0
      vertex -9.36783 10.404 10
    endloop
  endfacet
  facet normal 0.743148 -0.669127 0
    outer loop
      vertex -9.36783 10.404 0
      vertex -11.3262 8.22899 10
      vertex -11.3262 8.22899 0
    endloop
  endfacet
  facet normal -0.994523 -0.104517 0
    outer loop
      vertex 14 0 0
      vertex 13.6941 2.91076 10
      vertex 13.6941 2.91076 0
    endloop
  endfacet
  facet normal -0.994523 -0.104517 0
    outer loop
      vertex 13.6941 2.91076 10
      vertex 14 0 0
      vertex 14 0 10
    endloop
  endfacet
  facet normal -0.95105 0.309039 0
    outer loop
      vertex 12.7896 -5.69431 0
      vertex 13.6941 -2.91076 10
      vertex 13.6941 -2.91076 0
    endloop
  endfacet
  facet normal -0.95105 0.309039 0
    outer loop
      vertex 13.6941 -2.91076 10
      vertex 12.7896 -5.69431 0
      vertex 12.7896 -5.69431 10
    endloop
  endfacet
  facet normal 0.994523 0.104517 0
    outer loop
      vertex -13.6941 -2.91076 10
      vertex -14 0 0
      vertex -14 0 10
    endloop
  endfacet
  facet normal 0.994523 0.104517 0
    outer loop
      vertex -14 0 0
      vertex -13.6941 -2.91076 10
      vertex -13.6941 -2.91076 0
    endloop
  endfacet
  facet normal -0.587801 0.809005 0
    outer loop
      vertex 9.36783 -10.404 0
      vertex 7 -12.1244 10
      vertex 9.36783 -10.404 10
    endloop
  endfacet
  facet normal -0.587801 0.809005 0
    outer loop
      vertex 7 -12.1244 10
      vertex 9.36783 -10.404 0
      vertex 7 -12.1244 0
    endloop
  endfacet
  facet normal -0.95105 -0.309039 0
    outer loop
      vertex 13.6941 2.91076 0
      vertex 12.7896 5.69431 10
      vertex 12.7896 5.69431 0
    endloop
  endfacet
  facet normal -0.95105 -0.309039 0
    outer loop
      vertex 12.7896 5.69431 10
      vertex 13.6941 2.91076 0
      vertex 13.6941 2.91076 10
    endloop
  endfacet
  facet normal -0.866025 0.5 0
    outer loop
      vertex 11.3262 -8.22899 0
      vertex 12.7896 -5.69431 10
      vertex 12.7896 -5.69431 0
    endloop
  endfacet
  facet normal -0.866025 0.5 0
    outer loop
      vertex 12.7896 -5.69431 10
      vertex 11.3262 -8.22899 0
      vertex 11.3262 -8.22899 10
    endloop
  endfacet
  facet normal -0.406727 0.91355 0
    outer loop
      vertex 7 -12.1244 0
      vertex 4.32624 -13.3148 10
      vertex 7 -12.1244 10
    endloop
  endfacet
  facet normal -0.406727 0.91355 0
    outer loop
      vertex 4.32624 -13.3148 10
      vertex 7 -12.1244 0
      vertex 4.32624 -13.3148 0
    endloop
  endfacet
  facet normal 0.866025 0.5 0
    outer loop
      vertex -11.3262 -8.22899 10
      vertex -12.7896 -5.69431 0
      vertex -12.7896 -5.69431 10
    endloop
  endfacet
  facet normal 0.866025 0.5 0
    outer loop
      vertex -12.7896 -5.69431 0
      vertex -11.3262 -8.22899 10
      vertex -11.3262 -8.22899 0
    endloop
  endfacet
  facet normal 0.95105 0.309039 0
    outer loop
      vertex -12.7896 -5.69431 10
      vertex -13.6941 -2.91076 0
      vertex -13.6941 -2.91076 10
    endloop
  endfacet
  facet normal 0.95105 0.309039 0
    outer loop
      vertex -13.6941 -2.91076 0
      vertex -12.7896 -5.69431 10
      vertex -12.7896 -5.69431 0
    endloop
  endfacet
  facet normal 0.743148 0.669127 0
    outer loop
      vertex -9.36783 -10.404 10
      vertex -11.3262 -8.22899 0
      vertex -11.3262 -8.22899 10
    endloop
  endfacet
  facet normal 0.743148 0.669127 0
    outer loop
      vertex -11.3262 -8.22899 0
      vertex -9.36783 -10.404 10
      vertex -9.36783 -10.404 0
    endloop
  endfacet
  facet normal 0.207907 0.978149 -0
    outer loop
      vertex -1.4634 -13.9233 0
      vertex -4.32624 -13.3148 10
      vertex -1.4634 -13.9233 10
    endloop
  endfacet
  facet normal 0.207907 0.978149 0
    outer loop
      vertex -4.32624 -13.3148 10
      vertex -1.4634 -13.9233 0
      vertex -4.32624 -13.3148 0
    endloop
  endfacet
  facet normal 0 1 -0
    outer loop
      vertex 1.4634 -13.9233 0
      vertex -1.4634 -13.9233 10
      vertex 1.4634 -13.9233 10
    endloop
  endfacet
  facet normal 0 1 0
    outer loop
      vertex -1.4634 -13.9233 10
      vertex 1.4634 -13.9233 0
      vertex -1.4634 -13.9233 0
    endloop
  endfacet
  facet normal -0.743148 0.669127 0
    outer loop
      vertex 9.36783 -10.404 0
      vertex 11.3262 -8.22899 10
      vertex 11.3262 -8.22899 0
    endloop
  endfacet
  facet normal -0.743148 0.669127 0
    outer loop
      vertex 11.3262 -8.22899 10
      vertex 9.36783 -10.404 0
      vertex 9.36783 -10.404 10
    endloop
  endfacet
  facet normal 0.406727 0.91355 -0
    outer loop
      vertex -4.32624 -13.3148 0
      vertex -7 -12.1244 10
      vertex -4.32624 -13.3148 10
    endloop
  endfacet
  facet normal 0.406727 0.91355 0
    outer loop
      vertex -7 -12.1244 10
      vertex -4.32624 -13.3148 0
      vertex -7 -12.1244 0
    endloop
  endfacet
  facet normal 0.587801 0.809005 -0
    outer loop
      vertex -7 -12.1244 0
      vertex -9.36783 -10.404 10
      vertex -7 -12.1244 10
    endloop
  endfacet
  facet normal 0.587801 0.809005 0
    outer loop
      vertex -9.36783 -10.404 10
      vertex -7 -12.1244 0
      vertex -9.36783 -10.404 0
    endloop
  endfacet
endsolid OpenSCAD_Model
