solid OpenSCAD_Model
  facet normal -1 0 0
    outer loop
      vertex 0 0 -37
      vertex 0 155 0
      vertex 0 155 -37
    endloop
  endfacet
  facet normal -1 -0 0
    outer loop
      vertex 0 155 0
      vertex 0 0 -37
      vertex 0 0 0
    endloop
  endfacet
  facet normal 0 0 -1
    outer loop
      vertex 36 55 -37
      vertex 13.5 65 -37
      vertex 32.5 65 -37
    endloop
  endfacet
  facet normal -0 0 -1
    outer loop
      vertex 13.5 65 -37
      vertex 10 55 -37
      vertex 13.5 77 -37
    endloop
  endfacet
  facet normal 0 0 -1
    outer loop
      vertex 10 55 -37
      vertex 13.5 65 -37
      vertex 36 55 -37
    endloop
  endfacet
  facet normal 0 0 -1
    outer loop
      vertex 36 55 -37
      vertex 69.4 0 -37
      vertex 36 10 -37
    endloop
  endfacet
  facet normal 0 0 -1
    outer loop
      vertex 0 0 -37
      vertex 36 10 -37
      vertex 69.4 0 -37
    endloop
  endfacet
  facet normal -0 0 -1
    outer loop
      vertex 10 10 -37
      vertex 0 0 -37
      vertex 10 55 -37
    endloop
  endfacet
  facet normal -0 0 -1
    outer loop
      vertex 36 10 -37
      vertex 0 0 -37
      vertex 10 10 -37
    endloop
  endfacet
  facet normal 0 0 -1
    outer loop
      vertex 69.4 0 -37
      vertex 36 55 -37
      vertex 69.4 155 -37
    endloop
  endfacet
  facet normal 0 0 -1
    outer loop
      vertex 32.5 77 -37
      vertex 36 55 -37
      vertex 32.5 65 -37
    endloop
  endfacet
  facet normal 0 0 -1
    outer loop
      vertex 36 55 -37
      vertex 32.5 77 -37
      vertex 69.4 155 -37
    endloop
  endfacet
  facet normal 0 0 -1
    outer loop
      vertex 0 155 -37
      vertex 32.5 77 -37
      vertex 13.5 77 -37
    endloop
  endfacet
  facet normal 0 0 -1
    outer loop
      vertex 0 155 -37
      vertex 10 55 -37
      vertex 0 0 -37
    endloop
  endfacet
  facet normal 0 0 -1
    outer loop
      vertex 32.5 77 -37
      vertex 0 155 -37
      vertex 69.4 155 -37
    endloop
  endfacet
  facet normal 0 0 -1
    outer loop
      vertex 10 55 -37
      vertex 0 155 -37
      vertex 13.5 77 -37
    endloop
  endfacet
  facet normal 1 -0 0
    outer loop
      vertex 69.4 0 0
      vertex 69.4 155 -37
      vertex 69.4 155 0
    endloop
  endfacet
  facet normal 1 0 0
    outer loop
      vertex 69.4 155 -37
      vertex 69.4 0 0
      vertex 69.4 0 -37
    endloop
  endfacet
  facet normal 0 1 -0
    outer loop
      vertex 69.4 155 -37
      vertex 0 155 0
      vertex 69.4 155 0
    endloop
  endfacet
  facet normal 0 1 0
    outer loop
      vertex 0 155 0
      vertex 69.4 155 -37
      vertex 0 155 -37
    endloop
  endfacet
  facet normal 0 0 1
    outer loop
      vertex 69.4 155 0
      vertex 67.4 153 0
      vertex 69.4 0 0
    endloop
  endfacet
  facet normal 0 0 1
    outer loop
      vertex 69.4 155 0
      vertex 2 153 0
      vertex 67.4 153 0
    endloop
  endfacet
  facet normal 0 0 1
    outer loop
      vertex 2 153 0
      vertex 0 155 0
      vertex 2 2 0
    endloop
  endfacet
  facet normal -0 0 1
    outer loop
      vertex 0 155 0
      vertex 2 153 0
      vertex 69.4 155 0
    endloop
  endfacet
  facet normal -0 0 1
    outer loop
      vertex 67.4 2 0
      vertex 69.4 0 0
      vertex 67.4 153 0
    endloop
  endfacet
  facet normal -0 0 1
    outer loop
      vertex 2 2 0
      vertex 69.4 0 0
      vertex 67.4 2 0
    endloop
  endfacet
  facet normal 0 0 1
    outer loop
      vertex 2 2 0
      vertex 0 0 0
      vertex 69.4 0 0
    endloop
  endfacet
  facet normal 0 0 1
    outer loop
      vertex 0 0 0
      vertex 2 2 0
      vertex 0 155 0
    endloop
  endfacet
  facet normal 0 -1 0
    outer loop
      vertex 48.1411 0 -20.4582
      vertex 69.4 0 0
      vertex 0 0 0
    endloop
  endfacet
  facet normal 0 -1 0
    outer loop
      vertex 69.4 0 0
      vertex 48.1411 0 -20.4582
      vertex 50 0 -20
    endloop
  endfacet
  facet normal 0 -1 0
    outer loop
      vertex 0 0 0
      vertex 46.7081 0 -21.7277
      vertex 48.1411 0 -20.4582
    endloop
  endfacet
  facet normal 0 -1 0
    outer loop
      vertex 0 0 0
      vertex 46.0292 0 -23.5179
      vertex 46.7081 0 -21.7277
    endloop
  endfacet
  facet normal 0 -1 0
    outer loop
      vertex 0 0 -37
      vertex 46.0292 0 -23.5179
      vertex 0 0 0
    endloop
  endfacet
  facet normal 0 -1 -0
    outer loop
      vertex 46.0292 0 -23.5179
      vertex 0 0 -37
      vertex 46.2599 0 -25.4184
    endloop
  endfacet
  facet normal 0 -1 0
    outer loop
      vertex 69.4 0 -37
      vertex 49.0427 0 -27.8838
      vertex 0 0 -37
    endloop
  endfacet
  facet normal 0 -1 -0
    outer loop
      vertex 47.3475 0 -26.994
      vertex 0 0 -37
      vertex 49.0427 0 -27.8838
    endloop
  endfacet
  facet normal 0 -1 -0
    outer loop
      vertex 46.2599 0 -25.4184
      vertex 0 0 -37
      vertex 47.3475 0 -26.994
    endloop
  endfacet
  facet normal 0 -1 0
    outer loop
      vertex 51.8589 0 -20.4582
      vertex 69.4 0 0
      vertex 50 0 -20
    endloop
  endfacet
  facet normal 0 -1 0
    outer loop
      vertex 53.2919 0 -21.7277
      vertex 69.4 0 0
      vertex 51.8589 0 -20.4582
    endloop
  endfacet
  facet normal 0 -1 0
    outer loop
      vertex 53.9708 0 -23.5179
      vertex 69.4 0 0
      vertex 53.2919 0 -21.7277
    endloop
  endfacet
  facet normal 0 -1 0
    outer loop
      vertex 69.4 0 -37
      vertex 53.9708 0 -23.5179
      vertex 53.7401 0 -25.4184
    endloop
  endfacet
  facet normal 0 -1 0
    outer loop
      vertex 53.9708 0 -23.5179
      vertex 69.4 0 -37
      vertex 69.4 0 0
    endloop
  endfacet
  facet normal 0 -1 0
    outer loop
      vertex 52.6525 0 -26.994
      vertex 69.4 0 -37
      vertex 53.7401 0 -25.4184
    endloop
  endfacet
  facet normal 0 -1 0
    outer loop
      vertex 50.9573 0 -27.8838
      vertex 69.4 0 -37
      vertex 52.6525 0 -26.994
    endloop
  endfacet
  facet normal 0 -1 0
    outer loop
      vertex 49.0427 0 -27.8838
      vertex 69.4 0 -37
      vertex 50.9573 0 -27.8838
    endloop
  endfacet
  facet normal 1 0 0
    outer loop
      vertex 4.1 132.3 -6.999
      vertex 4.1 3.9 -6.999
      vertex 4.1 132.3 -13.999
    endloop
  endfacet
  facet normal 1 -0 0
    outer loop
      vertex 4.1 132.3 -13.999
      vertex 4.1 151.1 -34.999
      vertex 4.1 151.1 -13.999
    endloop
  endfacet
  facet normal 1 0 0
    outer loop
      vertex 4.1 3.9 -34.999
      vertex 4.1 132.3 -13.999
      vertex 4.1 3.9 -6.999
    endloop
  endfacet
  facet normal 1 0 0
    outer loop
      vertex 4.1 132.3 -13.999
      vertex 4.1 3.9 -34.999
      vertex 4.1 151.1 -34.999
    endloop
  endfacet
  facet normal 0 0 1
    outer loop
      vertex 65.3 151.1 -34.999
      vertex 36 55 -34.999
      vertex 65.3 3.9 -34.999
    endloop
  endfacet
  facet normal 0 0 1
    outer loop
      vertex 65.3 151.1 -34.999
      vertex 32.5 77 -34.999
      vertex 36 55 -34.999
    endloop
  endfacet
  facet normal -0 0 1
    outer loop
      vertex 4.1 151.1 -34.999
      vertex 32.5 77 -34.999
      vertex 65.3 151.1 -34.999
    endloop
  endfacet
  facet normal 0 0 1
    outer loop
      vertex 13.5 77 -34.999
      vertex 10 55 -34.999
      vertex 13.5 65 -34.999
    endloop
  endfacet
  facet normal 0 0 1
    outer loop
      vertex 4.1 3.9 -34.999
      vertex 10 55 -34.999
      vertex 4.1 151.1 -34.999
    endloop
  endfacet
  facet normal 0 0 1
    outer loop
      vertex 13.5 77 -34.999
      vertex 4.1 151.1 -34.999
      vertex 10 55 -34.999
    endloop
  endfacet
  facet normal 0 0 1
    outer loop
      vertex 32.5 77 -34.999
      vertex 4.1 151.1 -34.999
      vertex 13.5 77 -34.999
    endloop
  endfacet
  facet normal -0 0 1
    outer loop
      vertex 36 10 -34.999
      vertex 65.3 3.9 -34.999
      vertex 36 55 -34.999
    endloop
  endfacet
  facet normal 0 0 1
    outer loop
      vertex 4.1 3.9 -34.999
      vertex 36 10 -34.999
      vertex 10 10 -34.999
    endloop
  endfacet
  facet normal 0 0 1
    outer loop
      vertex 36 10 -34.999
      vertex 4.1 3.9 -34.999
      vertex 65.3 3.9 -34.999
    endloop
  endfacet
  facet normal 0 0 1
    outer loop
      vertex 10 55 -34.999
      vertex 4.1 3.9 -34.999
      vertex 10 10 -34.999
    endloop
  endfacet
  facet normal -0 0 1
    outer loop
      vertex 32.5 65 -34.999
      vertex 36 55 -34.999
      vertex 32.5 77 -34.999
    endloop
  endfacet
  facet normal -0 0 1
    outer loop
      vertex 13.5 65 -34.999
      vertex 36 55 -34.999
      vertex 32.5 65 -34.999
    endloop
  endfacet
  facet normal 0 0 1
    outer loop
      vertex 36 55 -34.999
      vertex 13.5 65 -34.999
      vertex 10 55 -34.999
    endloop
  endfacet
  facet normal -1 0 0
    outer loop
      vertex 65.3 151.1 -34.999
      vertex 65.3 132.3 -13.999
      vertex 65.3 151.1 -13.999
    endloop
  endfacet
  facet normal -1 0 0
    outer loop
      vertex 65.3 3.9 -34.999
      vertex 65.3 132.3 -13.999
      vertex 65.3 151.1 -34.999
    endloop
  endfacet
  facet normal -1 0 0
    outer loop
      vertex 65.3 3.9 -6.999
      vertex 65.3 132.3 -13.999
      vertex 65.3 3.9 -34.999
    endloop
  endfacet
  facet normal -1 0 0
    outer loop
      vertex 65.3 132.3 -13.999
      vertex 65.3 3.9 -6.999
      vertex 65.3 132.3 -6.999
    endloop
  endfacet
  facet normal 0 -1 0
    outer loop
      vertex 4.1 151.1 -34.999
      vertex 22 151.1 -13.999
      vertex 4.1 151.1 -13.999
    endloop
  endfacet
  facet normal 0 -1 -0
    outer loop
      vertex 22 151.1 -13.999
      vertex 4.1 151.1 -34.999
      vertex 47.4 151.1 -13.999
    endloop
  endfacet
  facet normal 0 -1 0
    outer loop
      vertex 65.3 151.1 -34.999
      vertex 47.4 151.1 -13.999
      vertex 4.1 151.1 -34.999
    endloop
  endfacet
  facet normal 0 -1 0
    outer loop
      vertex 47.4 151.1 -13.999
      vertex 65.3 151.1 -34.999
      vertex 65.3 151.1 -13.999
    endloop
  endfacet
  facet normal 0 -1 0
    outer loop
      vertex 22 151.1 -13.999
      vertex 47.4 151.1 -6.999
      vertex 22 151.1 -6.999
    endloop
  endfacet
  facet normal 0 -1 -0
    outer loop
      vertex 47.4 151.1 -6.999
      vertex 22 151.1 -13.999
      vertex 47.4 151.1 -13.999
    endloop
  endfacet
  facet normal 0 1 0
    outer loop
      vertex 48.1411 3.9 -20.4582
      vertex 65.3 3.9 -6.999
      vertex 50 3.9 -20
    endloop
  endfacet
  facet normal 0 1 0
    outer loop
      vertex 65.3 3.9 -6.999
      vertex 51.8589 3.9 -20.4582
      vertex 50 3.9 -20
    endloop
  endfacet
  facet normal 0 1 0
    outer loop
      vertex 65.3 3.9 -6.999
      vertex 53.2919 3.9 -21.7277
      vertex 51.8589 3.9 -20.4582
    endloop
  endfacet
  facet normal 0 1 0
    outer loop
      vertex 65.3 3.9 -6.999
      vertex 53.9708 3.9 -23.5179
      vertex 53.2919 3.9 -21.7277
    endloop
  endfacet
  facet normal 0 1 -0
    outer loop
      vertex 65.3 3.9 -34.999
      vertex 53.9708 3.9 -23.5179
      vertex 65.3 3.9 -6.999
    endloop
  endfacet
  facet normal 0 1 0
    outer loop
      vertex 50.9573 3.9 -27.8838
      vertex 65.3 3.9 -34.999
      vertex 49.0427 3.9 -27.8838
    endloop
  endfacet
  facet normal 0 1 0
    outer loop
      vertex 52.6525 3.9 -26.994
      vertex 65.3 3.9 -34.999
      vertex 50.9573 3.9 -27.8838
    endloop
  endfacet
  facet normal 0 1 0
    outer loop
      vertex 53.7401 3.9 -25.4184
      vertex 65.3 3.9 -34.999
      vertex 52.6525 3.9 -26.994
    endloop
  endfacet
  facet normal 0 1 0
    outer loop
      vertex 53.9708 3.9 -23.5179
      vertex 65.3 3.9 -34.999
      vertex 53.7401 3.9 -25.4184
    endloop
  endfacet
  facet normal 0 1 0
    outer loop
      vertex 65.3 3.9 -6.999
      vertex 48.1411 3.9 -20.4582
      vertex 4.1 3.9 -6.999
    endloop
  endfacet
  facet normal 0 1 -0
    outer loop
      vertex 46.7081 3.9 -21.7277
      vertex 4.1 3.9 -6.999
      vertex 48.1411 3.9 -20.4582
    endloop
  endfacet
  facet normal 0 1 -0
    outer loop
      vertex 46.0292 3.9 -23.5179
      vertex 4.1 3.9 -6.999
      vertex 46.7081 3.9 -21.7277
    endloop
  endfacet
  facet normal 0 1 0
    outer loop
      vertex 4.1 3.9 -34.999
      vertex 46.0292 3.9 -23.5179
      vertex 46.2599 3.9 -25.4184
    endloop
  endfacet
  facet normal 0 1 0
    outer loop
      vertex 4.1 3.9 -34.999
      vertex 46.2599 3.9 -25.4184
      vertex 47.3475 3.9 -26.994
    endloop
  endfacet
  facet normal 0 1 0
    outer loop
      vertex 4.1 3.9 -34.999
      vertex 47.3475 3.9 -26.994
      vertex 49.0427 3.9 -27.8838
    endloop
  endfacet
  facet normal 0 1 0
    outer loop
      vertex 46.0292 3.9 -23.5179
      vertex 4.1 3.9 -34.999
      vertex 4.1 3.9 -6.999
    endloop
  endfacet
  facet normal 0 1 0
    outer loop
      vertex 4.1 3.9 -34.999
      vertex 49.0427 3.9 -27.8838
      vertex 65.3 3.9 -34.999
    endloop
  endfacet
  facet normal 1 0 0
    outer loop
      vertex 2 153 0
      vertex 2 132.3 -6.999
      vertex 2 153 -13.999
    endloop
  endfacet
  facet normal 1 -0 0
    outer loop
      vertex 2 2 0
      vertex 2 132.3 -6.999
      vertex 2 153 0
    endloop
  endfacet
  facet normal 1 0 0
    outer loop
      vertex 2 132.3 -6.999
      vertex 2 2 0
      vertex 2 2 -6.999
    endloop
  endfacet
  facet normal 1 0 0
    outer loop
      vertex 2 153 -13.999
      vertex 2 132.3 -6.999
      vertex 2 132.3 -13.999
    endloop
  endfacet
  facet normal 0 0 1
    outer loop
      vertex 4.1 132.3 -6.999
      vertex 2 132.3 -6.999
      vertex 4.1 3.9 -6.999
    endloop
  endfacet
  facet normal 0 0 1
    outer loop
      vertex 65.3 3.9 -6.999
      vertex 67.4 132.3 -6.999
      vertex 65.3 132.3 -6.999
    endloop
  endfacet
  facet normal 0 0 1
    outer loop
      vertex 67.4 132.3 -6.999
      vertex 65.3 3.9 -6.999
      vertex 67.4 2 -6.999
    endloop
  endfacet
  facet normal -0 0 1
    outer loop
      vertex 4.1 3.9 -6.999
      vertex 67.4 2 -6.999
      vertex 65.3 3.9 -6.999
    endloop
  endfacet
  facet normal 0 0 1
    outer loop
      vertex 4.1 3.9 -6.999
      vertex 2 2 -6.999
      vertex 67.4 2 -6.999
    endloop
  endfacet
  facet normal 0 0 1
    outer loop
      vertex 2 2 -6.999
      vertex 4.1 3.9 -6.999
      vertex 2 132.3 -6.999
    endloop
  endfacet
  facet normal -0 0 1
    outer loop
      vertex 22 153 -6.999
      vertex 47.4 151.1 -6.999
      vertex 47.4 153 -6.999
    endloop
  endfacet
  facet normal 0 0 1
    outer loop
      vertex 47.4 151.1 -6.999
      vertex 22 153 -6.999
      vertex 22 151.1 -6.999
    endloop
  endfacet
  facet normal -1 0 0
    outer loop
      vertex 67.4 132.3 -6.999
      vertex 67.4 153 -13.999
      vertex 67.4 132.3 -13.999
    endloop
  endfacet
  facet normal -1 0 0
    outer loop
      vertex 67.4 153 -13.999
      vertex 67.4 132.3 -6.999
      vertex 67.4 153 0
    endloop
  endfacet
  facet normal -1 0 0
    outer loop
      vertex 67.4 2 0
      vertex 67.4 132.3 -6.999
      vertex 67.4 2 -6.999
    endloop
  endfacet
  facet normal -1 0 0
    outer loop
      vertex 67.4 132.3 -6.999
      vertex 67.4 2 0
      vertex 67.4 153 0
    endloop
  endfacet
  facet normal 0 1 -0
    outer loop
      vertex 67.4 2 -6.999
      vertex 2 2 0
      vertex 67.4 2 0
    endloop
  endfacet
  facet normal 0 1 0
    outer loop
      vertex 2 2 0
      vertex 67.4 2 -6.999
      vertex 2 2 -6.999
    endloop
  endfacet
  facet normal 0 -1 0
    outer loop
      vertex 2 153 0
      vertex 22 153 -6.999
      vertex 67.4 153 0
    endloop
  endfacet
  facet normal 0 -1 0
    outer loop
      vertex 2 153 -13.999
      vertex 22 153 -6.999
      vertex 2 153 0
    endloop
  endfacet
  facet normal 0 -1 -0
    outer loop
      vertex 22 153 -6.999
      vertex 2 153 -13.999
      vertex 22 153 -13.999
    endloop
  endfacet
  facet normal 0 -1 0
    outer loop
      vertex 47.4 153 -6.999
      vertex 67.4 153 0
      vertex 22 153 -6.999
    endloop
  endfacet
  facet normal 0 -1 0
    outer loop
      vertex 67.4 153 -13.999
      vertex 47.4 153 -6.999
      vertex 47.4 153 -13.999
    endloop
  endfacet
  facet normal 0 -1 0
    outer loop
      vertex 47.4 153 -6.999
      vertex 67.4 153 -13.999
      vertex 67.4 153 0
    endloop
  endfacet
  facet normal 0 0 1
    outer loop
      vertex 22 153 -13.999
      vertex 4.1 151.1 -13.999
      vertex 22 151.1 -13.999
    endloop
  endfacet
  facet normal -0 0 1
    outer loop
      vertex 2 153 -13.999
      vertex 4.1 151.1 -13.999
      vertex 22 153 -13.999
    endloop
  endfacet
  facet normal 0 0 1
    outer loop
      vertex 2 132.3 -13.999
      vertex 4.1 151.1 -13.999
      vertex 2 153 -13.999
    endloop
  endfacet
  facet normal 0 0 1
    outer loop
      vertex 4.1 151.1 -13.999
      vertex 2 132.3 -13.999
      vertex 4.1 132.3 -13.999
    endloop
  endfacet
  facet normal -1 0 0
    outer loop
      vertex 22 151.1 -13.999
      vertex 22 153 -6.999
      vertex 22 153 -13.999
    endloop
  endfacet
  facet normal -1 -0 0
    outer loop
      vertex 22 153 -6.999
      vertex 22 151.1 -13.999
      vertex 22 151.1 -6.999
    endloop
  endfacet
  facet normal 0 1 -0
    outer loop
      vertex 4.1 132.3 -13.999
      vertex 2 132.3 -6.999
      vertex 4.1 132.3 -6.999
    endloop
  endfacet
  facet normal 0 1 0
    outer loop
      vertex 2 132.3 -6.999
      vertex 4.1 132.3 -13.999
      vertex 2 132.3 -13.999
    endloop
  endfacet
  facet normal 1 -0 0
    outer loop
      vertex 47.4 151.1 -6.999
      vertex 47.4 153 -13.999
      vertex 47.4 153 -6.999
    endloop
  endfacet
  facet normal 1 0 0
    outer loop
      vertex 47.4 153 -13.999
      vertex 47.4 151.1 -6.999
      vertex 47.4 151.1 -13.999
    endloop
  endfacet
  facet normal 0 0 1
    outer loop
      vertex 67.4 153 -13.999
      vertex 65.3 151.1 -13.999
      vertex 67.4 132.3 -13.999
    endloop
  endfacet
  facet normal -0 0 1
    outer loop
      vertex 47.4 153 -13.999
      vertex 65.3 151.1 -13.999
      vertex 67.4 153 -13.999
    endloop
  endfacet
  facet normal 0 0 1
    outer loop
      vertex 65.3 151.1 -13.999
      vertex 47.4 153 -13.999
      vertex 47.4 151.1 -13.999
    endloop
  endfacet
  facet normal 0 0 1
    outer loop
      vertex 67.4 132.3 -13.999
      vertex 65.3 151.1 -13.999
      vertex 65.3 132.3 -13.999
    endloop
  endfacet
  facet normal 0 1 -0
    outer loop
      vertex 67.4 132.3 -13.999
      vertex 65.3 132.3 -6.999
      vertex 67.4 132.3 -6.999
    endloop
  endfacet
  facet normal 0 1 0
    outer loop
      vertex 65.3 132.3 -6.999
      vertex 67.4 132.3 -13.999
      vertex 65.3 132.3 -13.999
    endloop
  endfacet
  facet normal 1 -0 0
    outer loop
      vertex 10 10 -34.999
      vertex 10 55 -37
      vertex 10 55 -34.999
    endloop
  endfacet
  facet normal 1 0 0
    outer loop
      vertex 10 55 -37
      vertex 10 10 -34.999
      vertex 10 10 -37
    endloop
  endfacet
  facet normal -1 0 0
    outer loop
      vertex 36 10 -37
      vertex 36 55 -34.999
      vertex 36 55 -37
    endloop
  endfacet
  facet normal -1 -0 0
    outer loop
      vertex 36 55 -34.999
      vertex 36 10 -37
      vertex 36 10 -34.999
    endloop
  endfacet
  facet normal 0 1 -0
    outer loop
      vertex 36 10 -37
      vertex 10 10 -34.999
      vertex 36 10 -34.999
    endloop
  endfacet
  facet normal 0 1 0
    outer loop
      vertex 10 10 -34.999
      vertex 36 10 -37
      vertex 10 10 -37
    endloop
  endfacet
  facet normal 0 -1 0
    outer loop
      vertex 10 55 -37
      vertex 36 55 -34.999
      vertex 10 55 -34.999
    endloop
  endfacet
  facet normal 0 -1 -0
    outer loop
      vertex 36 55 -34.999
      vertex 10 55 -37
      vertex 36 55 -37
    endloop
  endfacet
  facet normal 1 -0 0
    outer loop
      vertex 13.5 65 -34.999
      vertex 13.5 77 -37
      vertex 13.5 77 -34.999
    endloop
  endfacet
  facet normal 1 0 0
    outer loop
      vertex 13.5 77 -37
      vertex 13.5 65 -34.999
      vertex 13.5 65 -37
    endloop
  endfacet
  facet normal -1 0 0
    outer loop
      vertex 32.5 65 -37
      vertex 32.5 77 -34.999
      vertex 32.5 77 -37
    endloop
  endfacet
  facet normal -1 -0 0
    outer loop
      vertex 32.5 77 -34.999
      vertex 32.5 65 -37
      vertex 32.5 65 -34.999
    endloop
  endfacet
  facet normal 0 -1 0
    outer loop
      vertex 13.5 77 -37
      vertex 32.5 77 -34.999
      vertex 13.5 77 -34.999
    endloop
  endfacet
  facet normal 0 -1 -0
    outer loop
      vertex 32.5 77 -34.999
      vertex 13.5 77 -37
      vertex 32.5 77 -37
    endloop
  endfacet
  facet normal 0 1 -0
    outer loop
      vertex 32.5 65 -37
      vertex 13.5 65 -34.999
      vertex 32.5 65 -34.999
    endloop
  endfacet
  facet normal 0 1 0
    outer loop
      vertex 13.5 65 -34.999
      vertex 32.5 65 -37
      vertex 13.5 65 -37
    endloop
  endfacet
  facet normal 0.992709 -0 0.120536
    outer loop
      vertex 46.0292 0 -23.5179
      vertex 46.2599 3.9 -25.4184
      vertex 46.0292 3.9 -23.5179
    endloop
  endfacet
  facet normal 0.992709 0 0.120536
    outer loop
      vertex 46.2599 3.9 -25.4184
      vertex 46.0292 0 -23.5179
      vertex 46.2599 0 -25.4184
    endloop
  endfacet
  facet normal 0.239315 0 -0.970942
    outer loop
      vertex 48.1411 0 -20.4582
      vertex 50 3.9 -20
      vertex 50 0 -20
    endloop
  endfacet
  facet normal 0.239315 0 -0.970942
    outer loop
      vertex 50 3.9 -20
      vertex 48.1411 0 -20.4582
      vertex 48.1411 3.9 -20.4582
    endloop
  endfacet
  facet normal 0.822984 -0 0.568065
    outer loop
      vertex 46.2599 0 -25.4184
      vertex 47.3475 3.9 -26.994
      vertex 46.2599 3.9 -25.4184
    endloop
  endfacet
  facet normal 0.822984 0 0.568065
    outer loop
      vertex 47.3475 3.9 -26.994
      vertex 46.2599 0 -25.4184
      vertex 47.3475 0 -26.994
    endloop
  endfacet
  facet normal -0.935017 0 -0.354604
    outer loop
      vertex 53.9708 0 -23.5179
      vertex 53.2919 3.9 -21.7277
      vertex 53.9708 3.9 -23.5179
    endloop
  endfacet
  facet normal -0.935017 -0 -0.354604
    outer loop
      vertex 53.2919 3.9 -21.7277
      vertex 53.9708 0 -23.5179
      vertex 53.2919 0 -21.7277
    endloop
  endfacet
  facet normal -0.822983 0 0.568066
    outer loop
      vertex 52.6525 0 -26.994
      vertex 53.7401 3.9 -25.4184
      vertex 52.6525 3.9 -26.994
    endloop
  endfacet
  facet normal -0.822983 0 0.568066
    outer loop
      vertex 53.7401 3.9 -25.4184
      vertex 52.6525 0 -26.994
      vertex 53.7401 0 -25.4184
    endloop
  endfacet
  facet normal -0.239315 0 -0.970942
    outer loop
      vertex 50 0 -20
      vertex 51.8589 3.9 -20.4582
      vertex 51.8589 0 -20.4582
    endloop
  endfacet
  facet normal -0.239315 0 -0.970942
    outer loop
      vertex 51.8589 3.9 -20.4582
      vertex 50 0 -20
      vertex 50 3.9 -20
    endloop
  endfacet
  facet normal -0.464723 0 0.885456
    outer loop
      vertex 50.9573 3.9 -27.8838
      vertex 52.6525 0 -26.994
      vertex 52.6525 3.9 -26.994
    endloop
  endfacet
  facet normal -0.464723 0 0.885456
    outer loop
      vertex 52.6525 0 -26.994
      vertex 50.9573 3.9 -27.8838
      vertex 50.9573 0 -27.8838
    endloop
  endfacet
  facet normal 0.935016 0 -0.354606
    outer loop
      vertex 46.7081 0 -21.7277
      vertex 46.0292 3.9 -23.5179
      vertex 46.7081 3.9 -21.7277
    endloop
  endfacet
  facet normal 0.935016 0 -0.354606
    outer loop
      vertex 46.0292 3.9 -23.5179
      vertex 46.7081 0 -21.7277
      vertex 46.0292 0 -23.5179
    endloop
  endfacet
  facet normal -0.663123 0 -0.74851
    outer loop
      vertex 51.8589 0 -20.4582
      vertex 53.2919 3.9 -21.7277
      vertex 53.2919 0 -21.7277
    endloop
  endfacet
  facet normal -0.663123 0 -0.74851
    outer loop
      vertex 53.2919 3.9 -21.7277
      vertex 51.8589 0 -20.4582
      vertex 51.8589 3.9 -20.4582
    endloop
  endfacet
  facet normal 0.663123 0 -0.74851
    outer loop
      vertex 46.7081 0 -21.7277
      vertex 48.1411 3.9 -20.4582
      vertex 48.1411 0 -20.4582
    endloop
  endfacet
  facet normal 0.663123 0 -0.74851
    outer loop
      vertex 48.1411 3.9 -20.4582
      vertex 46.7081 0 -21.7277
      vertex 46.7081 3.9 -21.7277
    endloop
  endfacet
  facet normal 0.464723 0 0.885456
    outer loop
      vertex 47.3475 3.9 -26.994
      vertex 49.0427 0 -27.8838
      vertex 49.0427 3.9 -27.8838
    endloop
  endfacet
  facet normal 0.464723 0 0.885456
    outer loop
      vertex 49.0427 0 -27.8838
      vertex 47.3475 3.9 -26.994
      vertex 47.3475 0 -26.994
    endloop
  endfacet
  facet normal -0 0 1
    outer loop
      vertex 49.0427 3.9 -27.8838
      vertex 50.9573 0 -27.8838
      vertex 50.9573 3.9 -27.8838
    endloop
  endfacet
  facet normal 0 0 1
    outer loop
      vertex 50.9573 0 -27.8838
      vertex 49.0427 3.9 -27.8838
      vertex 49.0427 0 -27.8838
    endloop
  endfacet
  facet normal -0.992709 0 0.120535
    outer loop
      vertex 53.7401 0 -25.4184
      vertex 53.9708 3.9 -23.5179
      vertex 53.7401 3.9 -25.4184
    endloop
  endfacet
  facet normal -0.992709 0 0.120535
    outer loop
      vertex 53.9708 3.9 -23.5179
      vertex 53.7401 0 -25.4184
      vertex 53.9708 0 -23.5179
    endloop
  endfacet
endsolid OpenSCAD_Model
