solid ASCII
  facet normal 1.000000e+00 -0.000000e+00 0.000000e+00
    outer loop
      vertex   3.050000e+01 0.000000e+00 5.000000e+00
      vertex   3.050000e+01 0.000000e+00 -3.000000e+01
      vertex   3.050000e+01 2.000000e+01 5.000000e+00
    endloop
  endfacet
  facet normal 1.000000e+00 0.000000e+00 0.000000e+00
    outer loop
      vertex   3.050000e+01 2.000000e+01 5.000000e+00
      vertex   3.050000e+01 0.000000e+00 -3.000000e+01
      vertex   3.050000e+01 2.000000e+01 -3.000000e+01
    endloop
  endfacet
  facet normal 4.906767e-02 -1.774217e-16 9.987955e-01
    outer loop
      vertex   2.050000e+01 2.000000e+01 1.500000e+01
      vertex   2.050000e+01 0.000000e+00 1.500000e+01
      vertex   2.148017e+01 2.000000e+01 1.495185e+01
    endloop
  endfacet
  facet normal 4.906767e-02 0.000000e+00 9.987955e-01
    outer loop
      vertex   2.148017e+01 2.000000e+01 1.495185e+01
      vertex   2.050000e+01 0.000000e+00 1.500000e+01
      vertex   2.148017e+01 0.000000e+00 1.495185e+01
    endloop
  endfacet
  facet normal 1.467305e-01 0.000000e+00 9.891765e-01
    outer loop
      vertex   2.148017e+01 2.000000e+01 1.495185e+01
      vertex   2.148017e+01 0.000000e+00 1.495185e+01
      vertex   2.245090e+01 0.000000e+00 1.480785e+01
    endloop
  endfacet
  facet normal 1.467305e-01 0.000000e+00 9.891765e-01
    outer loop
      vertex   2.148017e+01 2.000000e+01 1.495185e+01
      vertex   2.245090e+01 0.000000e+00 1.480785e+01
      vertex   2.245090e+01 2.000000e+01 1.480785e+01
    endloop
  endfacet
  facet normal 2.429802e-01 0.000000e+00 9.700313e-01
    outer loop
      vertex   2.245090e+01 2.000000e+01 1.480785e+01
      vertex   2.245090e+01 0.000000e+00 1.480785e+01
      vertex   2.340285e+01 0.000000e+00 1.456940e+01
    endloop
  endfacet
  facet normal 2.429802e-01 0.000000e+00 9.700313e-01
    outer loop
      vertex   2.245090e+01 2.000000e+01 1.480785e+01
      vertex   2.340285e+01 0.000000e+00 1.456940e+01
      vertex   2.340285e+01 2.000000e+01 1.456940e+01
    endloop
  endfacet
  facet normal 3.368899e-01 0.000000e+00 9.415441e-01
    outer loop
      vertex   2.340285e+01 2.000000e+01 1.456940e+01
      vertex   2.340285e+01 0.000000e+00 1.456940e+01
      vertex   2.432683e+01 0.000000e+00 1.423880e+01
    endloop
  endfacet
  facet normal 3.368899e-01 0.000000e+00 9.415441e-01
    outer loop
      vertex   2.340285e+01 2.000000e+01 1.456940e+01
      vertex   2.432683e+01 0.000000e+00 1.423880e+01
      vertex   2.432683e+01 2.000000e+01 1.423880e+01
    endloop
  endfacet
  facet normal 4.275551e-01 0.000000e+00 9.039893e-01
    outer loop
      vertex   2.432683e+01 2.000000e+01 1.423880e+01
      vertex   2.432683e+01 0.000000e+00 1.423880e+01
      vertex   2.521397e+01 0.000000e+00 1.381921e+01
    endloop
  endfacet
  facet normal 4.275551e-01 0.000000e+00 9.039893e-01
    outer loop
      vertex   2.432683e+01 2.000000e+01 1.423880e+01
      vertex   2.521397e+01 0.000000e+00 1.381921e+01
      vertex   2.521397e+01 2.000000e+01 1.381921e+01
    endloop
  endfacet
  facet normal 5.141027e-01 0.000000e+00 8.577286e-01
    outer loop
      vertex   2.521397e+01 2.000000e+01 1.381921e+01
      vertex   2.521397e+01 0.000000e+00 1.381921e+01
      vertex   2.605570e+01 0.000000e+00 1.331470e+01
    endloop
  endfacet
  facet normal 5.141027e-01 0.000000e+00 8.577286e-01
    outer loop
      vertex   2.521397e+01 2.000000e+01 1.381921e+01
      vertex   2.605570e+01 0.000000e+00 1.331470e+01
      vertex   2.605570e+01 2.000000e+01 1.331470e+01
    endloop
  endfacet
  facet normal 5.956993e-01 0.000000e+00 8.032075e-01
    outer loop
      vertex   2.605570e+01 2.000000e+01 1.331470e+01
      vertex   2.605570e+01 0.000000e+00 1.331470e+01
      vertex   2.684393e+01 0.000000e+00 1.273010e+01
    endloop
  endfacet
  facet normal 5.956993e-01 0.000000e+00 8.032075e-01
    outer loop
      vertex   2.605570e+01 2.000000e+01 1.331470e+01
      vertex   2.684393e+01 0.000000e+00 1.273010e+01
      vertex   2.684393e+01 2.000000e+01 1.273010e+01
    endloop
  endfacet
  facet normal 6.715590e-01 0.000000e+00 7.409511e-01
    outer loop
      vertex   2.684393e+01 2.000000e+01 1.273010e+01
      vertex   2.684393e+01 0.000000e+00 1.273010e+01
      vertex   2.757107e+01 0.000000e+00 1.207107e+01
    endloop
  endfacet
  facet normal 6.715590e-01 0.000000e+00 7.409511e-01
    outer loop
      vertex   2.684393e+01 2.000000e+01 1.273010e+01
      vertex   2.757107e+01 0.000000e+00 1.207107e+01
      vertex   2.757107e+01 2.000000e+01 1.207107e+01
    endloop
  endfacet
  facet normal 7.409511e-01 0.000000e+00 6.715590e-01
    outer loop
      vertex   2.757107e+01 2.000000e+01 1.207107e+01
      vertex   2.757107e+01 0.000000e+00 1.207107e+01
      vertex   2.823010e+01 0.000000e+00 1.134393e+01
    endloop
  endfacet
  facet normal 7.409511e-01 0.000000e+00 6.715590e-01
    outer loop
      vertex   2.757107e+01 2.000000e+01 1.207107e+01
      vertex   2.823010e+01 0.000000e+00 1.134393e+01
      vertex   2.823010e+01 2.000000e+01 1.134393e+01
    endloop
  endfacet
  facet normal 8.032075e-01 0.000000e+00 5.956993e-01
    outer loop
      vertex   2.823010e+01 2.000000e+01 1.134393e+01
      vertex   2.823010e+01 0.000000e+00 1.134393e+01
      vertex   2.881470e+01 0.000000e+00 1.055570e+01
    endloop
  endfacet
  facet normal 8.032075e-01 0.000000e+00 5.956993e-01
    outer loop
      vertex   2.823010e+01 2.000000e+01 1.134393e+01
      vertex   2.881470e+01 0.000000e+00 1.055570e+01
      vertex   2.881470e+01 2.000000e+01 1.055570e+01
    endloop
  endfacet
  facet normal 8.577286e-01 0.000000e+00 5.141027e-01
    outer loop
      vertex   2.881470e+01 2.000000e+01 1.055570e+01
      vertex   2.881470e+01 0.000000e+00 1.055570e+01
      vertex   2.931921e+01 0.000000e+00 9.713967e+00
    endloop
  endfacet
  facet normal 8.577286e-01 0.000000e+00 5.141027e-01
    outer loop
      vertex   2.881470e+01 2.000000e+01 1.055570e+01
      vertex   2.931921e+01 0.000000e+00 9.713967e+00
      vertex   2.931921e+01 2.000000e+01 9.713967e+00
    endloop
  endfacet
  facet normal 9.039893e-01 0.000000e+00 4.275551e-01
    outer loop
      vertex   2.931921e+01 2.000000e+01 9.713967e+00
      vertex   2.931921e+01 0.000000e+00 9.713967e+00
      vertex   2.973880e+01 0.000000e+00 8.826834e+00
    endloop
  endfacet
  facet normal 9.039893e-01 0.000000e+00 4.275551e-01
    outer loop
      vertex   2.931921e+01 2.000000e+01 9.713967e+00
      vertex   2.973880e+01 0.000000e+00 8.826834e+00
      vertex   2.973880e+01 2.000000e+01 8.826834e+00
    endloop
  endfacet
  facet normal 9.415441e-01 0.000000e+00 3.368899e-01
    outer loop
      vertex   2.973880e+01 2.000000e+01 8.826834e+00
      vertex   2.973880e+01 0.000000e+00 8.826834e+00
      vertex   3.006940e+01 0.000000e+00 7.902847e+00
    endloop
  endfacet
  facet normal 9.415441e-01 0.000000e+00 3.368899e-01
    outer loop
      vertex   2.973880e+01 2.000000e+01 8.826834e+00
      vertex   3.006940e+01 0.000000e+00 7.902847e+00
      vertex   3.006940e+01 2.000000e+01 7.902847e+00
    endloop
  endfacet
  facet normal 9.700313e-01 0.000000e+00 2.429802e-01
    outer loop
      vertex   3.006940e+01 2.000000e+01 7.902847e+00
      vertex   3.006940e+01 0.000000e+00 7.902847e+00
      vertex   3.030785e+01 0.000000e+00 6.950903e+00
    endloop
  endfacet
  facet normal 9.700313e-01 0.000000e+00 2.429802e-01
    outer loop
      vertex   3.006940e+01 2.000000e+01 7.902847e+00
      vertex   3.030785e+01 0.000000e+00 6.950903e+00
      vertex   3.030785e+01 2.000000e+01 6.950903e+00
    endloop
  endfacet
  facet normal 9.891765e-01 0.000000e+00 1.467305e-01
    outer loop
      vertex   3.030785e+01 2.000000e+01 6.950903e+00
      vertex   3.030785e+01 0.000000e+00 6.950903e+00
      vertex   3.045185e+01 0.000000e+00 5.980171e+00
    endloop
  endfacet
  facet normal 9.891765e-01 0.000000e+00 1.467305e-01
    outer loop
      vertex   3.030785e+01 2.000000e+01 6.950903e+00
      vertex   3.045185e+01 0.000000e+00 5.980171e+00
      vertex   3.045185e+01 2.000000e+01 5.980171e+00
    endloop
  endfacet
  facet normal 9.987955e-01 0.000000e+00 4.906767e-02
    outer loop
      vertex   3.045185e+01 2.000000e+01 5.980171e+00
      vertex   3.045185e+01 0.000000e+00 5.980171e+00
      vertex   3.050000e+01 0.000000e+00 5.000000e+00
    endloop
  endfacet
  facet normal 9.987955e-01 -2.121222e-18 4.906767e-02
    outer loop
      vertex   3.045185e+01 2.000000e+01 5.980171e+00
      vertex   3.050000e+01 0.000000e+00 5.000000e+00
      vertex   3.050000e+01 2.000000e+01 5.000000e+00
    endloop
  endfacet
  facet normal 1.225074e-16 8.881784e-17 1.000000e+00
    outer loop
      vertex   -2.300000e+01 0.000000e+00 1.500000e+01
      vertex   2.050000e+01 0.000000e+00 1.500000e+01
      vertex   -2.300000e+01 2.000000e+01 1.500000e+01
    endloop
  endfacet
  facet normal 0.000000e+00 -1.776357e-16 1.000000e+00
    outer loop
      vertex   -2.300000e+01 2.000000e+01 1.500000e+01
      vertex   2.050000e+01 0.000000e+00 1.500000e+01
      vertex   2.050000e+01 2.000000e+01 1.500000e+01
    endloop
  endfacet
  facet normal -9.987955e-01 6.537127e-18 4.906767e-02
    outer loop
      vertex   -3.300000e+01 2.000000e+01 5.000000e+00
      vertex   -3.300000e+01 0.000000e+00 5.000000e+00
      vertex   -3.295185e+01 2.000000e+01 5.980171e+00
    endloop
  endfacet
  facet normal -9.987955e-01 0.000000e+00 4.906767e-02
    outer loop
      vertex   -3.295185e+01 2.000000e+01 5.980171e+00
      vertex   -3.300000e+01 0.000000e+00 5.000000e+00
      vertex   -3.295185e+01 0.000000e+00 5.980171e+00
    endloop
  endfacet
  facet normal -9.891765e-01 0.000000e+00 1.467305e-01
    outer loop
      vertex   -3.295185e+01 2.000000e+01 5.980171e+00
      vertex   -3.295185e+01 0.000000e+00 5.980171e+00
      vertex   -3.280785e+01 0.000000e+00 6.950903e+00
    endloop
  endfacet
  facet normal -9.891765e-01 0.000000e+00 1.467305e-01
    outer loop
      vertex   -3.295185e+01 2.000000e+01 5.980171e+00
      vertex   -3.280785e+01 0.000000e+00 6.950903e+00
      vertex   -3.280785e+01 2.000000e+01 6.950903e+00
    endloop
  endfacet
  facet normal -9.700313e-01 0.000000e+00 2.429802e-01
    outer loop
      vertex   -3.280785e+01 2.000000e+01 6.950903e+00
      vertex   -3.280785e+01 0.000000e+00 6.950903e+00
      vertex   -3.256940e+01 0.000000e+00 7.902847e+00
    endloop
  endfacet
  facet normal -9.700313e-01 0.000000e+00 2.429802e-01
    outer loop
      vertex   -3.280785e+01 2.000000e+01 6.950903e+00
      vertex   -3.256940e+01 0.000000e+00 7.902847e+00
      vertex   -3.256940e+01 2.000000e+01 7.902847e+00
    endloop
  endfacet
  facet normal -9.415441e-01 0.000000e+00 3.368899e-01
    outer loop
      vertex   -3.256940e+01 2.000000e+01 7.902847e+00
      vertex   -3.256940e+01 0.000000e+00 7.902847e+00
      vertex   -3.223880e+01 0.000000e+00 8.826834e+00
    endloop
  endfacet
  facet normal -9.415441e-01 0.000000e+00 3.368899e-01
    outer loop
      vertex   -3.256940e+01 2.000000e+01 7.902847e+00
      vertex   -3.223880e+01 0.000000e+00 8.826834e+00
      vertex   -3.223880e+01 2.000000e+01 8.826834e+00
    endloop
  endfacet
  facet normal -9.039893e-01 0.000000e+00 4.275551e-01
    outer loop
      vertex   -3.223880e+01 2.000000e+01 8.826834e+00
      vertex   -3.223880e+01 0.000000e+00 8.826834e+00
      vertex   -3.181921e+01 0.000000e+00 9.713967e+00
    endloop
  endfacet
  facet normal -9.039893e-01 0.000000e+00 4.275551e-01
    outer loop
      vertex   -3.223880e+01 2.000000e+01 8.826834e+00
      vertex   -3.181921e+01 0.000000e+00 9.713967e+00
      vertex   -3.181921e+01 2.000000e+01 9.713967e+00
    endloop
  endfacet
  facet normal -8.577286e-01 0.000000e+00 5.141027e-01
    outer loop
      vertex   -3.181921e+01 2.000000e+01 9.713967e+00
      vertex   -3.181921e+01 0.000000e+00 9.713967e+00
      vertex   -3.131470e+01 0.000000e+00 1.055570e+01
    endloop
  endfacet
  facet normal -8.577286e-01 0.000000e+00 5.141027e-01
    outer loop
      vertex   -3.181921e+01 2.000000e+01 9.713967e+00
      vertex   -3.131470e+01 0.000000e+00 1.055570e+01
      vertex   -3.131470e+01 2.000000e+01 1.055570e+01
    endloop
  endfacet
  facet normal -8.032075e-01 0.000000e+00 5.956993e-01
    outer loop
      vertex   -3.131470e+01 2.000000e+01 1.055570e+01
      vertex   -3.131470e+01 0.000000e+00 1.055570e+01
      vertex   -3.073010e+01 0.000000e+00 1.134393e+01
    endloop
  endfacet
  facet normal -8.032075e-01 0.000000e+00 5.956993e-01
    outer loop
      vertex   -3.131470e+01 2.000000e+01 1.055570e+01
      vertex   -3.073010e+01 0.000000e+00 1.134393e+01
      vertex   -3.073010e+01 2.000000e+01 1.134393e+01
    endloop
  endfacet
  facet normal -7.409511e-01 0.000000e+00 6.715590e-01
    outer loop
      vertex   -3.073010e+01 2.000000e+01 1.134393e+01
      vertex   -3.073010e+01 0.000000e+00 1.134393e+01
      vertex   -3.007107e+01 0.000000e+00 1.207107e+01
    endloop
  endfacet
  facet normal -7.409511e-01 0.000000e+00 6.715590e-01
    outer loop
      vertex   -3.073010e+01 2.000000e+01 1.134393e+01
      vertex   -3.007107e+01 0.000000e+00 1.207107e+01
      vertex   -3.007107e+01 2.000000e+01 1.207107e+01
    endloop
  endfacet
  facet normal -6.715590e-01 0.000000e+00 7.409511e-01
    outer loop
      vertex   -3.007107e+01 2.000000e+01 1.207107e+01
      vertex   -3.007107e+01 0.000000e+00 1.207107e+01
      vertex   -2.934393e+01 0.000000e+00 1.273010e+01
    endloop
  endfacet
  facet normal -6.715590e-01 0.000000e+00 7.409511e-01
    outer loop
      vertex   -3.007107e+01 2.000000e+01 1.207107e+01
      vertex   -2.934393e+01 0.000000e+00 1.273010e+01
      vertex   -2.934393e+01 2.000000e+01 1.273010e+01
    endloop
  endfacet
  facet normal -5.956993e-01 0.000000e+00 8.032075e-01
    outer loop
      vertex   -2.934393e+01 2.000000e+01 1.273010e+01
      vertex   -2.934393e+01 0.000000e+00 1.273010e+01
      vertex   -2.855570e+01 0.000000e+00 1.331470e+01
    endloop
  endfacet
  facet normal -5.956993e-01 0.000000e+00 8.032075e-01
    outer loop
      vertex   -2.934393e+01 2.000000e+01 1.273010e+01
      vertex   -2.855570e+01 0.000000e+00 1.331470e+01
      vertex   -2.855570e+01 2.000000e+01 1.331470e+01
    endloop
  endfacet
  facet normal -5.141027e-01 0.000000e+00 8.577286e-01
    outer loop
      vertex   -2.855570e+01 2.000000e+01 1.331470e+01
      vertex   -2.855570e+01 0.000000e+00 1.331470e+01
      vertex   -2.771397e+01 0.000000e+00 1.381921e+01
    endloop
  endfacet
  facet normal -5.141027e-01 0.000000e+00 8.577286e-01
    outer loop
      vertex   -2.855570e+01 2.000000e+01 1.331470e+01
      vertex   -2.771397e+01 0.000000e+00 1.381921e+01
      vertex   -2.771397e+01 2.000000e+01 1.381921e+01
    endloop
  endfacet
  facet normal -4.275551e-01 0.000000e+00 9.039893e-01
    outer loop
      vertex   -2.771397e+01 2.000000e+01 1.381921e+01
      vertex   -2.771397e+01 0.000000e+00 1.381921e+01
      vertex   -2.682683e+01 0.000000e+00 1.423880e+01
    endloop
  endfacet
  facet normal -4.275551e-01 0.000000e+00 9.039893e-01
    outer loop
      vertex   -2.771397e+01 2.000000e+01 1.381921e+01
      vertex   -2.682683e+01 0.000000e+00 1.423880e+01
      vertex   -2.682683e+01 2.000000e+01 1.423880e+01
    endloop
  endfacet
  facet normal -3.368899e-01 0.000000e+00 9.415441e-01
    outer loop
      vertex   -2.682683e+01 2.000000e+01 1.423880e+01
      vertex   -2.682683e+01 0.000000e+00 1.423880e+01
      vertex   -2.590285e+01 0.000000e+00 1.456940e+01
    endloop
  endfacet
  facet normal -3.368899e-01 0.000000e+00 9.415441e-01
    outer loop
      vertex   -2.682683e+01 2.000000e+01 1.423880e+01
      vertex   -2.590285e+01 0.000000e+00 1.456940e+01
      vertex   -2.590285e+01 2.000000e+01 1.456940e+01
    endloop
  endfacet
  facet normal -2.429802e-01 0.000000e+00 9.700313e-01
    outer loop
      vertex   -2.590285e+01 2.000000e+01 1.456940e+01
      vertex   -2.590285e+01 0.000000e+00 1.456940e+01
      vertex   -2.495090e+01 0.000000e+00 1.480785e+01
    endloop
  endfacet
  facet normal -2.429802e-01 0.000000e+00 9.700313e-01
    outer loop
      vertex   -2.590285e+01 2.000000e+01 1.456940e+01
      vertex   -2.495090e+01 0.000000e+00 1.480785e+01
      vertex   -2.495090e+01 2.000000e+01 1.480785e+01
    endloop
  endfacet
  facet normal -1.467305e-01 0.000000e+00 9.891765e-01
    outer loop
      vertex   -2.495090e+01 2.000000e+01 1.480785e+01
      vertex   -2.495090e+01 0.000000e+00 1.480785e+01
      vertex   -2.398017e+01 0.000000e+00 1.495185e+01
    endloop
  endfacet
  facet normal -1.467305e-01 0.000000e+00 9.891765e-01
    outer loop
      vertex   -2.495090e+01 2.000000e+01 1.480785e+01
      vertex   -2.398017e+01 0.000000e+00 1.495185e+01
      vertex   -2.398017e+01 2.000000e+01 1.495185e+01
    endloop
  endfacet
  facet normal -4.906767e-02 0.000000e+00 9.987955e-01
    outer loop
      vertex   -2.398017e+01 2.000000e+01 1.495185e+01
      vertex   -2.398017e+01 0.000000e+00 1.495185e+01
      vertex   -2.300000e+01 0.000000e+00 1.500000e+01
    endloop
  endfacet
  facet normal -4.906767e-02 9.757619e-17 9.987955e-01
    outer loop
      vertex   -2.398017e+01 2.000000e+01 1.495185e+01
      vertex   -2.300000e+01 0.000000e+00 1.500000e+01
      vertex   -2.300000e+01 2.000000e+01 1.500000e+01
    endloop
  endfacet
  facet normal -1.000000e+00 0.000000e+00 0.000000e+00
    outer loop
      vertex   -3.300000e+01 0.000000e+00 -3.000000e+01
      vertex   -3.300000e+01 0.000000e+00 5.000000e+00
      vertex   -3.300000e+01 2.000000e+01 -3.000000e+01
    endloop
  endfacet
  facet normal -1.000000e+00 0.000000e+00 0.000000e+00
    outer loop
      vertex   -3.300000e+01 2.000000e+01 -3.000000e+01
      vertex   -3.300000e+01 0.000000e+00 5.000000e+00
      vertex   -3.300000e+01 2.000000e+01 5.000000e+00
    endloop
  endfacet
  facet normal -7.133918e-02 -1.267238e-17 -9.974521e-01
    outer loop
      vertex   -2.800000e+01 2.000000e+01 -3.500000e+01
      vertex   -2.800000e+01 0.000000e+00 -3.500000e+01
      vertex   -2.871157e+01 1.000000e+01 -3.494911e+01
    endloop
  endfacet
  facet normal -7.133918e-02 -0.000000e+00 -9.974521e-01
    outer loop
      vertex   -2.871157e+01 1.000000e+01 -3.494911e+01
      vertex   -2.800000e+01 0.000000e+00 -3.500000e+01
      vertex   -2.871157e+01 0.000000e+00 -3.494911e+01
    endloop
  endfacet
  facet normal -2.125653e-01 -0.000000e+00 -9.771469e-01
    outer loop
      vertex   -2.871157e+01 1.000000e+01 -3.494911e+01
      vertex   -2.871157e+01 0.000000e+00 -3.494911e+01
      vertex   -2.940866e+01 1.000000e+01 -3.479746e+01
    endloop
  endfacet
  facet normal -2.125653e-01 -0.000000e+00 -9.771469e-01
    outer loop
      vertex   -2.940866e+01 1.000000e+01 -3.479746e+01
      vertex   -2.871157e+01 0.000000e+00 -3.494911e+01
      vertex   -2.940866e+01 0.000000e+00 -3.479746e+01
    endloop
  endfacet
  facet normal -3.494642e-01 -0.000000e+00 -9.369497e-01
    outer loop
      vertex   -2.940866e+01 1.000000e+01 -3.479746e+01
      vertex   -2.940866e+01 0.000000e+00 -3.479746e+01
      vertex   -3.007708e+01 1.000000e+01 -3.454816e+01
    endloop
  endfacet
  facet normal -3.494642e-01 -0.000000e+00 -9.369497e-01
    outer loop
      vertex   -3.007708e+01 1.000000e+01 -3.454816e+01
      vertex   -2.940866e+01 0.000000e+00 -3.479746e+01
      vertex   -3.007708e+01 0.000000e+00 -3.454816e+01
    endloop
  endfacet
  facet normal -4.792490e-01 -0.000000e+00 -8.776790e-01
    outer loop
      vertex   -3.007708e+01 1.000000e+01 -3.454816e+01
      vertex   -3.007708e+01 0.000000e+00 -3.454816e+01
      vertex   -3.070320e+01 1.000000e+01 -3.420627e+01
    endloop
  endfacet
  facet normal -4.792490e-01 -0.000000e+00 -8.776790e-01
    outer loop
      vertex   -3.070320e+01 1.000000e+01 -3.420627e+01
      vertex   -3.007708e+01 0.000000e+00 -3.454816e+01
      vertex   -3.070320e+01 0.000000e+00 -3.420627e+01
    endloop
  endfacet
  facet normal -5.992777e-01 -0.000000e+00 -8.005412e-01
    outer loop
      vertex   -3.070320e+01 1.000000e+01 -3.420627e+01
      vertex   -3.070320e+01 0.000000e+00 -3.420627e+01
      vertex   -3.127430e+01 1.000000e+01 -3.377875e+01
    endloop
  endfacet
  facet normal -5.992777e-01 5.688188e-16 -8.005412e-01
    outer loop
      vertex   -3.127430e+01 1.000000e+01 -3.377875e+01
      vertex   -3.070320e+01 0.000000e+00 -3.420627e+01
      vertex   -3.127430e+01 0.000000e+00 -3.377875e+01
    endloop
  endfacet
  facet normal -7.071068e-01 5.024296e-16 -7.071068e-01
    outer loop
      vertex   -3.127430e+01 1.000000e+01 -3.377875e+01
      vertex   -3.127430e+01 0.000000e+00 -3.377875e+01
      vertex   -3.177875e+01 1.000000e+01 -3.327430e+01
    endloop
  endfacet
  facet normal -7.071068e-01 -0.000000e+00 -7.071068e-01
    outer loop
      vertex   -3.177875e+01 1.000000e+01 -3.327430e+01
      vertex   -3.127430e+01 0.000000e+00 -3.377875e+01
      vertex   -3.177875e+01 0.000000e+00 -3.327430e+01
    endloop
  endfacet
  facet normal -8.005412e-01 -0.000000e+00 -5.992777e-01
    outer loop
      vertex   -3.177875e+01 1.000000e+01 -3.327430e+01
      vertex   -3.177875e+01 0.000000e+00 -3.327430e+01
      vertex   -3.220627e+01 1.000000e+01 -3.270320e+01
    endloop
  endfacet
  facet normal -8.005412e-01 -0.000000e+00 -5.992777e-01
    outer loop
      vertex   -3.220627e+01 1.000000e+01 -3.270320e+01
      vertex   -3.177875e+01 0.000000e+00 -3.327430e+01
      vertex   -3.220627e+01 0.000000e+00 -3.270320e+01
    endloop
  endfacet
  facet normal -8.776790e-01 -0.000000e+00 -4.792490e-01
    outer loop
      vertex   -3.220627e+01 1.000000e+01 -3.270320e+01
      vertex   -3.220627e+01 0.000000e+00 -3.270320e+01
      vertex   -3.254816e+01 1.000000e+01 -3.207708e+01
    endloop
  endfacet
  facet normal -8.776790e-01 -0.000000e+00 -4.792490e-01
    outer loop
      vertex   -3.254816e+01 1.000000e+01 -3.207708e+01
      vertex   -3.220627e+01 0.000000e+00 -3.270320e+01
      vertex   -3.254816e+01 0.000000e+00 -3.207708e+01
    endloop
  endfacet
  facet normal -9.369497e-01 -0.000000e+00 -3.494642e-01
    outer loop
      vertex   -3.254816e+01 1.000000e+01 -3.207708e+01
      vertex   -3.254816e+01 0.000000e+00 -3.207708e+01
      vertex   -3.279746e+01 1.000000e+01 -3.140866e+01
    endloop
  endfacet
  facet normal -9.369497e-01 -0.000000e+00 -3.494642e-01
    outer loop
      vertex   -3.279746e+01 1.000000e+01 -3.140866e+01
      vertex   -3.254816e+01 0.000000e+00 -3.207708e+01
      vertex   -3.279746e+01 0.000000e+00 -3.140866e+01
    endloop
  endfacet
  facet normal -9.771469e-01 -0.000000e+00 -2.125653e-01
    outer loop
      vertex   -3.279746e+01 1.000000e+01 -3.140866e+01
      vertex   -3.279746e+01 0.000000e+00 -3.140866e+01
      vertex   -3.294911e+01 1.000000e+01 -3.071157e+01
    endloop
  endfacet
  facet normal -9.771469e-01 -0.000000e+00 -2.125653e-01
    outer loop
      vertex   -3.294911e+01 1.000000e+01 -3.071157e+01
      vertex   -3.279746e+01 0.000000e+00 -3.140866e+01
      vertex   -3.294911e+01 0.000000e+00 -3.071157e+01
    endloop
  endfacet
  facet normal -9.974521e-01 -0.000000e+00 -7.133918e-02
    outer loop
      vertex   -3.294911e+01 1.000000e+01 -3.071157e+01
      vertex   -3.294911e+01 0.000000e+00 -3.071157e+01
      vertex   -3.300000e+01 0.000000e+00 -3.000000e+01
    endloop
  endfacet
  facet normal -9.974521e-01 0.000000e+00 -7.133918e-02
    outer loop
      vertex   -3.300000e+01 0.000000e+00 -3.000000e+01
      vertex   -3.300000e+01 2.000000e+01 -3.000000e+01
      vertex   -3.294911e+01 1.000000e+01 -3.071157e+01
    endloop
  endfacet
  facet normal -9.974521e-01 0.000000e+00 -7.133918e-02
    outer loop
      vertex   -3.294911e+01 1.000000e+01 -3.071157e+01
      vertex   -3.300000e+01 2.000000e+01 -3.000000e+01
      vertex   -3.294911e+01 2.000000e+01 -3.071157e+01
    endloop
  endfacet
  facet normal -9.771469e-01 0.000000e+00 -2.125653e-01
    outer loop
      vertex   -3.294911e+01 1.000000e+01 -3.071157e+01
      vertex   -3.294911e+01 2.000000e+01 -3.071157e+01
      vertex   -3.279746e+01 1.000000e+01 -3.140866e+01
    endloop
  endfacet
  facet normal -9.771469e-01 0.000000e+00 -2.125653e-01
    outer loop
      vertex   -3.279746e+01 1.000000e+01 -3.140866e+01
      vertex   -3.294911e+01 2.000000e+01 -3.071157e+01
      vertex   -3.279746e+01 2.000000e+01 -3.140866e+01
    endloop
  endfacet
  facet normal -9.369497e-01 0.000000e+00 -3.494642e-01
    outer loop
      vertex   -3.279746e+01 1.000000e+01 -3.140866e+01
      vertex   -3.279746e+01 2.000000e+01 -3.140866e+01
      vertex   -3.254816e+01 1.000000e+01 -3.207708e+01
    endloop
  endfacet
  facet normal -9.369497e-01 0.000000e+00 -3.494642e-01
    outer loop
      vertex   -3.254816e+01 1.000000e+01 -3.207708e+01
      vertex   -3.279746e+01 2.000000e+01 -3.140866e+01
      vertex   -3.254816e+01 2.000000e+01 -3.207708e+01
    endloop
  endfacet
  facet normal -8.776790e-01 0.000000e+00 -4.792490e-01
    outer loop
      vertex   -3.254816e+01 1.000000e+01 -3.207708e+01
      vertex   -3.254816e+01 2.000000e+01 -3.207708e+01
      vertex   -3.220627e+01 1.000000e+01 -3.270320e+01
    endloop
  endfacet
  facet normal -8.776790e-01 0.000000e+00 -4.792490e-01
    outer loop
      vertex   -3.220627e+01 1.000000e+01 -3.270320e+01
      vertex   -3.254816e+01 2.000000e+01 -3.207708e+01
      vertex   -3.220627e+01 2.000000e+01 -3.270320e+01
    endloop
  endfacet
  facet normal -8.005412e-01 0.000000e+00 -5.992777e-01
    outer loop
      vertex   -3.220627e+01 1.000000e+01 -3.270320e+01
      vertex   -3.220627e+01 2.000000e+01 -3.270320e+01
      vertex   -3.177875e+01 1.000000e+01 -3.327430e+01
    endloop
  endfacet
  facet normal -8.005412e-01 0.000000e+00 -5.992777e-01
    outer loop
      vertex   -3.177875e+01 1.000000e+01 -3.327430e+01
      vertex   -3.220627e+01 2.000000e+01 -3.270320e+01
      vertex   -3.177875e+01 2.000000e+01 -3.327430e+01
    endloop
  endfacet
  facet normal -7.071068e-01 0.000000e+00 -7.071068e-01
    outer loop
      vertex   -3.177875e+01 1.000000e+01 -3.327430e+01
      vertex   -3.177875e+01 2.000000e+01 -3.327430e+01
      vertex   -3.127430e+01 1.000000e+01 -3.377875e+01
    endloop
  endfacet
  facet normal -7.071068e-01 -5.024296e-16 -7.071068e-01
    outer loop
      vertex   -3.127430e+01 1.000000e+01 -3.377875e+01
      vertex   -3.177875e+01 2.000000e+01 -3.327430e+01
      vertex   -3.127430e+01 2.000000e+01 -3.377875e+01
    endloop
  endfacet
  facet normal -5.992777e-01 -5.688188e-16 -8.005412e-01
    outer loop
      vertex   -3.127430e+01 1.000000e+01 -3.377875e+01
      vertex   -3.127430e+01 2.000000e+01 -3.377875e+01
      vertex   -3.070320e+01 1.000000e+01 -3.420627e+01
    endloop
  endfacet
  facet normal -5.992777e-01 0.000000e+00 -8.005412e-01
    outer loop
      vertex   -3.070320e+01 1.000000e+01 -3.420627e+01
      vertex   -3.127430e+01 2.000000e+01 -3.377875e+01
      vertex   -3.070320e+01 2.000000e+01 -3.420627e+01
    endloop
  endfacet
  facet normal -4.792490e-01 0.000000e+00 -8.776790e-01
    outer loop
      vertex   -3.070320e+01 1.000000e+01 -3.420627e+01
      vertex   -3.070320e+01 2.000000e+01 -3.420627e+01
      vertex   -3.007708e+01 1.000000e+01 -3.454816e+01
    endloop
  endfacet
  facet normal -4.792490e-01 0.000000e+00 -8.776790e-01
    outer loop
      vertex   -3.007708e+01 1.000000e+01 -3.454816e+01
      vertex   -3.070320e+01 2.000000e+01 -3.420627e+01
      vertex   -3.007708e+01 2.000000e+01 -3.454816e+01
    endloop
  endfacet
  facet normal -3.494642e-01 0.000000e+00 -9.369497e-01
    outer loop
      vertex   -3.007708e+01 1.000000e+01 -3.454816e+01
      vertex   -3.007708e+01 2.000000e+01 -3.454816e+01
      vertex   -2.940866e+01 1.000000e+01 -3.479746e+01
    endloop
  endfacet
  facet normal -3.494642e-01 0.000000e+00 -9.369497e-01
    outer loop
      vertex   -2.940866e+01 1.000000e+01 -3.479746e+01
      vertex   -3.007708e+01 2.000000e+01 -3.454816e+01
      vertex   -2.940866e+01 2.000000e+01 -3.479746e+01
    endloop
  endfacet
  facet normal -2.125653e-01 0.000000e+00 -9.771469e-01
    outer loop
      vertex   -2.940866e+01 1.000000e+01 -3.479746e+01
      vertex   -2.940866e+01 2.000000e+01 -3.479746e+01
      vertex   -2.871157e+01 1.000000e+01 -3.494911e+01
    endloop
  endfacet
  facet normal -2.125653e-01 0.000000e+00 -9.771469e-01
    outer loop
      vertex   -2.871157e+01 1.000000e+01 -3.494911e+01
      vertex   -2.940866e+01 2.000000e+01 -3.479746e+01
      vertex   -2.871157e+01 2.000000e+01 -3.494911e+01
    endloop
  endfacet
  facet normal -7.133918e-02 0.000000e+00 -9.974521e-01
    outer loop
      vertex   -2.871157e+01 1.000000e+01 -3.494911e+01
      vertex   -2.871157e+01 2.000000e+01 -3.494911e+01
      vertex   -2.800000e+01 2.000000e+01 -3.500000e+01
    endloop
  endfacet
  facet normal 0.000000e+00 0.000000e+00 -1.000000e+00
    outer loop
      vertex   -2.300000e+01 0.000000e+00 -3.500000e+01
      vertex   -2.800000e+01 0.000000e+00 -3.500000e+01
      vertex   -2.300000e+01 2.000000e+01 -3.500000e+01
    endloop
  endfacet
  facet normal -0.000000e+00 0.000000e+00 -1.000000e+00
    outer loop
      vertex   -2.300000e+01 2.000000e+01 -3.500000e+01
      vertex   -2.800000e+01 0.000000e+00 -3.500000e+01
      vertex   -2.800000e+01 2.000000e+01 -3.500000e+01
    endloop
  endfacet
  facet normal 1.000000e+00 1.183291e-32 -8.881784e-17
    outer loop
      vertex   -2.300000e+01 0.000000e+00 5.000000e+00
      vertex   -2.300000e+01 0.000000e+00 -3.500000e+01
      vertex   -2.300000e+01 2.000000e+01 5.000000e+00
    endloop
  endfacet
  facet normal 1.000000e+00 -1.776357e-16 0.000000e+00
    outer loop
      vertex   -2.300000e+01 2.000000e+01 5.000000e+00
      vertex   -2.300000e+01 0.000000e+00 -3.500000e+01
      vertex   -2.300000e+01 2.000000e+01 -3.500000e+01
    endloop
  endfacet
  facet normal 3.266863e-16 -1.332268e-16 -1.000000e+00
    outer loop
      vertex   2.050000e+01 0.000000e+00 5.000000e+00
      vertex   -2.300000e+01 0.000000e+00 5.000000e+00
      vertex   2.050000e+01 2.000000e+01 5.000000e+00
    endloop
  endfacet
  facet normal 2.041789e-16 1.332268e-16 -1.000000e+00
    outer loop
      vertex   2.050000e+01 2.000000e+01 5.000000e+00
      vertex   -2.300000e+01 0.000000e+00 5.000000e+00
      vertex   -2.300000e+01 2.000000e+01 5.000000e+00
    endloop
  endfacet
  facet normal -1.000000e+00 0.000000e+00 -8.881784e-16
    outer loop
      vertex   2.050000e+01 0.000000e+00 -3.500000e+01
      vertex   2.050000e+01 0.000000e+00 5.000000e+00
      vertex   2.050000e+01 2.000000e+01 -3.500000e+01
    endloop
  endfacet
  facet normal -1.000000e+00 0.000000e+00 -8.881784e-16
    outer loop
      vertex   2.050000e+01 2.000000e+01 -3.500000e+01
      vertex   2.050000e+01 0.000000e+00 5.000000e+00
      vertex   2.050000e+01 2.000000e+01 5.000000e+00
    endloop
  endfacet
  facet normal 0.000000e+00 0.000000e+00 -1.000000e+00
    outer loop
      vertex   2.550000e+01 0.000000e+00 -3.500000e+01
      vertex   2.050000e+01 0.000000e+00 -3.500000e+01
      vertex   2.550000e+01 2.000000e+01 -3.500000e+01
    endloop
  endfacet
  facet normal -0.000000e+00 0.000000e+00 -1.000000e+00
    outer loop
      vertex   2.550000e+01 2.000000e+01 -3.500000e+01
      vertex   2.050000e+01 0.000000e+00 -3.500000e+01
      vertex   2.050000e+01 2.000000e+01 -3.500000e+01
    endloop
  endfacet
  facet normal 9.974521e-01 0.000000e+00 -7.133918e-02
    outer loop
      vertex   3.050000e+01 2.000000e+01 -3.000000e+01
      vertex   3.050000e+01 0.000000e+00 -3.000000e+01
      vertex   3.044911e+01 1.000000e+01 -3.071157e+01
    endloop
  endfacet
  facet normal 9.974521e-01 0.000000e+00 -7.133918e-02
    outer loop
      vertex   3.044911e+01 1.000000e+01 -3.071157e+01
      vertex   3.050000e+01 0.000000e+00 -3.000000e+01
      vertex   3.044911e+01 0.000000e+00 -3.071157e+01
    endloop
  endfacet
  facet normal 9.771469e-01 0.000000e+00 -2.125653e-01
    outer loop
      vertex   3.044911e+01 1.000000e+01 -3.071157e+01
      vertex   3.044911e+01 0.000000e+00 -3.071157e+01
      vertex   3.029746e+01 1.000000e+01 -3.140866e+01
    endloop
  endfacet
  facet normal 9.771469e-01 0.000000e+00 -2.125653e-01
    outer loop
      vertex   3.029746e+01 1.000000e+01 -3.140866e+01
      vertex   3.044911e+01 0.000000e+00 -3.071157e+01
      vertex   3.029746e+01 0.000000e+00 -3.140866e+01
    endloop
  endfacet
  facet normal 9.369497e-01 0.000000e+00 -3.494642e-01
    outer loop
      vertex   3.029746e+01 1.000000e+01 -3.140866e+01
      vertex   3.029746e+01 0.000000e+00 -3.140866e+01
      vertex   3.004816e+01 1.000000e+01 -3.207708e+01
    endloop
  endfacet
  facet normal 9.369497e-01 0.000000e+00 -3.494642e-01
    outer loop
      vertex   3.004816e+01 1.000000e+01 -3.207708e+01
      vertex   3.029746e+01 0.000000e+00 -3.140866e+01
      vertex   3.004816e+01 0.000000e+00 -3.207708e+01
    endloop
  endfacet
  facet normal 8.776790e-01 0.000000e+00 -4.792490e-01
    outer loop
      vertex   3.004816e+01 1.000000e+01 -3.207708e+01
      vertex   3.004816e+01 0.000000e+00 -3.207708e+01
      vertex   2.970627e+01 1.000000e+01 -3.270320e+01
    endloop
  endfacet
  facet normal 8.776790e-01 0.000000e+00 -4.792490e-01
    outer loop
      vertex   2.970627e+01 1.000000e+01 -3.270320e+01
      vertex   3.004816e+01 0.000000e+00 -3.207708e+01
      vertex   2.970627e+01 0.000000e+00 -3.270320e+01
    endloop
  endfacet
  facet normal 8.005412e-01 0.000000e+00 -5.992777e-01
    outer loop
      vertex   2.970627e+01 1.000000e+01 -3.270320e+01
      vertex   2.970627e+01 0.000000e+00 -3.270320e+01
      vertex   2.927875e+01 1.000000e+01 -3.327430e+01
    endloop
  endfacet
  facet normal 8.005412e-01 0.000000e+00 -5.992777e-01
    outer loop
      vertex   2.927875e+01 1.000000e+01 -3.327430e+01
      vertex   2.970627e+01 0.000000e+00 -3.270320e+01
      vertex   2.927875e+01 0.000000e+00 -3.327430e+01
    endloop
  endfacet
  facet normal 7.071068e-01 0.000000e+00 -7.071068e-01
    outer loop
      vertex   2.927875e+01 1.000000e+01 -3.327430e+01
      vertex   2.927875e+01 0.000000e+00 -3.327430e+01
      vertex   2.877430e+01 1.000000e+01 -3.377875e+01
    endloop
  endfacet
  facet normal 7.071068e-01 0.000000e+00 -7.071068e-01
    outer loop
      vertex   2.877430e+01 1.000000e+01 -3.377875e+01
      vertex   2.927875e+01 0.000000e+00 -3.327430e+01
      vertex   2.877430e+01 0.000000e+00 -3.377875e+01
    endloop
  endfacet
  facet normal 5.992777e-01 0.000000e+00 -8.005412e-01
    outer loop
      vertex   2.877430e+01 1.000000e+01 -3.377875e+01
      vertex   2.877430e+01 0.000000e+00 -3.377875e+01
      vertex   2.820320e+01 1.000000e+01 -3.420627e+01
    endloop
  endfacet
  facet normal 5.992777e-01 0.000000e+00 -8.005412e-01
    outer loop
      vertex   2.820320e+01 1.000000e+01 -3.420627e+01
      vertex   2.877430e+01 0.000000e+00 -3.377875e+01
      vertex   2.820320e+01 0.000000e+00 -3.420627e+01
    endloop
  endfacet
  facet normal 4.792490e-01 0.000000e+00 -8.776790e-01
    outer loop
      vertex   2.820320e+01 1.000000e+01 -3.420627e+01
      vertex   2.820320e+01 0.000000e+00 -3.420627e+01
      vertex   2.757708e+01 1.000000e+01 -3.454816e+01
    endloop
  endfacet
  facet normal 4.792490e-01 -6.236284e-16 -8.776790e-01
    outer loop
      vertex   2.757708e+01 1.000000e+01 -3.454816e+01
      vertex   2.820320e+01 0.000000e+00 -3.420627e+01
      vertex   2.757708e+01 0.000000e+00 -3.454816e+01
    endloop
  endfacet
  facet normal 3.494642e-01 -6.657428e-16 -9.369497e-01
    outer loop
      vertex   2.757708e+01 1.000000e+01 -3.454816e+01
      vertex   2.757708e+01 0.000000e+00 -3.454816e+01
      vertex   2.690866e+01 1.000000e+01 -3.479746e+01
    endloop
  endfacet
  facet normal 3.494642e-01 0.000000e+00 -9.369497e-01
    outer loop
      vertex   2.690866e+01 1.000000e+01 -3.479746e+01
      vertex   2.757708e+01 0.000000e+00 -3.454816e+01
      vertex   2.690866e+01 0.000000e+00 -3.479746e+01
    endloop
  endfacet
  facet normal 2.125653e-01 0.000000e+00 -9.771469e-01
    outer loop
      vertex   2.690866e+01 1.000000e+01 -3.479746e+01
      vertex   2.690866e+01 0.000000e+00 -3.479746e+01
      vertex   2.621157e+01 1.000000e+01 -3.494911e+01
    endloop
  endfacet
  facet normal 2.125653e-01 0.000000e+00 -9.771469e-01
    outer loop
      vertex   2.621157e+01 1.000000e+01 -3.494911e+01
      vertex   2.690866e+01 0.000000e+00 -3.479746e+01
      vertex   2.621157e+01 0.000000e+00 -3.494911e+01
    endloop
  endfacet
  facet normal 7.133918e-02 0.000000e+00 -9.974521e-01
    outer loop
      vertex   2.621157e+01 1.000000e+01 -3.494911e+01
      vertex   2.621157e+01 0.000000e+00 -3.494911e+01
      vertex   2.550000e+01 0.000000e+00 -3.500000e+01
    endloop
  endfacet
  facet normal 7.133918e-02 0.000000e+00 -9.974521e-01
    outer loop
      vertex   2.550000e+01 0.000000e+00 -3.500000e+01
      vertex   2.550000e+01 2.000000e+01 -3.500000e+01
      vertex   2.621157e+01 1.000000e+01 -3.494911e+01
    endloop
  endfacet
  facet normal 7.133918e-02 0.000000e+00 -9.974521e-01
    outer loop
      vertex   2.621157e+01 1.000000e+01 -3.494911e+01
      vertex   2.550000e+01 2.000000e+01 -3.500000e+01
      vertex   2.621157e+01 2.000000e+01 -3.494911e+01
    endloop
  endfacet
  facet normal 2.125653e-01 0.000000e+00 -9.771469e-01
    outer loop
      vertex   2.621157e+01 1.000000e+01 -3.494911e+01
      vertex   2.621157e+01 2.000000e+01 -3.494911e+01
      vertex   2.690866e+01 1.000000e+01 -3.479746e+01
    endloop
  endfacet
  facet normal 2.125653e-01 0.000000e+00 -9.771469e-01
    outer loop
      vertex   2.690866e+01 1.000000e+01 -3.479746e+01
      vertex   2.621157e+01 2.000000e+01 -3.494911e+01
      vertex   2.690866e+01 2.000000e+01 -3.479746e+01
    endloop
  endfacet
  facet normal 3.494642e-01 0.000000e+00 -9.369497e-01
    outer loop
      vertex   2.690866e+01 1.000000e+01 -3.479746e+01
      vertex   2.690866e+01 2.000000e+01 -3.479746e+01
      vertex   2.757708e+01 1.000000e+01 -3.454816e+01
    endloop
  endfacet
  facet normal 3.494642e-01 6.657428e-16 -9.369497e-01
    outer loop
      vertex   2.757708e+01 1.000000e+01 -3.454816e+01
      vertex   2.690866e+01 2.000000e+01 -3.479746e+01
      vertex   2.757708e+01 2.000000e+01 -3.454816e+01
    endloop
  endfacet
  facet normal 4.792490e-01 6.236284e-16 -8.776790e-01
    outer loop
      vertex   2.757708e+01 1.000000e+01 -3.454816e+01
      vertex   2.757708e+01 2.000000e+01 -3.454816e+01
      vertex   2.820320e+01 1.000000e+01 -3.420627e+01
    endloop
  endfacet
  facet normal 4.792490e-01 0.000000e+00 -8.776790e-01
    outer loop
      vertex   2.820320e+01 1.000000e+01 -3.420627e+01
      vertex   2.757708e+01 2.000000e+01 -3.454816e+01
      vertex   2.820320e+01 2.000000e+01 -3.420627e+01
    endloop
  endfacet
  facet normal 5.992777e-01 0.000000e+00 -8.005412e-01
    outer loop
      vertex   2.820320e+01 1.000000e+01 -3.420627e+01
      vertex   2.820320e+01 2.000000e+01 -3.420627e+01
      vertex   2.877430e+01 1.000000e+01 -3.377875e+01
    endloop
  endfacet
  facet normal 5.992777e-01 0.000000e+00 -8.005412e-01
    outer loop
      vertex   2.877430e+01 1.000000e+01 -3.377875e+01
      vertex   2.820320e+01 2.000000e+01 -3.420627e+01
      vertex   2.877430e+01 2.000000e+01 -3.377875e+01
    endloop
  endfacet
  facet normal 7.071068e-01 0.000000e+00 -7.071068e-01
    outer loop
      vertex   2.877430e+01 1.000000e+01 -3.377875e+01
      vertex   2.877430e+01 2.000000e+01 -3.377875e+01
      vertex   2.927875e+01 1.000000e+01 -3.327430e+01
    endloop
  endfacet
  facet normal 7.071068e-01 0.000000e+00 -7.071068e-01
    outer loop
      vertex   2.927875e+01 1.000000e+01 -3.327430e+01
      vertex   2.877430e+01 2.000000e+01 -3.377875e+01
      vertex   2.927875e+01 2.000000e+01 -3.327430e+01
    endloop
  endfacet
  facet normal 8.005412e-01 0.000000e+00 -5.992777e-01
    outer loop
      vertex   2.927875e+01 1.000000e+01 -3.327430e+01
      vertex   2.927875e+01 2.000000e+01 -3.327430e+01
      vertex   2.970627e+01 1.000000e+01 -3.270320e+01
    endloop
  endfacet
  facet normal 8.005412e-01 0.000000e+00 -5.992777e-01
    outer loop
      vertex   2.970627e+01 1.000000e+01 -3.270320e+01
      vertex   2.927875e+01 2.000000e+01 -3.327430e+01
      vertex   2.970627e+01 2.000000e+01 -3.270320e+01
    endloop
  endfacet
  facet normal 8.776790e-01 0.000000e+00 -4.792490e-01
    outer loop
      vertex   2.970627e+01 1.000000e+01 -3.270320e+01
      vertex   2.970627e+01 2.000000e+01 -3.270320e+01
      vertex   3.004816e+01 1.000000e+01 -3.207708e+01
    endloop
  endfacet
  facet normal 8.776790e-01 0.000000e+00 -4.792490e-01
    outer loop
      vertex   3.004816e+01 1.000000e+01 -3.207708e+01
      vertex   2.970627e+01 2.000000e+01 -3.270320e+01
      vertex   3.004816e+01 2.000000e+01 -3.207708e+01
    endloop
  endfacet
  facet normal 9.369497e-01 0.000000e+00 -3.494642e-01
    outer loop
      vertex   3.004816e+01 1.000000e+01 -3.207708e+01
      vertex   3.004816e+01 2.000000e+01 -3.207708e+01
      vertex   3.029746e+01 1.000000e+01 -3.140866e+01
    endloop
  endfacet
  facet normal 9.369497e-01 0.000000e+00 -3.494642e-01
    outer loop
      vertex   3.029746e+01 1.000000e+01 -3.140866e+01
      vertex   3.004816e+01 2.000000e+01 -3.207708e+01
      vertex   3.029746e+01 2.000000e+01 -3.140866e+01
    endloop
  endfacet
  facet normal 9.771469e-01 0.000000e+00 -2.125653e-01
    outer loop
      vertex   3.029746e+01 1.000000e+01 -3.140866e+01
      vertex   3.029746e+01 2.000000e+01 -3.140866e+01
      vertex   3.044911e+01 1.000000e+01 -3.071157e+01
    endloop
  endfacet
  facet normal 9.771469e-01 0.000000e+00 -2.125653e-01
    outer loop
      vertex   3.044911e+01 1.000000e+01 -3.071157e+01
      vertex   3.029746e+01 2.000000e+01 -3.140866e+01
      vertex   3.044911e+01 2.000000e+01 -3.071157e+01
    endloop
  endfacet
  facet normal 9.974521e-01 0.000000e+00 -7.133918e-02
    outer loop
      vertex   3.044911e+01 1.000000e+01 -3.071157e+01
      vertex   3.044911e+01 2.000000e+01 -3.071157e+01
      vertex   3.050000e+01 2.000000e+01 -3.000000e+01
    endloop
  endfacet
  facet normal 0.000000e+00 1.000000e+00 -0.000000e+00
    outer loop
      vertex   3.044911e+01 2.000000e+01 -3.071157e+01
      vertex   2.550000e+01 2.000000e+01 -3.500000e+01
      vertex   3.050000e+01 2.000000e+01 -3.000000e+01
    endloop
  endfacet
  facet normal 0.000000e+00 1.000000e+00 0.000000e+00
    outer loop
      vertex   3.050000e+01 2.000000e+01 -3.000000e+01
      vertex   2.550000e+01 2.000000e+01 -3.500000e+01
      vertex   2.050000e+01 2.000000e+01 -3.500000e+01
    endloop
  endfacet
  facet normal 0.000000e+00 1.000000e+00 0.000000e+00
    outer loop
      vertex   3.050000e+01 2.000000e+01 -3.000000e+01
      vertex   2.050000e+01 2.000000e+01 -3.500000e+01
      vertex   2.050000e+01 2.000000e+01 5.000000e+00
    endloop
  endfacet
  facet normal 0.000000e+00 1.000000e+00 0.000000e+00
    outer loop
      vertex   3.044911e+01 2.000000e+01 -3.071157e+01
      vertex   3.029746e+01 2.000000e+01 -3.140866e+01
      vertex   2.550000e+01 2.000000e+01 -3.500000e+01
    endloop
  endfacet
  facet normal 0.000000e+00 1.000000e+00 0.000000e+00
    outer loop
      vertex   2.550000e+01 2.000000e+01 -3.500000e+01
      vertex   3.029746e+01 2.000000e+01 -3.140866e+01
      vertex   3.004816e+01 2.000000e+01 -3.207708e+01
    endloop
  endfacet
  facet normal 0.000000e+00 1.000000e+00 0.000000e+00
    outer loop
      vertex   2.550000e+01 2.000000e+01 -3.500000e+01
      vertex   3.004816e+01 2.000000e+01 -3.207708e+01
      vertex   2.970627e+01 2.000000e+01 -3.270320e+01
    endloop
  endfacet
  facet normal 0.000000e+00 1.000000e+00 0.000000e+00
    outer loop
      vertex   2.970627e+01 2.000000e+01 -3.270320e+01
      vertex   2.927875e+01 2.000000e+01 -3.327430e+01
      vertex   2.550000e+01 2.000000e+01 -3.500000e+01
    endloop
  endfacet
  facet normal 0.000000e+00 1.000000e+00 0.000000e+00
    outer loop
      vertex   2.550000e+01 2.000000e+01 -3.500000e+01
      vertex   2.927875e+01 2.000000e+01 -3.327430e+01
      vertex   2.877430e+01 2.000000e+01 -3.377875e+01
    endloop
  endfacet
  facet normal 0.000000e+00 1.000000e+00 0.000000e+00
    outer loop
      vertex   2.550000e+01 2.000000e+01 -3.500000e+01
      vertex   2.877430e+01 2.000000e+01 -3.377875e+01
      vertex   2.820320e+01 2.000000e+01 -3.420627e+01
    endloop
  endfacet
  facet normal 0.000000e+00 1.000000e+00 0.000000e+00
    outer loop
      vertex   2.820320e+01 2.000000e+01 -3.420627e+01
      vertex   2.757708e+01 2.000000e+01 -3.454816e+01
      vertex   2.550000e+01 2.000000e+01 -3.500000e+01
    endloop
  endfacet
  facet normal 0.000000e+00 1.000000e+00 0.000000e+00
    outer loop
      vertex   2.550000e+01 2.000000e+01 -3.500000e+01
      vertex   2.757708e+01 2.000000e+01 -3.454816e+01
      vertex   2.690866e+01 2.000000e+01 -3.479746e+01
    endloop
  endfacet
  facet normal 0.000000e+00 1.000000e+00 0.000000e+00
    outer loop
      vertex   2.550000e+01 2.000000e+01 -3.500000e+01
      vertex   2.690866e+01 2.000000e+01 -3.479746e+01
      vertex   2.621157e+01 2.000000e+01 -3.494911e+01
    endloop
  endfacet
  facet normal 0.000000e+00 1.000000e+00 0.000000e+00
    outer loop
      vertex   -2.300000e+01 2.000000e+01 5.000000e+00
      vertex   2.050000e+01 2.000000e+01 1.500000e+01
      vertex   2.050000e+01 2.000000e+01 5.000000e+00
    endloop
  endfacet
  facet normal 0.000000e+00 1.000000e+00 0.000000e+00
    outer loop
      vertex   2.050000e+01 2.000000e+01 5.000000e+00
      vertex   2.050000e+01 2.000000e+01 1.500000e+01
      vertex   2.148017e+01 2.000000e+01 1.495185e+01
    endloop
  endfacet
  facet normal 0.000000e+00 1.000000e+00 0.000000e+00
    outer loop
      vertex   2.050000e+01 2.000000e+01 5.000000e+00
      vertex   2.148017e+01 2.000000e+01 1.495185e+01
      vertex   2.245090e+01 2.000000e+01 1.480785e+01
    endloop
  endfacet
  facet normal 0.000000e+00 1.000000e+00 -0.000000e+00
    outer loop
      vertex   -2.300000e+01 2.000000e+01 -3.500000e+01
      vertex   -3.300000e+01 2.000000e+01 -3.000000e+01
      vertex   -2.300000e+01 2.000000e+01 5.000000e+00
    endloop
  endfacet
  facet normal 0.000000e+00 1.000000e+00 0.000000e+00
    outer loop
      vertex   -2.300000e+01 2.000000e+01 5.000000e+00
      vertex   -3.300000e+01 2.000000e+01 -3.000000e+01
      vertex   -3.300000e+01 2.000000e+01 5.000000e+00
    endloop
  endfacet
  facet normal 0.000000e+00 1.000000e+00 0.000000e+00
    outer loop
      vertex   -2.300000e+01 2.000000e+01 5.000000e+00
      vertex   -3.300000e+01 2.000000e+01 5.000000e+00
      vertex   -3.295185e+01 2.000000e+01 5.980171e+00
    endloop
  endfacet
  facet normal 0.000000e+00 1.000000e+00 0.000000e+00
    outer loop
      vertex   -2.300000e+01 2.000000e+01 -3.500000e+01
      vertex   -2.800000e+01 2.000000e+01 -3.500000e+01
      vertex   -3.300000e+01 2.000000e+01 -3.000000e+01
    endloop
  endfacet
  facet normal 0.000000e+00 1.000000e+00 0.000000e+00
    outer loop
      vertex   -3.300000e+01 2.000000e+01 -3.000000e+01
      vertex   -2.800000e+01 2.000000e+01 -3.500000e+01
      vertex   -3.294911e+01 2.000000e+01 -3.071157e+01
    endloop
  endfacet
  facet normal 0.000000e+00 1.000000e+00 0.000000e+00
    outer loop
      vertex   -3.294911e+01 2.000000e+01 -3.071157e+01
      vertex   -2.800000e+01 2.000000e+01 -3.500000e+01
      vertex   -3.279746e+01 2.000000e+01 -3.140866e+01
    endloop
  endfacet
  facet normal 0.000000e+00 1.000000e+00 0.000000e+00
    outer loop
      vertex   -3.279746e+01 2.000000e+01 -3.140866e+01
      vertex   -2.800000e+01 2.000000e+01 -3.500000e+01
      vertex   -3.254816e+01 2.000000e+01 -3.207708e+01
    endloop
  endfacet
  facet normal 0.000000e+00 1.000000e+00 0.000000e+00
    outer loop
      vertex   -3.254816e+01 2.000000e+01 -3.207708e+01
      vertex   -2.800000e+01 2.000000e+01 -3.500000e+01
      vertex   -3.220627e+01 2.000000e+01 -3.270320e+01
    endloop
  endfacet
  facet normal 0.000000e+00 1.000000e+00 0.000000e+00
    outer loop
      vertex   -3.220627e+01 2.000000e+01 -3.270320e+01
      vertex   -2.800000e+01 2.000000e+01 -3.500000e+01
      vertex   -3.177875e+01 2.000000e+01 -3.327430e+01
    endloop
  endfacet
  facet normal 0.000000e+00 1.000000e+00 0.000000e+00
    outer loop
      vertex   -3.177875e+01 2.000000e+01 -3.327430e+01
      vertex   -2.800000e+01 2.000000e+01 -3.500000e+01
      vertex   -3.127430e+01 2.000000e+01 -3.377875e+01
    endloop
  endfacet
  facet normal 0.000000e+00 1.000000e+00 0.000000e+00
    outer loop
      vertex   -3.127430e+01 2.000000e+01 -3.377875e+01
      vertex   -2.800000e+01 2.000000e+01 -3.500000e+01
      vertex   -3.070320e+01 2.000000e+01 -3.420627e+01
    endloop
  endfacet
  facet normal 0.000000e+00 1.000000e+00 0.000000e+00
    outer loop
      vertex   -3.070320e+01 2.000000e+01 -3.420627e+01
      vertex   -2.800000e+01 2.000000e+01 -3.500000e+01
      vertex   -3.007708e+01 2.000000e+01 -3.454816e+01
    endloop
  endfacet
  facet normal 0.000000e+00 1.000000e+00 0.000000e+00
    outer loop
      vertex   -3.007708e+01 2.000000e+01 -3.454816e+01
      vertex   -2.800000e+01 2.000000e+01 -3.500000e+01
      vertex   -2.940866e+01 2.000000e+01 -3.479746e+01
    endloop
  endfacet
  facet normal 0.000000e+00 1.000000e+00 0.000000e+00
    outer loop
      vertex   -2.940866e+01 2.000000e+01 -3.479746e+01
      vertex   -2.800000e+01 2.000000e+01 -3.500000e+01
      vertex   -2.871157e+01 2.000000e+01 -3.494911e+01
    endloop
  endfacet
  facet normal -0.000000e+00 1.000000e+00 0.000000e+00
    outer loop
      vertex   -3.295185e+01 2.000000e+01 5.980171e+00
      vertex   -3.280785e+01 2.000000e+01 6.950903e+00
      vertex   -2.300000e+01 2.000000e+01 5.000000e+00
    endloop
  endfacet
  facet normal 0.000000e+00 1.000000e+00 0.000000e+00
    outer loop
      vertex   -2.300000e+01 2.000000e+01 5.000000e+00
      vertex   -3.280785e+01 2.000000e+01 6.950903e+00
      vertex   -3.256940e+01 2.000000e+01 7.902847e+00
    endloop
  endfacet
  facet normal 0.000000e+00 1.000000e+00 0.000000e+00
    outer loop
      vertex   -2.300000e+01 2.000000e+01 5.000000e+00
      vertex   -3.256940e+01 2.000000e+01 7.902847e+00
      vertex   -3.223880e+01 2.000000e+01 8.826834e+00
    endloop
  endfacet
  facet normal -0.000000e+00 1.000000e+00 0.000000e+00
    outer loop
      vertex   -3.223880e+01 2.000000e+01 8.826834e+00
      vertex   -3.181921e+01 2.000000e+01 9.713967e+00
      vertex   -2.300000e+01 2.000000e+01 5.000000e+00
    endloop
  endfacet
  facet normal 0.000000e+00 1.000000e+00 0.000000e+00
    outer loop
      vertex   -2.300000e+01 2.000000e+01 5.000000e+00
      vertex   -3.181921e+01 2.000000e+01 9.713967e+00
      vertex   -3.131470e+01 2.000000e+01 1.055570e+01
    endloop
  endfacet
  facet normal 0.000000e+00 1.000000e+00 0.000000e+00
    outer loop
      vertex   -2.300000e+01 2.000000e+01 5.000000e+00
      vertex   -3.131470e+01 2.000000e+01 1.055570e+01
      vertex   -3.073010e+01 2.000000e+01 1.134393e+01
    endloop
  endfacet
  facet normal -0.000000e+00 1.000000e+00 0.000000e+00
    outer loop
      vertex   -3.073010e+01 2.000000e+01 1.134393e+01
      vertex   -3.007107e+01 2.000000e+01 1.207107e+01
      vertex   -2.300000e+01 2.000000e+01 5.000000e+00
    endloop
  endfacet
  facet normal 0.000000e+00 1.000000e+00 0.000000e+00
    outer loop
      vertex   -2.300000e+01 2.000000e+01 5.000000e+00
      vertex   -3.007107e+01 2.000000e+01 1.207107e+01
      vertex   -2.934393e+01 2.000000e+01 1.273010e+01
    endloop
  endfacet
  facet normal 0.000000e+00 1.000000e+00 0.000000e+00
    outer loop
      vertex   -2.300000e+01 2.000000e+01 5.000000e+00
      vertex   -2.934393e+01 2.000000e+01 1.273010e+01
      vertex   -2.855570e+01 2.000000e+01 1.331470e+01
    endloop
  endfacet
  facet normal -0.000000e+00 1.000000e+00 0.000000e+00
    outer loop
      vertex   -2.855570e+01 2.000000e+01 1.331470e+01
      vertex   -2.771397e+01 2.000000e+01 1.381921e+01
      vertex   -2.300000e+01 2.000000e+01 5.000000e+00
    endloop
  endfacet
  facet normal 0.000000e+00 1.000000e+00 0.000000e+00
    outer loop
      vertex   -2.300000e+01 2.000000e+01 5.000000e+00
      vertex   -2.771397e+01 2.000000e+01 1.381921e+01
      vertex   -2.682683e+01 2.000000e+01 1.423880e+01
    endloop
  endfacet
  facet normal 0.000000e+00 1.000000e+00 0.000000e+00
    outer loop
      vertex   -2.300000e+01 2.000000e+01 5.000000e+00
      vertex   -2.682683e+01 2.000000e+01 1.423880e+01
      vertex   -2.590285e+01 2.000000e+01 1.456940e+01
    endloop
  endfacet
  facet normal -0.000000e+00 1.000000e+00 0.000000e+00
    outer loop
      vertex   -2.590285e+01 2.000000e+01 1.456940e+01
      vertex   -2.495090e+01 2.000000e+01 1.480785e+01
      vertex   -2.300000e+01 2.000000e+01 5.000000e+00
    endloop
  endfacet
  facet normal 0.000000e+00 1.000000e+00 0.000000e+00
    outer loop
      vertex   -2.300000e+01 2.000000e+01 5.000000e+00
      vertex   -2.495090e+01 2.000000e+01 1.480785e+01
      vertex   -2.398017e+01 2.000000e+01 1.495185e+01
    endloop
  endfacet
  facet normal 0.000000e+00 1.000000e+00 -0.000000e+00
    outer loop
      vertex   -2.300000e+01 2.000000e+01 5.000000e+00
      vertex   -2.398017e+01 2.000000e+01 1.495185e+01
      vertex   -2.300000e+01 2.000000e+01 1.500000e+01
    endloop
  endfacet
  facet normal -0.000000e+00 1.000000e+00 0.000000e+00
    outer loop
      vertex   -2.300000e+01 2.000000e+01 1.500000e+01
      vertex   2.050000e+01 2.000000e+01 1.500000e+01
      vertex   -2.300000e+01 2.000000e+01 5.000000e+00
    endloop
  endfacet
  facet normal 0.000000e+00 1.000000e+00 0.000000e+00
    outer loop
      vertex   2.245090e+01 2.000000e+01 1.480785e+01
      vertex   2.340285e+01 2.000000e+01 1.456940e+01
      vertex   2.050000e+01 2.000000e+01 5.000000e+00
    endloop
  endfacet
  facet normal 0.000000e+00 1.000000e+00 0.000000e+00
    outer loop
      vertex   2.050000e+01 2.000000e+01 5.000000e+00
      vertex   2.340285e+01 2.000000e+01 1.456940e+01
      vertex   2.432683e+01 2.000000e+01 1.423880e+01
    endloop
  endfacet
  facet normal 0.000000e+00 1.000000e+00 0.000000e+00
    outer loop
      vertex   2.050000e+01 2.000000e+01 5.000000e+00
      vertex   2.432683e+01 2.000000e+01 1.423880e+01
      vertex   2.521397e+01 2.000000e+01 1.381921e+01
    endloop
  endfacet
  facet normal 0.000000e+00 1.000000e+00 0.000000e+00
    outer loop
      vertex   2.521397e+01 2.000000e+01 1.381921e+01
      vertex   2.605570e+01 2.000000e+01 1.331470e+01
      vertex   2.050000e+01 2.000000e+01 5.000000e+00
    endloop
  endfacet
  facet normal 0.000000e+00 1.000000e+00 0.000000e+00
    outer loop
      vertex   2.050000e+01 2.000000e+01 5.000000e+00
      vertex   2.605570e+01 2.000000e+01 1.331470e+01
      vertex   2.684393e+01 2.000000e+01 1.273010e+01
    endloop
  endfacet
  facet normal 0.000000e+00 1.000000e+00 0.000000e+00
    outer loop
      vertex   2.050000e+01 2.000000e+01 5.000000e+00
      vertex   2.684393e+01 2.000000e+01 1.273010e+01
      vertex   2.757107e+01 2.000000e+01 1.207107e+01
    endloop
  endfacet
  facet normal 0.000000e+00 1.000000e+00 0.000000e+00
    outer loop
      vertex   2.757107e+01 2.000000e+01 1.207107e+01
      vertex   2.823010e+01 2.000000e+01 1.134393e+01
      vertex   2.050000e+01 2.000000e+01 5.000000e+00
    endloop
  endfacet
  facet normal 0.000000e+00 1.000000e+00 0.000000e+00
    outer loop
      vertex   2.050000e+01 2.000000e+01 5.000000e+00
      vertex   2.823010e+01 2.000000e+01 1.134393e+01
      vertex   2.881470e+01 2.000000e+01 1.055570e+01
    endloop
  endfacet
  facet normal 0.000000e+00 1.000000e+00 0.000000e+00
    outer loop
      vertex   2.050000e+01 2.000000e+01 5.000000e+00
      vertex   2.881470e+01 2.000000e+01 1.055570e+01
      vertex   2.931921e+01 2.000000e+01 9.713967e+00
    endloop
  endfacet
  facet normal 0.000000e+00 1.000000e+00 0.000000e+00
    outer loop
      vertex   2.931921e+01 2.000000e+01 9.713967e+00
      vertex   2.973880e+01 2.000000e+01 8.826834e+00
      vertex   2.050000e+01 2.000000e+01 5.000000e+00
    endloop
  endfacet
  facet normal 0.000000e+00 1.000000e+00 0.000000e+00
    outer loop
      vertex   2.050000e+01 2.000000e+01 5.000000e+00
      vertex   2.973880e+01 2.000000e+01 8.826834e+00
      vertex   3.006940e+01 2.000000e+01 7.902847e+00
    endloop
  endfacet
  facet normal 0.000000e+00 1.000000e+00 0.000000e+00
    outer loop
      vertex   2.050000e+01 2.000000e+01 5.000000e+00
      vertex   3.006940e+01 2.000000e+01 7.902847e+00
      vertex   3.030785e+01 2.000000e+01 6.950903e+00
    endloop
  endfacet
  facet normal 0.000000e+00 1.000000e+00 0.000000e+00
    outer loop
      vertex   3.030785e+01 2.000000e+01 6.950903e+00
      vertex   3.045185e+01 2.000000e+01 5.980171e+00
      vertex   2.050000e+01 2.000000e+01 5.000000e+00
    endloop
  endfacet
  facet normal -0.000000e+00 1.000000e+00 0.000000e+00
    outer loop
      vertex   2.050000e+01 2.000000e+01 5.000000e+00
      vertex   3.045185e+01 2.000000e+01 5.980171e+00
      vertex   3.050000e+01 2.000000e+01 5.000000e+00
    endloop
  endfacet
  facet normal 0.000000e+00 1.000000e+00 0.000000e+00
    outer loop
      vertex   2.050000e+01 2.000000e+01 5.000000e+00
      vertex   3.050000e+01 2.000000e+01 5.000000e+00
      vertex   3.050000e+01 2.000000e+01 -3.000000e+01
    endloop
  endfacet
  facet normal -0.000000e+00 -1.000000e+00 0.000000e+00
    outer loop
      vertex   2.621157e+01 0.000000e+00 -3.494911e+01
      vertex   2.690866e+01 0.000000e+00 -3.479746e+01
      vertex   2.550000e+01 0.000000e+00 -3.500000e+01
    endloop
  endfacet
  facet normal 0.000000e+00 -1.000000e+00 0.000000e+00
    outer loop
      vertex   2.550000e+01 0.000000e+00 -3.500000e+01
      vertex   2.690866e+01 0.000000e+00 -3.479746e+01
      vertex   2.757708e+01 0.000000e+00 -3.454816e+01
    endloop
  endfacet
  facet normal 0.000000e+00 -1.000000e+00 0.000000e+00
    outer loop
      vertex   2.550000e+01 0.000000e+00 -3.500000e+01
      vertex   2.757708e+01 0.000000e+00 -3.454816e+01
      vertex   2.820320e+01 0.000000e+00 -3.420627e+01
    endloop
  endfacet
  facet normal -0.000000e+00 -1.000000e+00 0.000000e+00
    outer loop
      vertex   2.820320e+01 0.000000e+00 -3.420627e+01
      vertex   2.877430e+01 0.000000e+00 -3.377875e+01
      vertex   2.550000e+01 0.000000e+00 -3.500000e+01
    endloop
  endfacet
  facet normal 0.000000e+00 -1.000000e+00 0.000000e+00
    outer loop
      vertex   2.550000e+01 0.000000e+00 -3.500000e+01
      vertex   2.877430e+01 0.000000e+00 -3.377875e+01
      vertex   2.927875e+01 0.000000e+00 -3.327430e+01
    endloop
  endfacet
  facet normal 0.000000e+00 -1.000000e+00 0.000000e+00
    outer loop
      vertex   2.550000e+01 0.000000e+00 -3.500000e+01
      vertex   2.927875e+01 0.000000e+00 -3.327430e+01
      vertex   2.970627e+01 0.000000e+00 -3.270320e+01
    endloop
  endfacet
  facet normal -0.000000e+00 -1.000000e+00 0.000000e+00
    outer loop
      vertex   2.970627e+01 0.000000e+00 -3.270320e+01
      vertex   3.004816e+01 0.000000e+00 -3.207708e+01
      vertex   2.550000e+01 0.000000e+00 -3.500000e+01
    endloop
  endfacet
  facet normal 0.000000e+00 -1.000000e+00 0.000000e+00
    outer loop
      vertex   2.550000e+01 0.000000e+00 -3.500000e+01
      vertex   3.004816e+01 0.000000e+00 -3.207708e+01
      vertex   3.029746e+01 0.000000e+00 -3.140866e+01
    endloop
  endfacet
  facet normal 0.000000e+00 -1.000000e+00 0.000000e+00
    outer loop
      vertex   2.550000e+01 0.000000e+00 -3.500000e+01
      vertex   3.029746e+01 0.000000e+00 -3.140866e+01
      vertex   3.044911e+01 0.000000e+00 -3.071157e+01
    endloop
  endfacet
  facet normal -0.000000e+00 -1.000000e+00 0.000000e+00
    outer loop
      vertex   3.044911e+01 0.000000e+00 -3.071157e+01
      vertex   3.050000e+01 0.000000e+00 -3.000000e+01
      vertex   2.550000e+01 0.000000e+00 -3.500000e+01
    endloop
  endfacet
  facet normal 0.000000e+00 -1.000000e+00 0.000000e+00
    outer loop
      vertex   2.550000e+01 0.000000e+00 -3.500000e+01
      vertex   3.050000e+01 0.000000e+00 -3.000000e+01
      vertex   2.050000e+01 0.000000e+00 -3.500000e+01
    endloop
  endfacet
  facet normal 0.000000e+00 -1.000000e+00 0.000000e+00
    outer loop
      vertex   2.050000e+01 0.000000e+00 -3.500000e+01
      vertex   3.050000e+01 0.000000e+00 -3.000000e+01
      vertex   2.050000e+01 0.000000e+00 5.000000e+00
    endloop
  endfacet
  facet normal 0.000000e+00 -1.000000e+00 0.000000e+00
    outer loop
      vertex   2.050000e+01 0.000000e+00 5.000000e+00
      vertex   3.050000e+01 0.000000e+00 -3.000000e+01
      vertex   3.050000e+01 0.000000e+00 5.000000e+00
    endloop
  endfacet
  facet normal 0.000000e+00 -1.000000e+00 0.000000e+00
    outer loop
      vertex   2.050000e+01 0.000000e+00 5.000000e+00
      vertex   3.050000e+01 0.000000e+00 5.000000e+00
      vertex   3.045185e+01 0.000000e+00 5.980171e+00
    endloop
  endfacet
  facet normal -0.000000e+00 -1.000000e+00 0.000000e+00
    outer loop
      vertex   3.045185e+01 0.000000e+00 5.980171e+00
      vertex   3.030785e+01 0.000000e+00 6.950903e+00
      vertex   2.050000e+01 0.000000e+00 5.000000e+00
    endloop
  endfacet
  facet normal 0.000000e+00 -1.000000e+00 0.000000e+00
    outer loop
      vertex   2.050000e+01 0.000000e+00 5.000000e+00
      vertex   3.030785e+01 0.000000e+00 6.950903e+00
      vertex   3.006940e+01 0.000000e+00 7.902847e+00
    endloop
  endfacet
  facet normal 0.000000e+00 -1.000000e+00 0.000000e+00
    outer loop
      vertex   2.050000e+01 0.000000e+00 5.000000e+00
      vertex   3.006940e+01 0.000000e+00 7.902847e+00
      vertex   2.973880e+01 0.000000e+00 8.826834e+00
    endloop
  endfacet
  facet normal -0.000000e+00 -1.000000e+00 0.000000e+00
    outer loop
      vertex   2.973880e+01 0.000000e+00 8.826834e+00
      vertex   2.931921e+01 0.000000e+00 9.713967e+00
      vertex   2.050000e+01 0.000000e+00 5.000000e+00
    endloop
  endfacet
  facet normal 0.000000e+00 -1.000000e+00 0.000000e+00
    outer loop
      vertex   2.050000e+01 0.000000e+00 5.000000e+00
      vertex   2.931921e+01 0.000000e+00 9.713967e+00
      vertex   2.881470e+01 0.000000e+00 1.055570e+01
    endloop
  endfacet
  facet normal 0.000000e+00 -1.000000e+00 0.000000e+00
    outer loop
      vertex   2.050000e+01 0.000000e+00 5.000000e+00
      vertex   2.881470e+01 0.000000e+00 1.055570e+01
      vertex   2.823010e+01 0.000000e+00 1.134393e+01
    endloop
  endfacet
  facet normal -0.000000e+00 -1.000000e+00 0.000000e+00
    outer loop
      vertex   2.823010e+01 0.000000e+00 1.134393e+01
      vertex   2.757107e+01 0.000000e+00 1.207107e+01
      vertex   2.050000e+01 0.000000e+00 5.000000e+00
    endloop
  endfacet
  facet normal 0.000000e+00 -1.000000e+00 0.000000e+00
    outer loop
      vertex   2.050000e+01 0.000000e+00 5.000000e+00
      vertex   2.757107e+01 0.000000e+00 1.207107e+01
      vertex   2.684393e+01 0.000000e+00 1.273010e+01
    endloop
  endfacet
  facet normal 0.000000e+00 -1.000000e+00 0.000000e+00
    outer loop
      vertex   2.050000e+01 0.000000e+00 5.000000e+00
      vertex   2.684393e+01 0.000000e+00 1.273010e+01
      vertex   2.605570e+01 0.000000e+00 1.331470e+01
    endloop
  endfacet
  facet normal -0.000000e+00 -1.000000e+00 0.000000e+00
    outer loop
      vertex   2.605570e+01 0.000000e+00 1.331470e+01
      vertex   2.521397e+01 0.000000e+00 1.381921e+01
      vertex   2.050000e+01 0.000000e+00 5.000000e+00
    endloop
  endfacet
  facet normal 0.000000e+00 -1.000000e+00 0.000000e+00
    outer loop
      vertex   2.050000e+01 0.000000e+00 5.000000e+00
      vertex   2.521397e+01 0.000000e+00 1.381921e+01
      vertex   2.432683e+01 0.000000e+00 1.423880e+01
    endloop
  endfacet
  facet normal 0.000000e+00 -1.000000e+00 0.000000e+00
    outer loop
      vertex   2.050000e+01 0.000000e+00 5.000000e+00
      vertex   2.432683e+01 0.000000e+00 1.423880e+01
      vertex   2.340285e+01 0.000000e+00 1.456940e+01
    endloop
  endfacet
  facet normal -0.000000e+00 -1.000000e+00 0.000000e+00
    outer loop
      vertex   2.340285e+01 0.000000e+00 1.456940e+01
      vertex   2.245090e+01 0.000000e+00 1.480785e+01
      vertex   2.050000e+01 0.000000e+00 5.000000e+00
    endloop
  endfacet
  facet normal 0.000000e+00 -1.000000e+00 0.000000e+00
    outer loop
      vertex   2.050000e+01 0.000000e+00 5.000000e+00
      vertex   2.245090e+01 0.000000e+00 1.480785e+01
      vertex   2.148017e+01 0.000000e+00 1.495185e+01
    endloop
  endfacet
  facet normal 0.000000e+00 -1.000000e+00 0.000000e+00
    outer loop
      vertex   2.050000e+01 0.000000e+00 5.000000e+00
      vertex   2.148017e+01 0.000000e+00 1.495185e+01
      vertex   2.050000e+01 0.000000e+00 1.500000e+01
    endloop
  endfacet
  facet normal -0.000000e+00 -1.000000e+00 0.000000e+00
    outer loop
      vertex   2.050000e+01 0.000000e+00 1.500000e+01
      vertex   -2.300000e+01 0.000000e+00 1.500000e+01
      vertex   2.050000e+01 0.000000e+00 5.000000e+00
    endloop
  endfacet
  facet normal -0.000000e+00 -1.000000e+00 0.000000e+00
    outer loop
      vertex   2.050000e+01 0.000000e+00 5.000000e+00
      vertex   -2.300000e+01 0.000000e+00 1.500000e+01
      vertex   -2.300000e+01 0.000000e+00 5.000000e+00
    endloop
  endfacet
  facet normal 0.000000e+00 -1.000000e+00 0.000000e+00
    outer loop
      vertex   -2.300000e+01 0.000000e+00 5.000000e+00
      vertex   -2.300000e+01 0.000000e+00 1.500000e+01
      vertex   -2.398017e+01 0.000000e+00 1.495185e+01
    endloop
  endfacet
  facet normal 0.000000e+00 -1.000000e+00 0.000000e+00
    outer loop
      vertex   -2.300000e+01 0.000000e+00 5.000000e+00
      vertex   -2.398017e+01 0.000000e+00 1.495185e+01
      vertex   -2.495090e+01 0.000000e+00 1.480785e+01
    endloop
  endfacet
  facet normal 0.000000e+00 -1.000000e+00 -0.000000e+00
    outer loop
      vertex   -2.495090e+01 0.000000e+00 1.480785e+01
      vertex   -2.590285e+01 0.000000e+00 1.456940e+01
      vertex   -2.300000e+01 0.000000e+00 5.000000e+00
    endloop
  endfacet
  facet normal 0.000000e+00 -1.000000e+00 0.000000e+00
    outer loop
      vertex   -2.300000e+01 0.000000e+00 5.000000e+00
      vertex   -2.590285e+01 0.000000e+00 1.456940e+01
      vertex   -2.682683e+01 0.000000e+00 1.423880e+01
    endloop
  endfacet
  facet normal 0.000000e+00 -1.000000e+00 0.000000e+00
    outer loop
      vertex   -2.300000e+01 0.000000e+00 5.000000e+00
      vertex   -2.682683e+01 0.000000e+00 1.423880e+01
      vertex   -2.771397e+01 0.000000e+00 1.381921e+01
    endloop
  endfacet
  facet normal 0.000000e+00 -1.000000e+00 -0.000000e+00
    outer loop
      vertex   -2.771397e+01 0.000000e+00 1.381921e+01
      vertex   -2.855570e+01 0.000000e+00 1.331470e+01
      vertex   -2.300000e+01 0.000000e+00 5.000000e+00
    endloop
  endfacet
  facet normal 0.000000e+00 -1.000000e+00 0.000000e+00
    outer loop
      vertex   -2.300000e+01 0.000000e+00 5.000000e+00
      vertex   -2.855570e+01 0.000000e+00 1.331470e+01
      vertex   -2.934393e+01 0.000000e+00 1.273010e+01
    endloop
  endfacet
  facet normal 0.000000e+00 -1.000000e+00 0.000000e+00
    outer loop
      vertex   -2.300000e+01 0.000000e+00 5.000000e+00
      vertex   -2.934393e+01 0.000000e+00 1.273010e+01
      vertex   -3.007107e+01 0.000000e+00 1.207107e+01
    endloop
  endfacet
  facet normal 0.000000e+00 -1.000000e+00 -0.000000e+00
    outer loop
      vertex   -3.007107e+01 0.000000e+00 1.207107e+01
      vertex   -3.073010e+01 0.000000e+00 1.134393e+01
      vertex   -2.300000e+01 0.000000e+00 5.000000e+00
    endloop
  endfacet
  facet normal 0.000000e+00 -1.000000e+00 0.000000e+00
    outer loop
      vertex   -2.300000e+01 0.000000e+00 5.000000e+00
      vertex   -3.073010e+01 0.000000e+00 1.134393e+01
      vertex   -3.131470e+01 0.000000e+00 1.055570e+01
    endloop
  endfacet
  facet normal 0.000000e+00 -1.000000e+00 0.000000e+00
    outer loop
      vertex   -2.300000e+01 0.000000e+00 5.000000e+00
      vertex   -3.131470e+01 0.000000e+00 1.055570e+01
      vertex   -3.181921e+01 0.000000e+00 9.713967e+00
    endloop
  endfacet
  facet normal 0.000000e+00 -1.000000e+00 -0.000000e+00
    outer loop
      vertex   -3.181921e+01 0.000000e+00 9.713967e+00
      vertex   -3.223880e+01 0.000000e+00 8.826834e+00
      vertex   -2.300000e+01 0.000000e+00 5.000000e+00
    endloop
  endfacet
  facet normal 0.000000e+00 -1.000000e+00 0.000000e+00
    outer loop
      vertex   -2.300000e+01 0.000000e+00 5.000000e+00
      vertex   -3.223880e+01 0.000000e+00 8.826834e+00
      vertex   -3.256940e+01 0.000000e+00 7.902847e+00
    endloop
  endfacet
  facet normal 0.000000e+00 -1.000000e+00 0.000000e+00
    outer loop
      vertex   -2.300000e+01 0.000000e+00 5.000000e+00
      vertex   -3.256940e+01 0.000000e+00 7.902847e+00
      vertex   -3.280785e+01 0.000000e+00 6.950903e+00
    endloop
  endfacet
  facet normal 0.000000e+00 -1.000000e+00 -0.000000e+00
    outer loop
      vertex   -3.280785e+01 0.000000e+00 6.950903e+00
      vertex   -3.295185e+01 0.000000e+00 5.980171e+00
      vertex   -2.300000e+01 0.000000e+00 5.000000e+00
    endloop
  endfacet
  facet normal -0.000000e+00 -1.000000e+00 0.000000e+00
    outer loop
      vertex   -2.300000e+01 0.000000e+00 5.000000e+00
      vertex   -3.295185e+01 0.000000e+00 5.980171e+00
      vertex   -3.300000e+01 0.000000e+00 5.000000e+00
    endloop
  endfacet
  facet normal 0.000000e+00 -1.000000e+00 0.000000e+00
    outer loop
      vertex   -2.300000e+01 0.000000e+00 5.000000e+00
      vertex   -3.300000e+01 0.000000e+00 5.000000e+00
      vertex   -3.300000e+01 0.000000e+00 -3.000000e+01
    endloop
  endfacet
  facet normal 0.000000e+00 -1.000000e+00 0.000000e+00
    outer loop
      vertex   -3.294911e+01 0.000000e+00 -3.071157e+01
      vertex   -2.800000e+01 0.000000e+00 -3.500000e+01
      vertex   -3.300000e+01 0.000000e+00 -3.000000e+01
    endloop
  endfacet
  facet normal 0.000000e+00 -1.000000e+00 0.000000e+00
    outer loop
      vertex   -3.300000e+01 0.000000e+00 -3.000000e+01
      vertex   -2.800000e+01 0.000000e+00 -3.500000e+01
      vertex   -2.300000e+01 0.000000e+00 -3.500000e+01
    endloop
  endfacet
  facet normal 0.000000e+00 -1.000000e+00 0.000000e+00
    outer loop
      vertex   -3.300000e+01 0.000000e+00 -3.000000e+01
      vertex   -2.300000e+01 0.000000e+00 -3.500000e+01
      vertex   -2.300000e+01 0.000000e+00 5.000000e+00
    endloop
  endfacet
  facet normal 0.000000e+00 -1.000000e+00 0.000000e+00
    outer loop
      vertex   -3.294911e+01 0.000000e+00 -3.071157e+01
      vertex   -3.279746e+01 0.000000e+00 -3.140866e+01
      vertex   -2.800000e+01 0.000000e+00 -3.500000e+01
    endloop
  endfacet
  facet normal 0.000000e+00 -1.000000e+00 0.000000e+00
    outer loop
      vertex   -2.800000e+01 0.000000e+00 -3.500000e+01
      vertex   -3.279746e+01 0.000000e+00 -3.140866e+01
      vertex   -3.254816e+01 0.000000e+00 -3.207708e+01
    endloop
  endfacet
  facet normal 0.000000e+00 -1.000000e+00 0.000000e+00
    outer loop
      vertex   -2.800000e+01 0.000000e+00 -3.500000e+01
      vertex   -3.254816e+01 0.000000e+00 -3.207708e+01
      vertex   -3.220627e+01 0.000000e+00 -3.270320e+01
    endloop
  endfacet
  facet normal 0.000000e+00 -1.000000e+00 0.000000e+00
    outer loop
      vertex   -3.220627e+01 0.000000e+00 -3.270320e+01
      vertex   -3.177875e+01 0.000000e+00 -3.327430e+01
      vertex   -2.800000e+01 0.000000e+00 -3.500000e+01
    endloop
  endfacet
  facet normal 0.000000e+00 -1.000000e+00 0.000000e+00
    outer loop
      vertex   -2.800000e+01 0.000000e+00 -3.500000e+01
      vertex   -3.177875e+01 0.000000e+00 -3.327430e+01
      vertex   -3.127430e+01 0.000000e+00 -3.377875e+01
    endloop
  endfacet
  facet normal 0.000000e+00 -1.000000e+00 0.000000e+00
    outer loop
      vertex   -2.800000e+01 0.000000e+00 -3.500000e+01
      vertex   -3.127430e+01 0.000000e+00 -3.377875e+01
      vertex   -3.070320e+01 0.000000e+00 -3.420627e+01
    endloop
  endfacet
  facet normal 0.000000e+00 -1.000000e+00 0.000000e+00
    outer loop
      vertex   -3.070320e+01 0.000000e+00 -3.420627e+01
      vertex   -3.007708e+01 0.000000e+00 -3.454816e+01
      vertex   -2.800000e+01 0.000000e+00 -3.500000e+01
    endloop
  endfacet
  facet normal 0.000000e+00 -1.000000e+00 0.000000e+00
    outer loop
      vertex   -2.800000e+01 0.000000e+00 -3.500000e+01
      vertex   -3.007708e+01 0.000000e+00 -3.454816e+01
      vertex   -2.940866e+01 0.000000e+00 -3.479746e+01
    endloop
  endfacet
  facet normal 0.000000e+00 -1.000000e+00 0.000000e+00
    outer loop
      vertex   -2.800000e+01 0.000000e+00 -3.500000e+01
      vertex   -2.940866e+01 0.000000e+00 -3.479746e+01
      vertex   -2.871157e+01 0.000000e+00 -3.494911e+01
    endloop
  endfacet
endsolid
