solid OpenSCAD_Model
  facet normal -0.984808 0 0.173648
    outer loop
      vertex -17.5442 -11.2 5
      vertex -4.08392 11.2 81.3372
      vertex -17.5442 11.2 5
    endloop
  endfacet
  facet normal -0.984808 0 0.173648
    outer loop
      vertex -4.08392 11.2 81.3372
      vertex -17.5442 -11.2 5
      vertex -4.08392 -11.2 81.3372
    endloop
  endfacet
  facet normal 0.173648 0 0.984808
    outer loop
      vertex 17.9758 11.2 77.4474
      vertex 13.0517 6.2 78.3157
      vertex 17.9758 -11.2 77.4474
    endloop
  endfacet
  facet normal 0.173648 -1.73364e-09 0.984808
    outer loop
      vertex 17.9758 11.2 77.4474
      vertex 0.840119 6.2 80.4689
      vertex 13.0517 6.2 78.3157
    endloop
  endfacet
  facet normal 0.17365 0 0.984808
    outer loop
      vertex 0.840119 6.2 80.4689
      vertex -4.08392 11.2 81.3372
      vertex 0.840119 -6.2 80.4689
    endloop
  endfacet
  facet normal 0.173648 -1.1438e-06 0.984808
    outer loop
      vertex -4.08392 11.2 81.3372
      vertex 0.840119 6.2 80.4689
      vertex 17.9758 11.2 77.4474
    endloop
  endfacet
  facet normal 0.173648 -0 0.984808
    outer loop
      vertex 13.0517 -6.2 78.3157
      vertex 17.9758 -11.2 77.4474
      vertex 13.0517 6.2 78.3157
    endloop
  endfacet
  facet normal 0.173648 1.73364e-09 0.984808
    outer loop
      vertex 0.840119 -6.2 80.4689
      vertex 17.9758 -11.2 77.4474
      vertex 13.0517 -6.2 78.3157
    endloop
  endfacet
  facet normal 0.173648 1.1438e-06 0.984808
    outer loop
      vertex 0.840119 -6.2 80.4689
      vertex -4.08392 -11.2 81.3372
      vertex 17.9758 -11.2 77.4474
    endloop
  endfacet
  facet normal 0.17365 -0 0.984808
    outer loop
      vertex -4.08392 -11.2 81.3372
      vertex 0.840119 -6.2 80.4689
      vertex -4.08392 11.2 81.3372
    endloop
  endfacet
  facet normal 0.984808 0 -0.173648
    outer loop
      vertex 17.9758 -11.2 77.4474
      vertex 5.20133 11.2 5
      vertex 17.9758 11.2 77.4474
    endloop
  endfacet
  facet normal 0.984808 0 -0.173648
    outer loop
      vertex 5.20133 11.2 5
      vertex 17.9758 -11.2 77.4474
      vertex 5.20133 -11.2 5
    endloop
  endfacet
  facet normal 0 1 -0
    outer loop
      vertex 5.20133 11.2 5
      vertex -4.08392 11.2 81.3372
      vertex 17.9758 11.2 77.4474
    endloop
  endfacet
  facet normal 0 1 0
    outer loop
      vertex -4.08392 11.2 81.3372
      vertex 5.20133 11.2 5
      vertex -17.5442 11.2 5
    endloop
  endfacet
  facet normal 0 -1 0
    outer loop
      vertex 5.20133 -11.2 5
      vertex -4.08392 -11.2 81.3372
      vertex -17.5442 -11.2 5
    endloop
  endfacet
  facet normal 0 -1 0
    outer loop
      vertex -4.08392 -11.2 81.3372
      vertex 5.20133 -11.2 5
      vertex 17.9758 -11.2 77.4474
    endloop
  endfacet
  facet normal 0.984808 0 -0.173648
    outer loop
      vertex 0.840119 -6.2 80.4689
      vertex -12.4671 6.2 5
      vertex 0.840119 6.2 80.4689
    endloop
  endfacet
  facet normal 0.984808 0 -0.173648
    outer loop
      vertex -12.4671 6.2 5
      vertex 0.840119 -6.2 80.4689
      vertex -12.4671 -6.2 5
    endloop
  endfacet
  facet normal -0.984808 0 0.173648
    outer loop
      vertex 0.1242 -6.2 5
      vertex 13.0517 6.2 78.3157
      vertex 0.1242 6.2 5
    endloop
  endfacet
  facet normal -0.984808 0 0.173648
    outer loop
      vertex 13.0517 6.2 78.3157
      vertex 0.1242 -6.2 5
      vertex 13.0517 -6.2 78.3157
    endloop
  endfacet
  facet normal 0 -1 0
    outer loop
      vertex 0.1242 6.2 5
      vertex 0.840119 6.2 80.4689
      vertex -12.4671 6.2 5
    endloop
  endfacet
  facet normal 0 -1 -0
    outer loop
      vertex 0.840119 6.2 80.4689
      vertex 0.1242 6.2 5
      vertex 13.0517 6.2 78.3157
    endloop
  endfacet
  facet normal 0 1 0
    outer loop
      vertex 0.1242 -6.2 5
      vertex 0.840119 -6.2 80.4689
      vertex 13.0517 -6.2 78.3157
    endloop
  endfacet
  facet normal 0 1 0
    outer loop
      vertex 0.840119 -6.2 80.4689
      vertex 0.1242 -6.2 5
      vertex -12.4671 -6.2 5
    endloop
  endfacet
  facet normal 0.866026 0.5 0
    outer loop
      vertex 48.2709 13.1347 5
      vertex 46.1803 16.7557 -5
      vertex 46.1803 16.7557 5
    endloop
  endfacet
  facet normal 0.866026 0.5 0
    outer loop
      vertex 46.1803 16.7557 -5
      vertex 48.2709 13.1347 5
      vertex 48.2709 13.1347 -5
    endloop
  endfacet
  facet normal 0 0 -1
    outer loop
      vertex 29.6194 -1.91342 -5
      vertex 50 -5 -5
      vertex 49.563 -9.15823 -5
    endloop
  endfacet
  facet normal 0 0 -1
    outer loop
      vertex 50 -5 -5
      vertex 30 0 -5
      vertex 50 5 -5
    endloop
  endfacet
  facet normal 0 0 -1
    outer loop
      vertex 29.6194 -1.91342 -5
      vertex 49.563 -9.15823 -5
      vertex 48.2709 -13.1347 -5
    endloop
  endfacet
  facet normal 0 0 -1
    outer loop
      vertex 29.6194 1.91342 -5
      vertex 50 5 -5
      vertex 30 0 -5
    endloop
  endfacet
  facet normal 0 0 -1
    outer loop
      vertex 28.5355 -3.53553 -5
      vertex 48.2709 -13.1347 -5
      vertex 46.1803 -16.7557 -5
    endloop
  endfacet
  facet normal -0 0 -1
    outer loop
      vertex 50 5 -5
      vertex 29.6194 1.91342 -5
      vertex 49.563 9.15823 -5
    endloop
  endfacet
  facet normal 0 0 -1
    outer loop
      vertex 28.5355 -3.53553 -5
      vertex 46.1803 -16.7557 -5
      vertex 43.3826 -19.8629 -5
    endloop
  endfacet
  facet normal -0 0 -1
    outer loop
      vertex 49.563 9.15823 -5
      vertex 29.6194 1.91342 -5
      vertex 48.2709 13.1347 -5
    endloop
  endfacet
  facet normal 0 0 -1
    outer loop
      vertex 28.5355 -3.53553 -5
      vertex 43.3826 -19.8629 -5
      vertex 40 -22.3205 -5
    endloop
  endfacet
  facet normal 0 0 -1
    outer loop
      vertex 28.5355 3.53553 -5
      vertex 48.2709 13.1347 -5
      vertex 29.6194 1.91342 -5
    endloop
  endfacet
  facet normal 0 0 -1
    outer loop
      vertex 26.9134 -4.6194 -5
      vertex 40 -22.3205 -5
      vertex 36.1803 -24.0211 -5
    endloop
  endfacet
  facet normal -0 0 -1
    outer loop
      vertex 48.2709 13.1347 -5
      vertex 28.5355 3.53553 -5
      vertex 46.1803 16.7557 -5
    endloop
  endfacet
  facet normal 0 0 -1
    outer loop
      vertex 26.9134 -4.6194 -5
      vertex 36.1803 -24.0211 -5
      vertex 32.0906 -24.8904 -5
    endloop
  endfacet
  facet normal -0 0 -1
    outer loop
      vertex 46.1803 16.7557 -5
      vertex 28.5355 3.53553 -5
      vertex 43.3826 19.8629 -5
    endloop
  endfacet
  facet normal 0 0 -1
    outer loop
      vertex 26.9134 -4.6194 -5
      vertex 32.0906 -24.8904 -5
      vertex 30 -24.8904 -5
    endloop
  endfacet
  facet normal -0 0 -1
    outer loop
      vertex 43.3826 19.8629 -5
      vertex 28.5355 3.53553 -5
      vertex 40 22.3205 -5
    endloop
  endfacet
  facet normal 0 0 -1
    outer loop
      vertex 26.9134 4.6194 -5
      vertex 40 22.3205 -5
      vertex 28.5355 3.53553 -5
    endloop
  endfacet
  facet normal -0 0 -1
    outer loop
      vertex 40 22.3205 -5
      vertex 26.9134 4.6194 -5
      vertex 36.1803 24.0211 -5
    endloop
  endfacet
  facet normal -0 0 -1
    outer loop
      vertex 36.1803 24.0211 -5
      vertex 26.9134 4.6194 -5
      vertex 32.0906 24.8904 -5
    endloop
  endfacet
  facet normal -0 0 -1
    outer loop
      vertex 32.0906 24.8904 -5
      vertex 26.9134 4.6194 -5
      vertex 30 24.8904 -5
    endloop
  endfacet
  facet normal 0 0 -1
    outer loop
      vertex 25 5 -5
      vertex 30 24.8904 -5
      vertex 26.9134 4.6194 -5
    endloop
  endfacet
  facet normal 0 0 -1
    outer loop
      vertex 23.0866 4.6194 -5
      vertex 30 24.8904 -5
      vertex 25 5 -5
    endloop
  endfacet
  facet normal 0 0 -1
    outer loop
      vertex 21.4645 3.53553 -5
      vertex 30 24.8904 -5
      vertex 23.0866 4.6194 -5
    endloop
  endfacet
  facet normal -0 0 -1
    outer loop
      vertex 30 24.8904 -5
      vertex 21.4645 3.53553 -5
      vertex 30 25 -5
    endloop
  endfacet
  facet normal 0 0 -1
    outer loop
      vertex -51.4645 3.53553 -5
      vertex 21.4645 3.53553 -5
      vertex 20.3806 1.91342 -5
    endloop
  endfacet
  facet normal 0 0 -1
    outer loop
      vertex -50 0 -5
      vertex 20.3806 1.91342 -5
      vertex 20 0 -5
    endloop
  endfacet
  facet normal 0 0 -1
    outer loop
      vertex -50.3806 1.91342 -5
      vertex 20.3806 1.91342 -5
      vertex -50 0 -5
    endloop
  endfacet
  facet normal 0 0 -1
    outer loop
      vertex -51.4645 3.53553 -5
      vertex 20.3806 1.91342 -5
      vertex -50.3806 1.91342 -5
    endloop
  endfacet
  facet normal 0 0 -1
    outer loop
      vertex 21.4645 3.53553 -5
      vertex -51.4645 3.53553 -5
      vertex 30 25 -5
    endloop
  endfacet
  facet normal 0 0 -1
    outer loop
      vertex -60 24.8904 -5
      vertex -51.4645 3.53553 -5
      vertex -53.0866 4.6194 -5
    endloop
  endfacet
  facet normal 0 0 -1
    outer loop
      vertex -60 24.8904 -5
      vertex -53.0866 4.6194 -5
      vertex -55 5 -5
    endloop
  endfacet
  facet normal 0 0 -1
    outer loop
      vertex -60 24.8904 -5
      vertex -55 5 -5
      vertex -56.9134 4.6194 -5
    endloop
  endfacet
  facet normal 0 0 -1
    outer loop
      vertex -80 5 -5
      vertex -59.6194 1.91342 -5
      vertex -60 0 -5
    endloop
  endfacet
  facet normal 0 0 -1
    outer loop
      vertex -62.0906 24.8904 -5
      vertex -58.5355 3.53553 -5
      vertex -59.6194 1.91342 -5
    endloop
  endfacet
  facet normal 0 0 -1
    outer loop
      vertex -62.0906 24.8904 -5
      vertex -56.9134 4.6194 -5
      vertex -58.5355 3.53553 -5
    endloop
  endfacet
  facet normal 0 0 -1
    outer loop
      vertex -51.4645 3.53553 -5
      vertex -60 24.8904 -5
      vertex -60 25 -5
    endloop
  endfacet
  facet normal 0 0 -1
    outer loop
      vertex -51.4645 3.53553 -5
      vertex -60 25 -5
      vertex 30 25 -5
    endloop
  endfacet
  facet normal 0 0 -1
    outer loop
      vertex 21.4645 -3.53553 -5
      vertex 30 -24.8904 -5
      vertex 30 -25 -5
    endloop
  endfacet
  facet normal 0 0 -1
    outer loop
      vertex 50 -5 -5
      vertex 29.6194 -1.91342 -5
      vertex 30 0 -5
    endloop
  endfacet
  facet normal 0 0 -1
    outer loop
      vertex 48.2709 -13.1347 -5
      vertex 28.5355 -3.53553 -5
      vertex 29.6194 -1.91342 -5
    endloop
  endfacet
  facet normal 0 0 -1
    outer loop
      vertex 40 -22.3205 -5
      vertex 26.9134 -4.6194 -5
      vertex 28.5355 -3.53553 -5
    endloop
  endfacet
  facet normal 0 0 -1
    outer loop
      vertex 30 -24.8904 -5
      vertex 25 -5 -5
      vertex 26.9134 -4.6194 -5
    endloop
  endfacet
  facet normal 0 0 -1
    outer loop
      vertex 30 -24.8904 -5
      vertex 23.0866 -4.6194 -5
      vertex 25 -5 -5
    endloop
  endfacet
  facet normal 0 0 -1
    outer loop
      vertex 30 -24.8904 -5
      vertex 21.4645 -3.53553 -5
      vertex 23.0866 -4.6194 -5
    endloop
  endfacet
  facet normal 0 0 -1
    outer loop
      vertex -51.4645 -3.53553 -5
      vertex 21.4645 -3.53553 -5
      vertex 30 -25 -5
    endloop
  endfacet
  facet normal 0 0 -1
    outer loop
      vertex 20.3806 -1.91342 -5
      vertex -50 0 -5
      vertex 20 0 -5
    endloop
  endfacet
  facet normal 0 0 -1
    outer loop
      vertex 21.4645 -3.53553 -5
      vertex -51.4645 -3.53553 -5
      vertex 20.3806 -1.91342 -5
    endloop
  endfacet
  facet normal 0 0 -1
    outer loop
      vertex 20.3806 -1.91342 -5
      vertex -50.3806 -1.91342 -5
      vertex -50 0 -5
    endloop
  endfacet
  facet normal -0 0 -1
    outer loop
      vertex 20.3806 -1.91342 -5
      vertex -51.4645 -3.53553 -5
      vertex -50.3806 -1.91342 -5
    endloop
  endfacet
  facet normal 0 0 -1
    outer loop
      vertex -60 -25 -5
      vertex -51.4645 -3.53553 -5
      vertex 30 -25 -5
    endloop
  endfacet
  facet normal 0 0 -1
    outer loop
      vertex -60 -24.8904 -5
      vertex -51.4645 -3.53553 -5
      vertex -60 -25 -5
    endloop
  endfacet
  facet normal 0 0 -1
    outer loop
      vertex -51.4645 -3.53553 -5
      vertex -60 -24.8904 -5
      vertex -53.0866 -4.6194 -5
    endloop
  endfacet
  facet normal 0 0 -1
    outer loop
      vertex -53.0866 -4.6194 -5
      vertex -60 -24.8904 -5
      vertex -55 -5 -5
    endloop
  endfacet
  facet normal -0 0 -1
    outer loop
      vertex -55 -5 -5
      vertex -60 -24.8904 -5
      vertex -56.9134 -4.6194 -5
    endloop
  endfacet
  facet normal 0 0 -1
    outer loop
      vertex -62.0906 -24.8904 -5
      vertex -56.9134 -4.6194 -5
      vertex -60 -24.8904 -5
    endloop
  endfacet
  facet normal 0 0 -1
    outer loop
      vertex -66.1803 -24.0211 -5
      vertex -56.9134 -4.6194 -5
      vertex -62.0906 -24.8904 -5
    endloop
  endfacet
  facet normal 0 0 -1
    outer loop
      vertex -70 -22.3205 -5
      vertex -56.9134 -4.6194 -5
      vertex -66.1803 -24.0211 -5
    endloop
  endfacet
  facet normal -0 0 -1
    outer loop
      vertex -56.9134 -4.6194 -5
      vertex -70 -22.3205 -5
      vertex -58.5355 -3.53553 -5
    endloop
  endfacet
  facet normal 0 0 -1
    outer loop
      vertex -73.3826 -19.8629 -5
      vertex -58.5355 -3.53553 -5
      vertex -70 -22.3205 -5
    endloop
  endfacet
  facet normal 0 0 -1
    outer loop
      vertex -80 5 -5
      vertex -60 0 -5
      vertex -80 -5 -5
    endloop
  endfacet
  facet normal 0 0 -1
    outer loop
      vertex -76.1803 -16.7557 -5
      vertex -58.5355 -3.53553 -5
      vertex -73.3826 -19.8629 -5
    endloop
  endfacet
  facet normal 0 0 -1
    outer loop
      vertex -59.6194 1.91342 -5
      vertex -80 5 -5
      vertex -79.563 9.15823 -5
    endloop
  endfacet
  facet normal 0 0 -1
    outer loop
      vertex -78.2709 -13.1347 -5
      vertex -58.5355 -3.53553 -5
      vertex -76.1803 -16.7557 -5
    endloop
  endfacet
  facet normal 0 0 -1
    outer loop
      vertex -59.6194 1.91342 -5
      vertex -70 22.3205 -5
      vertex -66.1803 24.0211 -5
    endloop
  endfacet
  facet normal -0 0 -1
    outer loop
      vertex -58.5355 -3.53553 -5
      vertex -78.2709 -13.1347 -5
      vertex -59.6194 -1.91342 -5
    endloop
  endfacet
  facet normal 0 0 -1
    outer loop
      vertex -56.9134 4.6194 -5
      vertex -62.0906 24.8904 -5
      vertex -60 24.8904 -5
    endloop
  endfacet
  facet normal 0 0 -1
    outer loop
      vertex -79.563 -9.15823 -5
      vertex -59.6194 -1.91342 -5
      vertex -78.2709 -13.1347 -5
    endloop
  endfacet
  facet normal 0 0 -1
    outer loop
      vertex -59.6194 1.91342 -5
      vertex -66.1803 24.0211 -5
      vertex -62.0906 24.8904 -5
    endloop
  endfacet
  facet normal 0 0 -1
    outer loop
      vertex -80 -5 -5
      vertex -59.6194 -1.91342 -5
      vertex -79.563 -9.15823 -5
    endloop
  endfacet
  facet normal 0 0 -1
    outer loop
      vertex -59.6194 1.91342 -5
      vertex -73.3826 19.8629 -5
      vertex -70 22.3205 -5
    endloop
  endfacet
  facet normal -0 0 -1
    outer loop
      vertex -59.6194 -1.91342 -5
      vertex -80 -5 -5
      vertex -60 0 -5
    endloop
  endfacet
  facet normal 0 0 -1
    outer loop
      vertex -59.6194 1.91342 -5
      vertex -76.1803 16.7557 -5
      vertex -73.3826 19.8629 -5
    endloop
  endfacet
  facet normal 0 0 -1
    outer loop
      vertex -59.6194 1.91342 -5
      vertex -78.2709 13.1347 -5
      vertex -76.1803 16.7557 -5
    endloop
  endfacet
  facet normal 0 0 -1
    outer loop
      vertex -59.6194 1.91342 -5
      vertex -79.563 9.15823 -5
      vertex -78.2709 13.1347 -5
    endloop
  endfacet
  facet normal 0.743145 0.669131 0
    outer loop
      vertex 46.1803 16.7557 5
      vertex 43.3826 19.8629 -5
      vertex 43.3826 19.8629 5
    endloop
  endfacet
  facet normal 0.743145 0.669131 0
    outer loop
      vertex 43.3826 19.8629 -5
      vertex 46.1803 16.7557 5
      vertex 46.1803 16.7557 -5
    endloop
  endfacet
  facet normal 0 1 -0
    outer loop
      vertex 32.0906 24.8904 -5
      vertex 30 24.8904 5
      vertex 32.0906 24.8904 5
    endloop
  endfacet
  facet normal 0 1 0
    outer loop
      vertex 30 24.8904 5
      vertex 32.0906 24.8904 -5
      vertex 30 24.8904 -5
    endloop
  endfacet
  facet normal 0.207912 0.978148 -0
    outer loop
      vertex 36.1803 24.0211 -5
      vertex 32.0906 24.8904 5
      vertex 36.1803 24.0211 5
    endloop
  endfacet
  facet normal 0.207912 0.978148 0
    outer loop
      vertex 32.0906 24.8904 5
      vertex 36.1803 24.0211 -5
      vertex 32.0906 24.8904 -5
    endloop
  endfacet
  facet normal 0.587785 0.809017 -0
    outer loop
      vertex 43.3826 19.8629 -5
      vertex 40 22.3205 5
      vertex 43.3826 19.8629 5
    endloop
  endfacet
  facet normal 0.587785 0.809017 0
    outer loop
      vertex 40 22.3205 5
      vertex 43.3826 19.8629 -5
      vertex 40 22.3205 -5
    endloop
  endfacet
  facet normal 0.406737 0.913545 -0
    outer loop
      vertex 40 22.3205 -5
      vertex 36.1803 24.0211 5
      vertex 40 22.3205 5
    endloop
  endfacet
  facet normal 0.406737 0.913545 0
    outer loop
      vertex 36.1803 24.0211 5
      vertex 40 22.3205 -5
      vertex 36.1803 24.0211 -5
    endloop
  endfacet
  facet normal 0.994522 0.104529 0
    outer loop
      vertex 50 5 5
      vertex 49.563 9.15823 -5
      vertex 49.563 9.15823 5
    endloop
  endfacet
  facet normal 0.994522 0.104529 0
    outer loop
      vertex 49.563 9.15823 -5
      vertex 50 5 5
      vertex 50 5 -5
    endloop
  endfacet
  facet normal 0.951057 0.309017 0
    outer loop
      vertex 49.563 9.15823 5
      vertex 48.2709 13.1347 -5
      vertex 48.2709 13.1347 5
    endloop
  endfacet
  facet normal 0.951057 0.309017 0
    outer loop
      vertex 48.2709 13.1347 -5
      vertex 49.563 9.15823 5
      vertex 49.563 9.15823 -5
    endloop
  endfacet
  facet normal 0 0 1
    outer loop
      vertex -70 -22.3205 5
      vertex -60 -8.66025 5
      vertex -61.6913 -7.43145 5
    endloop
  endfacet
  facet normal 0 0 1
    outer loop
      vertex -60 -8.66025 5
      vertex -62.0906 -24.8904 5
      vertex -60 -24.8904 5
    endloop
  endfacet
  facet normal 0 0 1
    outer loop
      vertex -76.1803 -16.7557 5
      vertex -61.6913 -7.43145 5
      vertex -63.0902 -5.87785 5
    endloop
  endfacet
  facet normal 0 0 1
    outer loop
      vertex -78.2709 -13.1347 5
      vertex -63.0902 -5.87785 5
      vertex -64.1355 -4.06737 5
    endloop
  endfacet
  facet normal 0 0 1
    outer loop
      vertex -80 -5 5
      vertex -64.1355 -4.06737 5
      vertex -64.7815 -2.07912 5
    endloop
  endfacet
  facet normal 0 0 1
    outer loop
      vertex -60 -8.66025 5
      vertex -66.1803 -24.0211 5
      vertex -62.0906 -24.8904 5
    endloop
  endfacet
  facet normal 0 0 1
    outer loop
      vertex -80 -5 5
      vertex -64.7815 -2.07912 5
      vertex -65 0 5
    endloop
  endfacet
  facet normal -0 0 1
    outer loop
      vertex -78.2709 13.1347 5
      vertex -63.0902 5.87785 5
      vertex -76.1803 16.7557 5
    endloop
  endfacet
  facet normal 0 0 1
    outer loop
      vertex -63.0902 5.87785 5
      vertex -78.2709 13.1347 5
      vertex -64.1355 4.06737 5
    endloop
  endfacet
  facet normal 0 0 1
    outer loop
      vertex -80 -5 5
      vertex -65 0 5
      vertex -80 5 5
    endloop
  endfacet
  facet normal -0 0 1
    outer loop
      vertex -79.563 9.15823 5
      vertex -64.1355 4.06737 5
      vertex -78.2709 13.1347 5
    endloop
  endfacet
  facet normal 0 0 1
    outer loop
      vertex -64.1355 -4.06737 5
      vertex -80 -5 5
      vertex -79.563 -9.15823 5
    endloop
  endfacet
  facet normal -0 0 1
    outer loop
      vertex -80 5 5
      vertex -64.1355 4.06737 5
      vertex -79.563 9.15823 5
    endloop
  endfacet
  facet normal 0 0 1
    outer loop
      vertex -60 -8.66025 5
      vertex -70 -22.3205 5
      vertex -66.1803 -24.0211 5
    endloop
  endfacet
  facet normal 0 0 1
    outer loop
      vertex -64.1355 4.06737 5
      vertex -80 5 5
      vertex -64.7815 2.07912 5
    endloop
  endfacet
  facet normal 0 0 1
    outer loop
      vertex -61.6913 -7.43145 5
      vertex -73.3826 -19.8629 5
      vertex -70 -22.3205 5
    endloop
  endfacet
  facet normal 0 0 1
    outer loop
      vertex -64.7815 2.07912 5
      vertex -80 5 5
      vertex -65 0 5
    endloop
  endfacet
  facet normal 0 0 1
    outer loop
      vertex -61.6913 -7.43145 5
      vertex -76.1803 -16.7557 5
      vertex -73.3826 -19.8629 5
    endloop
  endfacet
  facet normal 0 0 1
    outer loop
      vertex -63.0902 -5.87785 5
      vertex -78.2709 -13.1347 5
      vertex -76.1803 -16.7557 5
    endloop
  endfacet
  facet normal 0 0 1
    outer loop
      vertex -64.1355 -4.06737 5
      vertex -79.563 -9.15823 5
      vertex -78.2709 -13.1347 5
    endloop
  endfacet
  facet normal 0 0 1
    outer loop
      vertex 5.20133 11.2 5
      vertex 30 24.8904 5
      vertex 30 25 5
    endloop
  endfacet
  facet normal 0 0 1
    outer loop
      vertex 30 24.8904 5
      vertex 28.0902 9.51056 5
      vertex 30 8.66025 5
    endloop
  endfacet
  facet normal 0 0 1
    outer loop
      vertex 30 24.8904 5
      vertex 26.0453 9.94522 5
      vertex 28.0902 9.51056 5
    endloop
  endfacet
  facet normal 0 0 1
    outer loop
      vertex 30 24.8904 5
      vertex 23.9547 9.94522 5
      vertex 26.0453 9.94522 5
    endloop
  endfacet
  facet normal 0 0 1
    outer loop
      vertex 30 24.8904 5
      vertex 21.9098 9.51056 5
      vertex 23.9547 9.94522 5
    endloop
  endfacet
  facet normal 0 0 1
    outer loop
      vertex 30 24.8904 5
      vertex 20 8.66025 5
      vertex 21.9098 9.51056 5
    endloop
  endfacet
  facet normal 0 0 1
    outer loop
      vertex 30 24.8904 5
      vertex 5.20133 11.2 5
      vertex 20 8.66025 5
    endloop
  endfacet
  facet normal 0 0 1
    outer loop
      vertex 20 8.66025 5
      vertex 5.20133 11.2 5
      vertex 18.3087 7.43145 5
    endloop
  endfacet
  facet normal 0 0 1
    outer loop
      vertex 15.2185 2.07912 5
      vertex 5.20133 11.2 5
      vertex 15 0 5
    endloop
  endfacet
  facet normal 0 0 1
    outer loop
      vertex 15.8645 4.06737 5
      vertex 5.20133 11.2 5
      vertex 15.2185 2.07912 5
    endloop
  endfacet
  facet normal 0 0 1
    outer loop
      vertex 16.9098 5.87785 5
      vertex 5.20133 11.2 5
      vertex 15.8645 4.06737 5
    endloop
  endfacet
  facet normal 0 0 1
    outer loop
      vertex 18.3087 7.43145 5
      vertex 5.20133 11.2 5
      vertex 16.9098 5.87785 5
    endloop
  endfacet
  facet normal 0 0 1
    outer loop
      vertex 30 25 5
      vertex -17.5442 11.2 5
      vertex 5.20133 11.2 5
    endloop
  endfacet
  facet normal 0 0 1
    outer loop
      vertex -17.5442 11.2 5
      vertex -45 0 5
      vertex -17.5442 -11.2 5
    endloop
  endfacet
  facet normal 0 0 1
    outer loop
      vertex -17.5442 11.2 5
      vertex -45.2185 2.07912 5
      vertex -45 0 5
    endloop
  endfacet
  facet normal 0 0 1
    outer loop
      vertex -17.5442 11.2 5
      vertex -45.8645 4.06737 5
      vertex -45.2185 2.07912 5
    endloop
  endfacet
  facet normal -0 0 1
    outer loop
      vertex -60 25 5
      vertex -17.5442 11.2 5
      vertex 30 25 5
    endloop
  endfacet
  facet normal 0 0 1
    outer loop
      vertex -17.5442 11.2 5
      vertex -46.9098 5.87785 5
      vertex -45.8645 4.06737 5
    endloop
  endfacet
  facet normal 0 0 1
    outer loop
      vertex -17.5442 11.2 5
      vertex -48.3087 7.43145 5
      vertex -46.9098 5.87785 5
    endloop
  endfacet
  facet normal 0 -0 1
    outer loop
      vertex -50 8.66025 5
      vertex -17.5442 11.2 5
      vertex -60 25 5
    endloop
  endfacet
  facet normal 0 0 1
    outer loop
      vertex -17.5442 11.2 5
      vertex -50 8.66025 5
      vertex -48.3087 7.43145 5
    endloop
  endfacet
  facet normal -0 0 1
    outer loop
      vertex -60 24.8904 5
      vertex -50 8.66025 5
      vertex -60 25 5
    endloop
  endfacet
  facet normal 0 0 1
    outer loop
      vertex -50 8.66025 5
      vertex -60 24.8904 5
      vertex -51.9098 9.51056 5
    endloop
  endfacet
  facet normal 0 0 1
    outer loop
      vertex -51.9098 9.51056 5
      vertex -60 24.8904 5
      vertex -53.9547 9.94522 5
    endloop
  endfacet
  facet normal 0 0 1
    outer loop
      vertex -53.9547 9.94522 5
      vertex -60 24.8904 5
      vertex -56.0453 9.94522 5
    endloop
  endfacet
  facet normal 0 0 1
    outer loop
      vertex -56.0453 9.94522 5
      vertex -60 24.8904 5
      vertex -58.0902 9.51056 5
    endloop
  endfacet
  facet normal -0 0 1
    outer loop
      vertex -62.0906 24.8904 5
      vertex -58.0902 9.51056 5
      vertex -60 24.8904 5
    endloop
  endfacet
  facet normal 0 0 1
    outer loop
      vertex -58.0902 9.51056 5
      vertex -62.0906 24.8904 5
      vertex -60 8.66025 5
    endloop
  endfacet
  facet normal -0 0 1
    outer loop
      vertex -66.1803 24.0211 5
      vertex -60 8.66025 5
      vertex -62.0906 24.8904 5
    endloop
  endfacet
  facet normal -0 0 1
    outer loop
      vertex -70 22.3205 5
      vertex -60 8.66025 5
      vertex -66.1803 24.0211 5
    endloop
  endfacet
  facet normal 0 0 1
    outer loop
      vertex -60 8.66025 5
      vertex -70 22.3205 5
      vertex -61.6913 7.43145 5
    endloop
  endfacet
  facet normal -0 0 1
    outer loop
      vertex -73.3826 19.8629 5
      vertex -61.6913 7.43145 5
      vertex -70 22.3205 5
    endloop
  endfacet
  facet normal 0 0 1
    outer loop
      vertex -61.6913 7.43145 5
      vertex -76.1803 16.7557 5
      vertex -63.0902 5.87785 5
    endloop
  endfacet
  facet normal -0 0 1
    outer loop
      vertex -76.1803 16.7557 5
      vertex -61.6913 7.43145 5
      vertex -73.3826 19.8629 5
    endloop
  endfacet
  facet normal 0 0 1
    outer loop
      vertex 34.1355 4.06737 5
      vertex 50 5 5
      vertex 49.563 9.15823 5
    endloop
  endfacet
  facet normal 0 0 1
    outer loop
      vertex 50 5 5
      vertex 35 0 5
      vertex 50 -5 5
    endloop
  endfacet
  facet normal 0 0 1
    outer loop
      vertex 34.1355 4.06737 5
      vertex 49.563 9.15823 5
      vertex 48.2709 13.1347 5
    endloop
  endfacet
  facet normal -0 0 1
    outer loop
      vertex 34.7815 -2.07912 5
      vertex 50 -5 5
      vertex 35 0 5
    endloop
  endfacet
  facet normal 0 0 1
    outer loop
      vertex 33.0902 5.87785 5
      vertex 48.2709 13.1347 5
      vertex 46.1803 16.7557 5
    endloop
  endfacet
  facet normal -0 0 1
    outer loop
      vertex 34.1355 -4.06737 5
      vertex 50 -5 5
      vertex 34.7815 -2.07912 5
    endloop
  endfacet
  facet normal 0 0 1
    outer loop
      vertex 31.6913 7.43145 5
      vertex 46.1803 16.7557 5
      vertex 43.3826 19.8629 5
    endloop
  endfacet
  facet normal 0 0 1
    outer loop
      vertex 50 -5 5
      vertex 34.1355 -4.06737 5
      vertex 49.563 -9.15823 5
    endloop
  endfacet
  facet normal 0 0 1
    outer loop
      vertex 31.6913 7.43145 5
      vertex 43.3826 19.8629 5
      vertex 40 22.3205 5
    endloop
  endfacet
  facet normal 0 0 1
    outer loop
      vertex 49.563 -9.15823 5
      vertex 34.1355 -4.06737 5
      vertex 48.2709 -13.1347 5
    endloop
  endfacet
  facet normal 0 0 1
    outer loop
      vertex 30 8.66025 5
      vertex 40 22.3205 5
      vertex 36.1803 24.0211 5
    endloop
  endfacet
  facet normal -0 0 1
    outer loop
      vertex 33.0902 -5.87785 5
      vertex 48.2709 -13.1347 5
      vertex 34.1355 -4.06737 5
    endloop
  endfacet
  facet normal 0 0 1
    outer loop
      vertex 48.2709 -13.1347 5
      vertex 33.0902 -5.87785 5
      vertex 46.1803 -16.7557 5
    endloop
  endfacet
  facet normal 0 0 1
    outer loop
      vertex 50 5 5
      vertex 34.7815 2.07912 5
      vertex 35 0 5
    endloop
  endfacet
  facet normal 0 0 1
    outer loop
      vertex 50 5 5
      vertex 34.1355 4.06737 5
      vertex 34.7815 2.07912 5
    endloop
  endfacet
  facet normal 0 0 1
    outer loop
      vertex 48.2709 13.1347 5
      vertex 33.0902 5.87785 5
      vertex 34.1355 4.06737 5
    endloop
  endfacet
  facet normal 0 0 1
    outer loop
      vertex 30 8.66025 5
      vertex 36.1803 24.0211 5
      vertex 32.0906 24.8904 5
    endloop
  endfacet
  facet normal 0 0 1
    outer loop
      vertex 46.1803 16.7557 5
      vertex 31.6913 7.43145 5
      vertex 33.0902 5.87785 5
    endloop
  endfacet
  facet normal 0 0 1
    outer loop
      vertex 30 8.66025 5
      vertex 32.0906 24.8904 5
      vertex 30 24.8904 5
    endloop
  endfacet
  facet normal 0 0 1
    outer loop
      vertex 40 22.3205 5
      vertex 30 8.66025 5
      vertex 31.6913 7.43145 5
    endloop
  endfacet
  facet normal -0 0 1
    outer loop
      vertex 31.6913 -7.43145 5
      vertex 46.1803 -16.7557 5
      vertex 33.0902 -5.87785 5
    endloop
  endfacet
  facet normal 0 0 1
    outer loop
      vertex 46.1803 -16.7557 5
      vertex 31.6913 -7.43145 5
      vertex 43.3826 -19.8629 5
    endloop
  endfacet
  facet normal 0 0 1
    outer loop
      vertex 43.3826 -19.8629 5
      vertex 31.6913 -7.43145 5
      vertex 40 -22.3205 5
    endloop
  endfacet
  facet normal -0 0 1
    outer loop
      vertex 30 -8.66025 5
      vertex 40 -22.3205 5
      vertex 31.6913 -7.43145 5
    endloop
  endfacet
  facet normal 0 0 1
    outer loop
      vertex 40 -22.3205 5
      vertex 30 -8.66025 5
      vertex 36.1803 -24.0211 5
    endloop
  endfacet
  facet normal 0 0 1
    outer loop
      vertex 36.1803 -24.0211 5
      vertex 30 -8.66025 5
      vertex 32.0906 -24.8904 5
    endloop
  endfacet
  facet normal -0 0 1
    outer loop
      vertex 28.0902 -9.51056 5
      vertex 32.0906 -24.8904 5
      vertex 30 -8.66025 5
    endloop
  endfacet
  facet normal 0 0 1
    outer loop
      vertex 32.0906 -24.8904 5
      vertex 28.0902 -9.51056 5
      vertex 30 -24.8904 5
    endloop
  endfacet
  facet normal -0 0 1
    outer loop
      vertex 26.0453 -9.94522 5
      vertex 30 -24.8904 5
      vertex 28.0902 -9.51056 5
    endloop
  endfacet
  facet normal -0 0 1
    outer loop
      vertex 23.9547 -9.94522 5
      vertex 30 -24.8904 5
      vertex 26.0453 -9.94522 5
    endloop
  endfacet
  facet normal 0 0 1
    outer loop
      vertex 21.9098 -9.51056 5
      vertex 30 -24.8904 5
      vertex 23.9547 -9.94522 5
    endloop
  endfacet
  facet normal 0 0 1
    outer loop
      vertex 20 -8.66025 5
      vertex 30 -24.8904 5
      vertex 21.9098 -9.51056 5
    endloop
  endfacet
  facet normal -0 0 1
    outer loop
      vertex 5.20133 -11.2 5
      vertex 30 -24.8904 5
      vertex 20 -8.66025 5
    endloop
  endfacet
  facet normal 0 0 1
    outer loop
      vertex 5.20133 -11.2 5
      vertex 20 -8.66025 5
      vertex 18.3087 -7.43145 5
    endloop
  endfacet
  facet normal 0 0 1
    outer loop
      vertex 5.20133 -11.2 5
      vertex 18.3087 -7.43145 5
      vertex 16.9098 -5.87785 5
    endloop
  endfacet
  facet normal 0 0 1
    outer loop
      vertex 5.20133 -11.2 5
      vertex 15 0 5
      vertex 5.20133 11.2 5
    endloop
  endfacet
  facet normal 0 0 1
    outer loop
      vertex 15 0 5
      vertex 5.20133 -11.2 5
      vertex 15.2185 -2.07912 5
    endloop
  endfacet
  facet normal 0 0 1
    outer loop
      vertex 15.2185 -2.07912 5
      vertex 5.20133 -11.2 5
      vertex 15.8645 -4.06737 5
    endloop
  endfacet
  facet normal 0 0 1
    outer loop
      vertex 15.8645 -4.06737 5
      vertex 5.20133 -11.2 5
      vertex 16.9098 -5.87785 5
    endloop
  endfacet
  facet normal 0 0 1
    outer loop
      vertex 30 -24.8904 5
      vertex 5.20133 -11.2 5
      vertex 30 -25 5
    endloop
  endfacet
  facet normal -0 0 1
    outer loop
      vertex -17.5442 -11.2 5
      vertex 30 -25 5
      vertex 5.20133 -11.2 5
    endloop
  endfacet
  facet normal -0 0 1
    outer loop
      vertex -45.2185 -2.07912 5
      vertex -17.5442 -11.2 5
      vertex -45 0 5
    endloop
  endfacet
  facet normal -0 0 1
    outer loop
      vertex -45.8645 -4.06737 5
      vertex -17.5442 -11.2 5
      vertex -45.2185 -2.07912 5
    endloop
  endfacet
  facet normal -0 0 1
    outer loop
      vertex -46.9098 -5.87785 5
      vertex -17.5442 -11.2 5
      vertex -45.8645 -4.06737 5
    endloop
  endfacet
  facet normal -0 0 1
    outer loop
      vertex -48.3087 -7.43145 5
      vertex -17.5442 -11.2 5
      vertex -46.9098 -5.87785 5
    endloop
  endfacet
  facet normal -0 0 1
    outer loop
      vertex -50 -8.66025 5
      vertex -17.5442 -11.2 5
      vertex -48.3087 -7.43145 5
    endloop
  endfacet
  facet normal 0 0 1
    outer loop
      vertex -17.5442 -11.2 5
      vertex -50 -8.66025 5
      vertex -60 -25 5
    endloop
  endfacet
  facet normal 0 0 1
    outer loop
      vertex -60 -24.8904 5
      vertex -50 -8.66025 5
      vertex -51.9098 -9.51056 5
    endloop
  endfacet
  facet normal 0 0 1
    outer loop
      vertex -60 -24.8904 5
      vertex -51.9098 -9.51056 5
      vertex -53.9547 -9.94522 5
    endloop
  endfacet
  facet normal 0 0 1
    outer loop
      vertex -60 -24.8904 5
      vertex -53.9547 -9.94522 5
      vertex -56.0453 -9.94522 5
    endloop
  endfacet
  facet normal 0 0 1
    outer loop
      vertex -60 -24.8904 5
      vertex -58.0902 -9.51056 5
      vertex -60 -8.66025 5
    endloop
  endfacet
  facet normal 0 0 1
    outer loop
      vertex -60 -24.8904 5
      vertex -56.0453 -9.94522 5
      vertex -58.0902 -9.51056 5
    endloop
  endfacet
  facet normal 0 0 1
    outer loop
      vertex -50 -8.66025 5
      vertex -60 -24.8904 5
      vertex -60 -25 5
    endloop
  endfacet
  facet normal 0 0 1
    outer loop
      vertex -17.5442 -11.2 5
      vertex -60 -25 5
      vertex 30 -25 5
    endloop
  endfacet
  facet normal -0 0 1
    outer loop
      vertex -12.4671 6.2 5
      vertex 0.1242 -6.2 5
      vertex 0.1242 6.2 5
    endloop
  endfacet
  facet normal 0 0 1
    outer loop
      vertex 0.1242 -6.2 5
      vertex -12.4671 6.2 5
      vertex -12.4671 -6.2 5
    endloop
  endfacet
  facet normal 0.207912 -0.978148 0
    outer loop
      vertex 32.0906 -24.8904 -5
      vertex 36.1803 -24.0211 5
      vertex 32.0906 -24.8904 5
    endloop
  endfacet
  facet normal 0.207912 -0.978148 0
    outer loop
      vertex 36.1803 -24.0211 5
      vertex 32.0906 -24.8904 -5
      vertex 36.1803 -24.0211 -5
    endloop
  endfacet
  facet normal 0.406737 -0.913545 0
    outer loop
      vertex 36.1803 -24.0211 -5
      vertex 40 -22.3205 5
      vertex 36.1803 -24.0211 5
    endloop
  endfacet
  facet normal 0.406737 -0.913545 0
    outer loop
      vertex 40 -22.3205 5
      vertex 36.1803 -24.0211 -5
      vertex 40 -22.3205 -5
    endloop
  endfacet
  facet normal 0.951057 -0.309017 0
    outer loop
      vertex 48.2709 -13.1347 5
      vertex 49.563 -9.15823 -5
      vertex 49.563 -9.15823 5
    endloop
  endfacet
  facet normal 0.951057 -0.309017 0
    outer loop
      vertex 49.563 -9.15823 -5
      vertex 48.2709 -13.1347 5
      vertex 48.2709 -13.1347 -5
    endloop
  endfacet
  facet normal 0.994522 -0.104529 0
    outer loop
      vertex 49.563 -9.15823 5
      vertex 50 -5 -5
      vertex 50 -5 5
    endloop
  endfacet
  facet normal 0.994522 -0.104529 0
    outer loop
      vertex 50 -5 -5
      vertex 49.563 -9.15823 5
      vertex 49.563 -9.15823 -5
    endloop
  endfacet
  facet normal 0.866026 -0.5 0
    outer loop
      vertex 46.1803 -16.7557 5
      vertex 48.2709 -13.1347 -5
      vertex 48.2709 -13.1347 5
    endloop
  endfacet
  facet normal 0.866026 -0.5 0
    outer loop
      vertex 48.2709 -13.1347 -5
      vertex 46.1803 -16.7557 5
      vertex 46.1803 -16.7557 -5
    endloop
  endfacet
  facet normal 0.587785 -0.809017 0
    outer loop
      vertex 40 -22.3205 -5
      vertex 43.3826 -19.8629 5
      vertex 40 -22.3205 5
    endloop
  endfacet
  facet normal 0.587785 -0.809017 0
    outer loop
      vertex 43.3826 -19.8629 5
      vertex 40 -22.3205 -5
      vertex 43.3826 -19.8629 -5
    endloop
  endfacet
  facet normal 0 -1 0
    outer loop
      vertex 30 -24.8904 -5
      vertex 32.0906 -24.8904 5
      vertex 30 -24.8904 5
    endloop
  endfacet
  facet normal 0 -1 -0
    outer loop
      vertex 32.0906 -24.8904 5
      vertex 30 -24.8904 -5
      vertex 32.0906 -24.8904 -5
    endloop
  endfacet
  facet normal 0.743145 -0.669131 0
    outer loop
      vertex 43.3826 -19.8629 5
      vertex 46.1803 -16.7557 -5
      vertex 46.1803 -16.7557 5
    endloop
  endfacet
  facet normal 0.743145 -0.669131 0
    outer loop
      vertex 46.1803 -16.7557 -5
      vertex 43.3826 -19.8629 5
      vertex 43.3826 -19.8629 -5
    endloop
  endfacet
  facet normal -0.994522 0.104529 0
    outer loop
      vertex -80 5 -5
      vertex -79.563 9.15823 5
      vertex -79.563 9.15823 -5
    endloop
  endfacet
  facet normal -0.994522 0.104529 0
    outer loop
      vertex -79.563 9.15823 5
      vertex -80 5 -5
      vertex -80 5 5
    endloop
  endfacet
  facet normal 0 1 -0
    outer loop
      vertex -60 24.8904 -5
      vertex -62.0906 24.8904 5
      vertex -60 24.8904 5
    endloop
  endfacet
  facet normal 0 1 0
    outer loop
      vertex -62.0906 24.8904 5
      vertex -60 24.8904 -5
      vertex -62.0906 24.8904 -5
    endloop
  endfacet
  facet normal -0.743145 0.669131 0
    outer loop
      vertex -76.1803 16.7557 -5
      vertex -73.3826 19.8629 5
      vertex -73.3826 19.8629 -5
    endloop
  endfacet
  facet normal -0.743145 0.669131 0
    outer loop
      vertex -73.3826 19.8629 5
      vertex -76.1803 16.7557 -5
      vertex -76.1803 16.7557 5
    endloop
  endfacet
  facet normal -0.866026 0.499998 0
    outer loop
      vertex -78.2709 13.1347 -5
      vertex -76.1803 16.7557 5
      vertex -76.1803 16.7557 -5
    endloop
  endfacet
  facet normal -0.866026 0.499998 0
    outer loop
      vertex -76.1803 16.7557 5
      vertex -78.2709 13.1347 -5
      vertex -78.2709 13.1347 5
    endloop
  endfacet
  facet normal -0.406737 0.913545 0
    outer loop
      vertex -66.1803 24.0211 -5
      vertex -70 22.3205 5
      vertex -66.1803 24.0211 5
    endloop
  endfacet
  facet normal -0.406737 0.913545 0
    outer loop
      vertex -70 22.3205 5
      vertex -66.1803 24.0211 -5
      vertex -70 22.3205 -5
    endloop
  endfacet
  facet normal -0.951056 0.309018 0
    outer loop
      vertex -79.563 9.15823 -5
      vertex -78.2709 13.1347 5
      vertex -78.2709 13.1347 -5
    endloop
  endfacet
  facet normal -0.951056 0.309018 0
    outer loop
      vertex -78.2709 13.1347 5
      vertex -79.563 9.15823 -5
      vertex -79.563 9.15823 5
    endloop
  endfacet
  facet normal -0.587785 0.809017 0
    outer loop
      vertex -70 22.3205 -5
      vertex -73.3826 19.8629 5
      vertex -70 22.3205 5
    endloop
  endfacet
  facet normal -0.587785 0.809017 0
    outer loop
      vertex -73.3826 19.8629 5
      vertex -70 22.3205 -5
      vertex -73.3826 19.8629 -5
    endloop
  endfacet
  facet normal -0.207912 0.978148 0
    outer loop
      vertex -62.0906 24.8904 -5
      vertex -66.1803 24.0211 5
      vertex -62.0906 24.8904 5
    endloop
  endfacet
  facet normal -0.207912 0.978148 0
    outer loop
      vertex -66.1803 24.0211 5
      vertex -62.0906 24.8904 -5
      vertex -66.1803 24.0211 -5
    endloop
  endfacet
  facet normal 0 -1 0
    outer loop
      vertex -62.0906 -24.8904 -5
      vertex -60 -24.8904 5
      vertex -62.0906 -24.8904 5
    endloop
  endfacet
  facet normal 0 -1 -0
    outer loop
      vertex -60 -24.8904 5
      vertex -62.0906 -24.8904 -5
      vertex -60 -24.8904 -5
    endloop
  endfacet
  facet normal -0.866026 -0.499998 0
    outer loop
      vertex -76.1803 -16.7557 -5
      vertex -78.2709 -13.1347 5
      vertex -78.2709 -13.1347 -5
    endloop
  endfacet
  facet normal -0.866026 -0.499998 0
    outer loop
      vertex -78.2709 -13.1347 5
      vertex -76.1803 -16.7557 -5
      vertex -76.1803 -16.7557 5
    endloop
  endfacet
  facet normal -0.207912 -0.978148 0
    outer loop
      vertex -66.1803 -24.0211 -5
      vertex -62.0906 -24.8904 5
      vertex -66.1803 -24.0211 5
    endloop
  endfacet
  facet normal -0.207912 -0.978148 -0
    outer loop
      vertex -62.0906 -24.8904 5
      vertex -66.1803 -24.0211 -5
      vertex -62.0906 -24.8904 -5
    endloop
  endfacet
  facet normal -0.406737 -0.913545 0
    outer loop
      vertex -70 -22.3205 -5
      vertex -66.1803 -24.0211 5
      vertex -70 -22.3205 5
    endloop
  endfacet
  facet normal -0.406737 -0.913545 -0
    outer loop
      vertex -66.1803 -24.0211 5
      vertex -70 -22.3205 -5
      vertex -66.1803 -24.0211 -5
    endloop
  endfacet
  facet normal -0.743145 -0.669131 0
    outer loop
      vertex -73.3826 -19.8629 -5
      vertex -76.1803 -16.7557 5
      vertex -76.1803 -16.7557 -5
    endloop
  endfacet
  facet normal -0.743145 -0.669131 0
    outer loop
      vertex -76.1803 -16.7557 5
      vertex -73.3826 -19.8629 -5
      vertex -73.3826 -19.8629 5
    endloop
  endfacet
  facet normal -0.951056 -0.309018 0
    outer loop
      vertex -78.2709 -13.1347 -5
      vertex -79.563 -9.15823 5
      vertex -79.563 -9.15823 -5
    endloop
  endfacet
  facet normal -0.951056 -0.309018 0
    outer loop
      vertex -79.563 -9.15823 5
      vertex -78.2709 -13.1347 -5
      vertex -78.2709 -13.1347 5
    endloop
  endfacet
  facet normal -0.994522 -0.104529 0
    outer loop
      vertex -79.563 -9.15823 -5
      vertex -80 -5 5
      vertex -80 -5 -5
    endloop
  endfacet
  facet normal -0.994522 -0.104529 0
    outer loop
      vertex -80 -5 5
      vertex -79.563 -9.15823 -5
      vertex -79.563 -9.15823 5
    endloop
  endfacet
  facet normal -0.587785 -0.809017 0
    outer loop
      vertex -73.3826 -19.8629 -5
      vertex -70 -22.3205 5
      vertex -73.3826 -19.8629 5
    endloop
  endfacet
  facet normal -0.587785 -0.809017 -0
    outer loop
      vertex -70 -22.3205 5
      vertex -73.3826 -19.8629 -5
      vertex -70 -22.3205 -5
    endloop
  endfacet
  facet normal -1 0 0
    outer loop
      vertex -60 -25 -5
      vertex -60 -24.8904 5
      vertex -60 -24.8904 -5
    endloop
  endfacet
  facet normal -1 -0 0
    outer loop
      vertex -60 -24.8904 5
      vertex -60 -25 -5
      vertex -60 -25 5
    endloop
  endfacet
  facet normal -1 0 0
    outer loop
      vertex -60 24.8904 -5
      vertex -60 25 5
      vertex -60 25 -5
    endloop
  endfacet
  facet normal -1 -0 0
    outer loop
      vertex -60 25 5
      vertex -60 24.8904 -5
      vertex -60 24.8904 5
    endloop
  endfacet
  facet normal 1 -0 0
    outer loop
      vertex 30 -25 5
      vertex 30 -24.8904 -5
      vertex 30 -24.8904 5
    endloop
  endfacet
  facet normal 1 0 0
    outer loop
      vertex 30 -24.8904 -5
      vertex 30 -25 5
      vertex 30 -25 -5
    endloop
  endfacet
  facet normal 1 -0 0
    outer loop
      vertex 30 24.8904 5
      vertex 30 25 -5
      vertex 30 25 5
    endloop
  endfacet
  facet normal 1 0 0
    outer loop
      vertex 30 25 -5
      vertex 30 24.8904 5
      vertex 30 24.8904 -5
    endloop
  endfacet
  facet normal 0 -1 0
    outer loop
      vertex -60 -25 -5
      vertex 30 -25 5
      vertex -60 -25 5
    endloop
  endfacet
  facet normal 0 -1 -0
    outer loop
      vertex 30 -25 5
      vertex -60 -25 -5
      vertex 30 -25 -5
    endloop
  endfacet
  facet normal 0 1 -0
    outer loop
      vertex 30 25 -5
      vertex -60 25 5
      vertex 30 25 5
    endloop
  endfacet
  facet normal 0 1 0
    outer loop
      vertex -60 25 5
      vertex 30 25 -5
      vertex -60 25 -5
    endloop
  endfacet
  facet normal -1 0 0
    outer loop
      vertex -80 -5 -5
      vertex -80 5 5
      vertex -80 5 -5
    endloop
  endfacet
  facet normal -1 -0 0
    outer loop
      vertex -80 5 5
      vertex -80 -5 -5
      vertex -80 -5 5
    endloop
  endfacet
  facet normal 1 -0 0
    outer loop
      vertex 50 -5 5
      vertex 50 5 -5
      vertex 50 5 5
    endloop
  endfacet
  facet normal 1 0 0
    outer loop
      vertex 50 5 -5
      vertex 50 -5 5
      vertex 50 -5 -5
    endloop
  endfacet
  facet normal -0.980785 -0.195091 0
    outer loop
      vertex 30 0 -5
      vertex 29.6194 1.91342 0.0010004
      vertex 29.6194 1.91342 -5
    endloop
  endfacet
  facet normal -0.980785 -0.195091 0
    outer loop
      vertex 29.6194 1.91342 0.0010004
      vertex 30 0 -5
      vertex 30 0 0.0010004
    endloop
  endfacet
  facet normal 0.980785 -0.195091 0
    outer loop
      vertex 20 0 0.0010004
      vertex 20.3806 1.91342 -5
      vertex 20.3806 1.91342 0.0010004
    endloop
  endfacet
  facet normal 0.980785 -0.195091 0
    outer loop
      vertex 20.3806 1.91342 -5
      vertex 20 0 0.0010004
      vertex 20 0 -5
    endloop
  endfacet
  facet normal -0.195091 -0.980785 0
    outer loop
      vertex 25 5 -5
      vertex 26.9134 4.6194 0.0010004
      vertex 25 5 0.0010004
    endloop
  endfacet
  facet normal -0.195091 -0.980785 -0
    outer loop
      vertex 26.9134 4.6194 0.0010004
      vertex 25 5 -5
      vertex 26.9134 4.6194 -5
    endloop
  endfacet
  facet normal -0.83147 -0.55557 0
    outer loop
      vertex 29.6194 1.91342 -5
      vertex 28.5355 3.53553 0.0010004
      vertex 28.5355 3.53553 -5
    endloop
  endfacet
  facet normal -0.83147 -0.55557 0
    outer loop
      vertex 28.5355 3.53553 0.0010004
      vertex 29.6194 1.91342 -5
      vertex 29.6194 1.91342 0.0010004
    endloop
  endfacet
  facet normal -0.55557 -0.83147 0
    outer loop
      vertex 26.9134 4.6194 -5
      vertex 28.5355 3.53553 0.0010004
      vertex 26.9134 4.6194 0.0010004
    endloop
  endfacet
  facet normal -0.55557 -0.83147 -0
    outer loop
      vertex 28.5355 3.53553 0.0010004
      vertex 26.9134 4.6194 -5
      vertex 28.5355 3.53553 -5
    endloop
  endfacet
  facet normal 0.55557 -0.83147 0
    outer loop
      vertex 21.4645 3.53553 -5
      vertex 23.0866 4.6194 0.0010004
      vertex 21.4645 3.53553 0.0010004
    endloop
  endfacet
  facet normal 0.55557 -0.83147 0
    outer loop
      vertex 23.0866 4.6194 0.0010004
      vertex 21.4645 3.53553 -5
      vertex 23.0866 4.6194 -5
    endloop
  endfacet
  facet normal 0.83147 -0.55557 0
    outer loop
      vertex 20.3806 1.91342 0.0010004
      vertex 21.4645 3.53553 -5
      vertex 21.4645 3.53553 0.0010004
    endloop
  endfacet
  facet normal 0.83147 -0.55557 0
    outer loop
      vertex 21.4645 3.53553 -5
      vertex 20.3806 1.91342 0.0010004
      vertex 20.3806 1.91342 -5
    endloop
  endfacet
  facet normal 0.195091 -0.980785 0
    outer loop
      vertex 23.0866 4.6194 -5
      vertex 25 5 0.0010004
      vertex 23.0866 4.6194 0.0010004
    endloop
  endfacet
  facet normal 0.195091 -0.980785 0
    outer loop
      vertex 25 5 0.0010004
      vertex 23.0866 4.6194 -5
      vertex 25 5 -5
    endloop
  endfacet
  facet normal 0.55557 0.83147 -0
    outer loop
      vertex 23.0866 -4.6194 -5
      vertex 21.4645 -3.53553 0.0010004
      vertex 23.0866 -4.6194 0.0010004
    endloop
  endfacet
  facet normal 0.55557 0.83147 0
    outer loop
      vertex 21.4645 -3.53553 0.0010004
      vertex 23.0866 -4.6194 -5
      vertex 21.4645 -3.53553 -5
    endloop
  endfacet
  facet normal 0.980785 0.195091 0
    outer loop
      vertex 20.3806 -1.91342 0.0010004
      vertex 20 0 -5
      vertex 20 0 0.0010004
    endloop
  endfacet
  facet normal 0.980785 0.195091 0
    outer loop
      vertex 20 0 -5
      vertex 20.3806 -1.91342 0.0010004
      vertex 20.3806 -1.91342 -5
    endloop
  endfacet
  facet normal -0.980785 0.195091 0
    outer loop
      vertex 29.6194 -1.91342 -5
      vertex 30 0 0.0010004
      vertex 30 0 -5
    endloop
  endfacet
  facet normal -0.980785 0.195091 0
    outer loop
      vertex 30 0 0.0010004
      vertex 29.6194 -1.91342 -5
      vertex 29.6194 -1.91342 0.0010004
    endloop
  endfacet
  facet normal -0.55557 0.83147 0
    outer loop
      vertex 28.5355 -3.53553 -5
      vertex 26.9134 -4.6194 0.0010004
      vertex 28.5355 -3.53553 0.0010004
    endloop
  endfacet
  facet normal -0.55557 0.83147 0
    outer loop
      vertex 26.9134 -4.6194 0.0010004
      vertex 28.5355 -3.53553 -5
      vertex 26.9134 -4.6194 -5
    endloop
  endfacet
  facet normal -0.195091 0.980785 0
    outer loop
      vertex 26.9134 -4.6194 -5
      vertex 25 -5 0.0010004
      vertex 26.9134 -4.6194 0.0010004
    endloop
  endfacet
  facet normal -0.195091 0.980785 0
    outer loop
      vertex 25 -5 0.0010004
      vertex 26.9134 -4.6194 -5
      vertex 25 -5 -5
    endloop
  endfacet
  facet normal -0.83147 0.55557 0
    outer loop
      vertex 28.5355 -3.53553 -5
      vertex 29.6194 -1.91342 0.0010004
      vertex 29.6194 -1.91342 -5
    endloop
  endfacet
  facet normal -0.83147 0.55557 0
    outer loop
      vertex 29.6194 -1.91342 0.0010004
      vertex 28.5355 -3.53553 -5
      vertex 28.5355 -3.53553 0.0010004
    endloop
  endfacet
  facet normal 0.195091 0.980785 -0
    outer loop
      vertex 25 -5 -5
      vertex 23.0866 -4.6194 0.0010004
      vertex 25 -5 0.0010004
    endloop
  endfacet
  facet normal 0.195091 0.980785 0
    outer loop
      vertex 23.0866 -4.6194 0.0010004
      vertex 25 -5 -5
      vertex 23.0866 -4.6194 -5
    endloop
  endfacet
  facet normal 0.83147 0.55557 0
    outer loop
      vertex 21.4645 -3.53553 0.0010004
      vertex 20.3806 -1.91342 -5
      vertex 20.3806 -1.91342 0.0010004
    endloop
  endfacet
  facet normal 0.83147 0.55557 0
    outer loop
      vertex 20.3806 -1.91342 -5
      vertex 21.4645 -3.53553 0.0010004
      vertex 21.4645 -3.53553 -5
    endloop
  endfacet
  facet normal -0.994522 -0.104529 0
    outer loop
      vertex 35 0 0.0010004
      vertex 34.7815 2.07912 5
      vertex 34.7815 2.07912 0.0010004
    endloop
  endfacet
  facet normal -0.994522 -0.104529 0
    outer loop
      vertex 34.7815 2.07912 5
      vertex 35 0 0.0010004
      vertex 35 0 5
    endloop
  endfacet
  facet normal 0.994522 -0.104529 0
    outer loop
      vertex 15 0 5
      vertex 15.2185 2.07912 0.0010004
      vertex 15.2185 2.07912 5
    endloop
  endfacet
  facet normal 0.994522 -0.104529 0
    outer loop
      vertex 15.2185 2.07912 0.0010004
      vertex 15 0 5
      vertex 15 0 0.0010004
    endloop
  endfacet
  facet normal 0 -1 0
    outer loop
      vertex 23.9547 9.94522 0.0010004
      vertex 26.0453 9.94522 5
      vertex 23.9547 9.94522 5
    endloop
  endfacet
  facet normal 0 -1 -0
    outer loop
      vertex 26.0453 9.94522 5
      vertex 23.9547 9.94522 0.0010004
      vertex 26.0453 9.94522 0.0010004
    endloop
  endfacet
  facet normal 0 1 -0
    outer loop
      vertex 26.0453 -9.94522 0.0010004
      vertex 23.9547 -9.94522 5
      vertex 26.0453 -9.94522 5
    endloop
  endfacet
  facet normal 0 1 0
    outer loop
      vertex 23.9547 -9.94522 5
      vertex 26.0453 -9.94522 0.0010004
      vertex 23.9547 -9.94522 0.0010004
    endloop
  endfacet
  facet normal -0.587785 -0.809017 0
    outer loop
      vertex 30 8.66025 0.0010004
      vertex 31.6913 7.43145 5
      vertex 30 8.66025 5
    endloop
  endfacet
  facet normal -0.587785 -0.809017 -0
    outer loop
      vertex 31.6913 7.43145 5
      vertex 30 8.66025 0.0010004
      vertex 31.6913 7.43145 0.0010004
    endloop
  endfacet
  facet normal -0.406737 -0.913545 0
    outer loop
      vertex 28.0902 9.51056 0.0010004
      vertex 30 8.66025 5
      vertex 28.0902 9.51056 5
    endloop
  endfacet
  facet normal -0.406737 -0.913545 -0
    outer loop
      vertex 30 8.66025 5
      vertex 28.0902 9.51056 0.0010004
      vertex 30 8.66025 0.0010004
    endloop
  endfacet
  facet normal 0.743145 -0.669131 0
    outer loop
      vertex 16.9098 5.87785 5
      vertex 18.3087 7.43145 0.0010004
      vertex 18.3087 7.43145 5
    endloop
  endfacet
  facet normal 0.743145 -0.669131 0
    outer loop
      vertex 18.3087 7.43145 0.0010004
      vertex 16.9098 5.87785 5
      vertex 16.9098 5.87785 0.0010004
    endloop
  endfacet
  facet normal 0.866026 -0.5 0
    outer loop
      vertex 15.8645 4.06737 5
      vertex 16.9098 5.87785 0.0010004
      vertex 16.9098 5.87785 5
    endloop
  endfacet
  facet normal 0.866026 -0.5 0
    outer loop
      vertex 16.9098 5.87785 0.0010004
      vertex 15.8645 4.06737 5
      vertex 15.8645 4.06737 0.0010004
    endloop
  endfacet
  facet normal 0.406737 -0.913545 0
    outer loop
      vertex 20 8.66025 0.0010004
      vertex 21.9098 9.51056 5
      vertex 20 8.66025 5
    endloop
  endfacet
  facet normal 0.406737 -0.913545 0
    outer loop
      vertex 21.9098 9.51056 5
      vertex 20 8.66025 0.0010004
      vertex 21.9098 9.51056 0.0010004
    endloop
  endfacet
  facet normal -0.951056 0.309018 0
    outer loop
      vertex 34.1355 -4.06737 0.0010004
      vertex 34.7815 -2.07912 5
      vertex 34.7815 -2.07912 0.0010004
    endloop
  endfacet
  facet normal -0.951056 0.309018 0
    outer loop
      vertex 34.7815 -2.07912 5
      vertex 34.1355 -4.06737 0.0010004
      vertex 34.1355 -4.06737 5
    endloop
  endfacet
  facet normal -0.866026 -0.499998 0
    outer loop
      vertex 34.1355 4.06737 0.0010004
      vertex 33.0902 5.87785 5
      vertex 33.0902 5.87785 0.0010004
    endloop
  endfacet
  facet normal -0.866026 -0.499998 0
    outer loop
      vertex 33.0902 5.87785 5
      vertex 34.1355 4.06737 0.0010004
      vertex 34.1355 4.06737 5
    endloop
  endfacet
  facet normal -0.951056 -0.309018 0
    outer loop
      vertex 34.7815 2.07912 0.0010004
      vertex 34.1355 4.06737 5
      vertex 34.1355 4.06737 0.0010004
    endloop
  endfacet
  facet normal -0.951056 -0.309018 0
    outer loop
      vertex 34.1355 4.06737 5
      vertex 34.7815 2.07912 0.0010004
      vertex 34.7815 2.07912 5
    endloop
  endfacet
  facet normal -0.743144 -0.669131 0
    outer loop
      vertex 33.0902 5.87785 0.0010004
      vertex 31.6913 7.43145 5
      vertex 31.6913 7.43145 0.0010004
    endloop
  endfacet
  facet normal -0.743144 -0.669131 0
    outer loop
      vertex 31.6913 7.43145 5
      vertex 33.0902 5.87785 0.0010004
      vertex 33.0902 5.87785 5
    endloop
  endfacet
  facet normal -0.207911 -0.978148 0
    outer loop
      vertex 26.0453 9.94522 0.0010004
      vertex 28.0902 9.51056 5
      vertex 26.0453 9.94522 5
    endloop
  endfacet
  facet normal -0.207911 -0.978148 -0
    outer loop
      vertex 28.0902 9.51056 5
      vertex 26.0453 9.94522 0.0010004
      vertex 28.0902 9.51056 0.0010004
    endloop
  endfacet
  facet normal 0.951057 -0.309017 0
    outer loop
      vertex 15.2185 2.07912 5
      vertex 15.8645 4.06737 0.0010004
      vertex 15.8645 4.06737 5
    endloop
  endfacet
  facet normal 0.951057 -0.309017 0
    outer loop
      vertex 15.8645 4.06737 0.0010004
      vertex 15.2185 2.07912 5
      vertex 15.2185 2.07912 0.0010004
    endloop
  endfacet
  facet normal 0.587785 -0.809017 0
    outer loop
      vertex 18.3087 7.43145 0.0010004
      vertex 20 8.66025 5
      vertex 18.3087 7.43145 5
    endloop
  endfacet
  facet normal 0.587785 -0.809017 0
    outer loop
      vertex 20 8.66025 5
      vertex 18.3087 7.43145 0.0010004
      vertex 20 8.66025 0.0010004
    endloop
  endfacet
  facet normal 0.207911 -0.978148 0
    outer loop
      vertex 21.9098 9.51056 0.0010004
      vertex 23.9547 9.94522 5
      vertex 21.9098 9.51056 5
    endloop
  endfacet
  facet normal 0.207911 -0.978148 0
    outer loop
      vertex 23.9547 9.94522 5
      vertex 21.9098 9.51056 0.0010004
      vertex 23.9547 9.94522 0.0010004
    endloop
  endfacet
  facet normal -0.994522 0.104529 0
    outer loop
      vertex 34.7815 -2.07912 0.0010004
      vertex 35 0 5
      vertex 35 0 0.0010004
    endloop
  endfacet
  facet normal -0.994522 0.104529 0
    outer loop
      vertex 35 0 5
      vertex 34.7815 -2.07912 0.0010004
      vertex 34.7815 -2.07912 5
    endloop
  endfacet
  facet normal 0 0 1
    outer loop
      vertex 34.7815 2.07912 0.0010004
      vertex 29.6194 1.91342 0.0010004
      vertex 30 0 0.0010004
    endloop
  endfacet
  facet normal 0 0 1
    outer loop
      vertex 31.6913 7.43145 0.0010004
      vertex 28.5355 3.53553 0.0010004
      vertex 29.6194 1.91342 0.0010004
    endloop
  endfacet
  facet normal 0 0 1
    outer loop
      vertex 26.9134 4.6194 0.0010004
      vertex 30 8.66025 0.0010004
      vertex 28.0902 9.51056 0.0010004
    endloop
  endfacet
  facet normal 0 0 1
    outer loop
      vertex 30 8.66025 0.0010004
      vertex 26.9134 4.6194 0.0010004
      vertex 28.5355 3.53553 0.0010004
    endloop
  endfacet
  facet normal 0 0 1
    outer loop
      vertex 26.0453 9.94522 0.0010004
      vertex 26.9134 4.6194 0.0010004
      vertex 28.0902 9.51056 0.0010004
    endloop
  endfacet
  facet normal 0 0 1
    outer loop
      vertex 26.0453 9.94522 0.0010004
      vertex 25 5 0.0010004
      vertex 26.9134 4.6194 0.0010004
    endloop
  endfacet
  facet normal -0 0 1
    outer loop
      vertex 23.9547 9.94522 0.0010004
      vertex 25 5 0.0010004
      vertex 26.0453 9.94522 0.0010004
    endloop
  endfacet
  facet normal 0 0 1
    outer loop
      vertex 23.9547 9.94522 0.0010004
      vertex 23.0866 4.6194 0.0010004
      vertex 25 5 0.0010004
    endloop
  endfacet
  facet normal -0 0 1
    outer loop
      vertex 21.9098 9.51056 0.0010004
      vertex 23.0866 4.6194 0.0010004
      vertex 23.9547 9.94522 0.0010004
    endloop
  endfacet
  facet normal -0 0 1
    outer loop
      vertex 20 8.66025 0.0010004
      vertex 23.0866 4.6194 0.0010004
      vertex 21.9098 9.51056 0.0010004
    endloop
  endfacet
  facet normal 0 0 1
    outer loop
      vertex 23.0866 4.6194 0.0010004
      vertex 20 8.66025 0.0010004
      vertex 21.4645 3.53553 0.0010004
    endloop
  endfacet
  facet normal -0 0 1
    outer loop
      vertex 18.3087 7.43145 0.0010004
      vertex 21.4645 3.53553 0.0010004
      vertex 20 8.66025 0.0010004
    endloop
  endfacet
  facet normal -0 0 1
    outer loop
      vertex 16.9098 5.87785 0.0010004
      vertex 21.4645 3.53553 0.0010004
      vertex 18.3087 7.43145 0.0010004
    endloop
  endfacet
  facet normal 0 0 1
    outer loop
      vertex 21.4645 3.53553 0.0010004
      vertex 16.9098 5.87785 0.0010004
      vertex 20.3806 1.91342 0.0010004
    endloop
  endfacet
  facet normal -0 0 1
    outer loop
      vertex 15.8645 4.06737 0.0010004
      vertex 20.3806 1.91342 0.0010004
      vertex 16.9098 5.87785 0.0010004
    endloop
  endfacet
  facet normal 0 0 1
    outer loop
      vertex 20 0 0.0010004
      vertex 18.3087 -7.43145 0.0010004
      vertex 20 -8.66025 0.0010004
    endloop
  endfacet
  facet normal -0 0 1
    outer loop
      vertex 15.2185 2.07912 0.0010004
      vertex 20.3806 1.91342 0.0010004
      vertex 15.8645 4.06737 0.0010004
    endloop
  endfacet
  facet normal 0 0 1
    outer loop
      vertex 20 0 0.0010004
      vertex 16.9098 -5.87785 0.0010004
      vertex 18.3087 -7.43145 0.0010004
    endloop
  endfacet
  facet normal 0 0 1
    outer loop
      vertex 20.3806 1.91342 0.0010004
      vertex 15.2185 2.07912 0.0010004
      vertex 20 0 0.0010004
    endloop
  endfacet
  facet normal 0 0 1
    outer loop
      vertex 20 0 0.0010004
      vertex 15.8645 -4.06737 0.0010004
      vertex 16.9098 -5.87785 0.0010004
    endloop
  endfacet
  facet normal 0 0 1
    outer loop
      vertex 15 0 0.0010004
      vertex 20 0 0.0010004
      vertex 15.2185 2.07912 0.0010004
    endloop
  endfacet
  facet normal 0 0 1
    outer loop
      vertex 20 0 0.0010004
      vertex 15.2185 -2.07912 0.0010004
      vertex 15.8645 -4.06737 0.0010004
    endloop
  endfacet
  facet normal 0 0 1
    outer loop
      vertex 20 0 0.0010004
      vertex 15 0 0.0010004
      vertex 15.2185 -2.07912 0.0010004
    endloop
  endfacet
  facet normal 0 0 1
    outer loop
      vertex 30 0 0.0010004
      vertex 35 0 0.0010004
      vertex 34.7815 2.07912 0.0010004
    endloop
  endfacet
  facet normal 0 0 1
    outer loop
      vertex 29.6194 1.91342 0.0010004
      vertex 34.7815 2.07912 0.0010004
      vertex 34.1355 4.06737 0.0010004
    endloop
  endfacet
  facet normal 0 0 1
    outer loop
      vertex 35 0 0.0010004
      vertex 30 0 0.0010004
      vertex 34.7815 -2.07912 0.0010004
    endloop
  endfacet
  facet normal 0 0 1
    outer loop
      vertex 29.6194 1.91342 0.0010004
      vertex 34.1355 4.06737 0.0010004
      vertex 33.0902 5.87785 0.0010004
    endloop
  endfacet
  facet normal -0 0 1
    outer loop
      vertex 29.6194 -1.91342 0.0010004
      vertex 34.7815 -2.07912 0.0010004
      vertex 30 0 0.0010004
    endloop
  endfacet
  facet normal 0 0 1
    outer loop
      vertex 29.6194 1.91342 0.0010004
      vertex 33.0902 5.87785 0.0010004
      vertex 31.6913 7.43145 0.0010004
    endloop
  endfacet
  facet normal 0 0 1
    outer loop
      vertex 34.7815 -2.07912 0.0010004
      vertex 29.6194 -1.91342 0.0010004
      vertex 34.1355 -4.06737 0.0010004
    endloop
  endfacet
  facet normal 0 0 1
    outer loop
      vertex 28.5355 3.53553 0.0010004
      vertex 31.6913 7.43145 0.0010004
      vertex 30 8.66025 0.0010004
    endloop
  endfacet
  facet normal 0 0 1
    outer loop
      vertex 34.1355 -4.06737 0.0010004
      vertex 29.6194 -1.91342 0.0010004
      vertex 33.0902 -5.87785 0.0010004
    endloop
  endfacet
  facet normal -0 0 1
    outer loop
      vertex 28.5355 -3.53553 0.0010004
      vertex 33.0902 -5.87785 0.0010004
      vertex 29.6194 -1.91342 0.0010004
    endloop
  endfacet
  facet normal 0 0 1
    outer loop
      vertex 33.0902 -5.87785 0.0010004
      vertex 28.5355 -3.53553 0.0010004
      vertex 31.6913 -7.43145 0.0010004
    endloop
  endfacet
  facet normal 0 0 1
    outer loop
      vertex 31.6913 -7.43145 0.0010004
      vertex 28.5355 -3.53553 0.0010004
      vertex 30 -8.66025 0.0010004
    endloop
  endfacet
  facet normal -0 0 1
    outer loop
      vertex 26.9134 -4.6194 0.0010004
      vertex 30 -8.66025 0.0010004
      vertex 28.5355 -3.53553 0.0010004
    endloop
  endfacet
  facet normal 0 0 1
    outer loop
      vertex 30 -8.66025 0.0010004
      vertex 26.9134 -4.6194 0.0010004
      vertex 28.0902 -9.51056 0.0010004
    endloop
  endfacet
  facet normal 0 0 1
    outer loop
      vertex 26.9134 -4.6194 0.0010004
      vertex 26.0453 -9.94522 0.0010004
      vertex 28.0902 -9.51056 0.0010004
    endloop
  endfacet
  facet normal -0 0 1
    outer loop
      vertex 25 -5 0.0010004
      vertex 26.0453 -9.94522 0.0010004
      vertex 26.9134 -4.6194 0.0010004
    endloop
  endfacet
  facet normal 0 0 1
    outer loop
      vertex 25 -5 0.0010004
      vertex 23.9547 -9.94522 0.0010004
      vertex 26.0453 -9.94522 0.0010004
    endloop
  endfacet
  facet normal 0 0 1
    outer loop
      vertex 23.0866 -4.6194 0.0010004
      vertex 23.9547 -9.94522 0.0010004
      vertex 25 -5 0.0010004
    endloop
  endfacet
  facet normal 0 0 1
    outer loop
      vertex 23.0866 -4.6194 0.0010004
      vertex 21.9098 -9.51056 0.0010004
      vertex 23.9547 -9.94522 0.0010004
    endloop
  endfacet
  facet normal 0 0 1
    outer loop
      vertex 20 -8.66025 0.0010004
      vertex 23.0866 -4.6194 0.0010004
      vertex 21.4645 -3.53553 0.0010004
    endloop
  endfacet
  facet normal 0 0 1
    outer loop
      vertex 20 -8.66025 0.0010004
      vertex 21.4645 -3.53553 0.0010004
      vertex 20.3806 -1.91342 0.0010004
    endloop
  endfacet
  facet normal 0 0 1
    outer loop
      vertex 23.0866 -4.6194 0.0010004
      vertex 20 -8.66025 0.0010004
      vertex 21.9098 -9.51056 0.0010004
    endloop
  endfacet
  facet normal 0 0 1
    outer loop
      vertex 20 -8.66025 0.0010004
      vertex 20.3806 -1.91342 0.0010004
      vertex 20 0 0.0010004
    endloop
  endfacet
  facet normal -0.207911 0.978148 0
    outer loop
      vertex 28.0902 -9.51056 0.0010004
      vertex 26.0453 -9.94522 5
      vertex 28.0902 -9.51056 5
    endloop
  endfacet
  facet normal -0.207911 0.978148 0
    outer loop
      vertex 26.0453 -9.94522 5
      vertex 28.0902 -9.51056 0.0010004
      vertex 26.0453 -9.94522 0.0010004
    endloop
  endfacet
  facet normal -0.866026 0.499998 0
    outer loop
      vertex 33.0902 -5.87785 0.0010004
      vertex 34.1355 -4.06737 5
      vertex 34.1355 -4.06737 0.0010004
    endloop
  endfacet
  facet normal -0.866026 0.499998 0
    outer loop
      vertex 34.1355 -4.06737 5
      vertex 33.0902 -5.87785 0.0010004
      vertex 33.0902 -5.87785 5
    endloop
  endfacet
  facet normal 0.866026 0.5 0
    outer loop
      vertex 16.9098 -5.87785 5
      vertex 15.8645 -4.06737 0.0010004
      vertex 15.8645 -4.06737 5
    endloop
  endfacet
  facet normal 0.866026 0.5 0
    outer loop
      vertex 15.8645 -4.06737 0.0010004
      vertex 16.9098 -5.87785 5
      vertex 16.9098 -5.87785 0.0010004
    endloop
  endfacet
  facet normal 0.994522 0.104529 0
    outer loop
      vertex 15.2185 -2.07912 5
      vertex 15 0 0.0010004
      vertex 15 0 5
    endloop
  endfacet
  facet normal 0.994522 0.104529 0
    outer loop
      vertex 15 0 0.0010004
      vertex 15.2185 -2.07912 5
      vertex 15.2185 -2.07912 0.0010004
    endloop
  endfacet
  facet normal -0.587785 0.809017 0
    outer loop
      vertex 31.6913 -7.43145 0.0010004
      vertex 30 -8.66025 5
      vertex 31.6913 -7.43145 5
    endloop
  endfacet
  facet normal -0.587785 0.809017 0
    outer loop
      vertex 30 -8.66025 5
      vertex 31.6913 -7.43145 0.0010004
      vertex 30 -8.66025 0.0010004
    endloop
  endfacet
  facet normal -0.406737 0.913545 0
    outer loop
      vertex 30 -8.66025 0.0010004
      vertex 28.0902 -9.51056 5
      vertex 30 -8.66025 5
    endloop
  endfacet
  facet normal -0.406737 0.913545 0
    outer loop
      vertex 28.0902 -9.51056 5
      vertex 30 -8.66025 0.0010004
      vertex 28.0902 -9.51056 0.0010004
    endloop
  endfacet
  facet normal 0.207911 0.978148 -0
    outer loop
      vertex 23.9547 -9.94522 0.0010004
      vertex 21.9098 -9.51056 5
      vertex 23.9547 -9.94522 5
    endloop
  endfacet
  facet normal 0.207911 0.978148 0
    outer loop
      vertex 21.9098 -9.51056 5
      vertex 23.9547 -9.94522 0.0010004
      vertex 21.9098 -9.51056 0.0010004
    endloop
  endfacet
  facet normal 0.743145 0.669131 0
    outer loop
      vertex 18.3087 -7.43145 5
      vertex 16.9098 -5.87785 0.0010004
      vertex 16.9098 -5.87785 5
    endloop
  endfacet
  facet normal 0.743145 0.669131 0
    outer loop
      vertex 16.9098 -5.87785 0.0010004
      vertex 18.3087 -7.43145 5
      vertex 18.3087 -7.43145 0.0010004
    endloop
  endfacet
  facet normal 0.951057 0.309017 0
    outer loop
      vertex 15.8645 -4.06737 5
      vertex 15.2185 -2.07912 0.0010004
      vertex 15.2185 -2.07912 5
    endloop
  endfacet
  facet normal 0.951057 0.309017 0
    outer loop
      vertex 15.2185 -2.07912 0.0010004
      vertex 15.8645 -4.06737 5
      vertex 15.8645 -4.06737 0.0010004
    endloop
  endfacet
  facet normal -0.743144 0.669131 0
    outer loop
      vertex 31.6913 -7.43145 0.0010004
      vertex 33.0902 -5.87785 5
      vertex 33.0902 -5.87785 0.0010004
    endloop
  endfacet
  facet normal -0.743144 0.669131 0
    outer loop
      vertex 33.0902 -5.87785 5
      vertex 31.6913 -7.43145 0.0010004
      vertex 31.6913 -7.43145 5
    endloop
  endfacet
  facet normal 0.406737 0.913545 -0
    outer loop
      vertex 21.9098 -9.51056 0.0010004
      vertex 20 -8.66025 5
      vertex 21.9098 -9.51056 5
    endloop
  endfacet
  facet normal 0.406737 0.913545 0
    outer loop
      vertex 20 -8.66025 5
      vertex 21.9098 -9.51056 0.0010004
      vertex 20 -8.66025 0.0010004
    endloop
  endfacet
  facet normal 0.587785 0.809017 -0
    outer loop
      vertex 20 -8.66025 0.0010004
      vertex 18.3087 -7.43145 5
      vertex 20 -8.66025 5
    endloop
  endfacet
  facet normal 0.587785 0.809017 0
    outer loop
      vertex 18.3087 -7.43145 5
      vertex 20 -8.66025 0.0010004
      vertex 18.3087 -7.43145 0.0010004
    endloop
  endfacet
  facet normal -0.980785 -0.195091 0
    outer loop
      vertex -50 0 -5
      vertex -50.3806 1.91342 0.0010004
      vertex -50.3806 1.91342 -5
    endloop
  endfacet
  facet normal -0.980785 -0.195091 0
    outer loop
      vertex -50.3806 1.91342 0.0010004
      vertex -50 0 -5
      vertex -50 0 0.0010004
    endloop
  endfacet
  facet normal 0.980785 -0.195091 0
    outer loop
      vertex -60 0 0.0010004
      vertex -59.6194 1.91342 -5
      vertex -59.6194 1.91342 0.0010004
    endloop
  endfacet
  facet normal 0.980785 -0.195091 0
    outer loop
      vertex -59.6194 1.91342 -5
      vertex -60 0 0.0010004
      vertex -60 0 -5
    endloop
  endfacet
  facet normal -0.195091 -0.980785 0
    outer loop
      vertex -55 5 -5
      vertex -53.0866 4.6194 0.0010004
      vertex -55 5 0.0010004
    endloop
  endfacet
  facet normal -0.195091 -0.980785 -0
    outer loop
      vertex -53.0866 4.6194 0.0010004
      vertex -55 5 -5
      vertex -53.0866 4.6194 -5
    endloop
  endfacet
  facet normal -0.83147 -0.55557 0
    outer loop
      vertex -50.3806 1.91342 -5
      vertex -51.4645 3.53553 0.0010004
      vertex -51.4645 3.53553 -5
    endloop
  endfacet
  facet normal -0.83147 -0.55557 0
    outer loop
      vertex -51.4645 3.53553 0.0010004
      vertex -50.3806 1.91342 -5
      vertex -50.3806 1.91342 0.0010004
    endloop
  endfacet
  facet normal -0.55557 -0.83147 0
    outer loop
      vertex -53.0866 4.6194 -5
      vertex -51.4645 3.53553 0.0010004
      vertex -53.0866 4.6194 0.0010004
    endloop
  endfacet
  facet normal -0.55557 -0.83147 -0
    outer loop
      vertex -51.4645 3.53553 0.0010004
      vertex -53.0866 4.6194 -5
      vertex -51.4645 3.53553 -5
    endloop
  endfacet
  facet normal 0.55557 -0.83147 0
    outer loop
      vertex -58.5355 3.53553 -5
      vertex -56.9134 4.6194 0.0010004
      vertex -58.5355 3.53553 0.0010004
    endloop
  endfacet
  facet normal 0.55557 -0.83147 0
    outer loop
      vertex -56.9134 4.6194 0.0010004
      vertex -58.5355 3.53553 -5
      vertex -56.9134 4.6194 -5
    endloop
  endfacet
  facet normal 0.83147 -0.55557 0
    outer loop
      vertex -59.6194 1.91342 0.0010004
      vertex -58.5355 3.53553 -5
      vertex -58.5355 3.53553 0.0010004
    endloop
  endfacet
  facet normal 0.83147 -0.55557 0
    outer loop
      vertex -58.5355 3.53553 -5
      vertex -59.6194 1.91342 0.0010004
      vertex -59.6194 1.91342 -5
    endloop
  endfacet
  facet normal 0.195091 -0.980785 0
    outer loop
      vertex -56.9134 4.6194 -5
      vertex -55 5 0.0010004
      vertex -56.9134 4.6194 0.0010004
    endloop
  endfacet
  facet normal 0.195091 -0.980785 0
    outer loop
      vertex -55 5 0.0010004
      vertex -56.9134 4.6194 -5
      vertex -55 5 -5
    endloop
  endfacet
  facet normal 0.55557 0.83147 -0
    outer loop
      vertex -56.9134 -4.6194 -5
      vertex -58.5355 -3.53553 0.0010004
      vertex -56.9134 -4.6194 0.0010004
    endloop
  endfacet
  facet normal 0.55557 0.83147 0
    outer loop
      vertex -58.5355 -3.53553 0.0010004
      vertex -56.9134 -4.6194 -5
      vertex -58.5355 -3.53553 -5
    endloop
  endfacet
  facet normal 0.980785 0.195091 0
    outer loop
      vertex -59.6194 -1.91342 0.0010004
      vertex -60 0 -5
      vertex -60 0 0.0010004
    endloop
  endfacet
  facet normal 0.980785 0.195091 0
    outer loop
      vertex -60 0 -5
      vertex -59.6194 -1.91342 0.0010004
      vertex -59.6194 -1.91342 -5
    endloop
  endfacet
  facet normal -0.980785 0.195091 0
    outer loop
      vertex -50.3806 -1.91342 -5
      vertex -50 0 0.0010004
      vertex -50 0 -5
    endloop
  endfacet
  facet normal -0.980785 0.195091 0
    outer loop
      vertex -50 0 0.0010004
      vertex -50.3806 -1.91342 -5
      vertex -50.3806 -1.91342 0.0010004
    endloop
  endfacet
  facet normal -0.55557 0.83147 0
    outer loop
      vertex -51.4645 -3.53553 -5
      vertex -53.0866 -4.6194 0.0010004
      vertex -51.4645 -3.53553 0.0010004
    endloop
  endfacet
  facet normal -0.55557 0.83147 0
    outer loop
      vertex -53.0866 -4.6194 0.0010004
      vertex -51.4645 -3.53553 -5
      vertex -53.0866 -4.6194 -5
    endloop
  endfacet
  facet normal -0.195091 0.980785 0
    outer loop
      vertex -53.0866 -4.6194 -5
      vertex -55 -5 0.0010004
      vertex -53.0866 -4.6194 0.0010004
    endloop
  endfacet
  facet normal -0.195091 0.980785 0
    outer loop
      vertex -55 -5 0.0010004
      vertex -53.0866 -4.6194 -5
      vertex -55 -5 -5
    endloop
  endfacet
  facet normal -0.83147 0.55557 0
    outer loop
      vertex -51.4645 -3.53553 -5
      vertex -50.3806 -1.91342 0.0010004
      vertex -50.3806 -1.91342 -5
    endloop
  endfacet
  facet normal -0.83147 0.55557 0
    outer loop
      vertex -50.3806 -1.91342 0.0010004
      vertex -51.4645 -3.53553 -5
      vertex -51.4645 -3.53553 0.0010004
    endloop
  endfacet
  facet normal 0.195091 0.980785 -0
    outer loop
      vertex -55 -5 -5
      vertex -56.9134 -4.6194 0.0010004
      vertex -55 -5 0.0010004
    endloop
  endfacet
  facet normal 0.195091 0.980785 0
    outer loop
      vertex -56.9134 -4.6194 0.0010004
      vertex -55 -5 -5
      vertex -56.9134 -4.6194 -5
    endloop
  endfacet
  facet normal 0.83147 0.55557 0
    outer loop
      vertex -58.5355 -3.53553 0.0010004
      vertex -59.6194 -1.91342 -5
      vertex -59.6194 -1.91342 0.0010004
    endloop
  endfacet
  facet normal 0.83147 0.55557 0
    outer loop
      vertex -59.6194 -1.91342 -5
      vertex -58.5355 -3.53553 0.0010004
      vertex -58.5355 -3.53553 -5
    endloop
  endfacet
  facet normal -0.994522 -0.104529 0
    outer loop
      vertex -45 0 0.0010004
      vertex -45.2185 2.07912 5
      vertex -45.2185 2.07912 0.0010004
    endloop
  endfacet
  facet normal -0.994522 -0.104529 0
    outer loop
      vertex -45.2185 2.07912 5
      vertex -45 0 0.0010004
      vertex -45 0 5
    endloop
  endfacet
  facet normal 0.994522 -0.104527 0
    outer loop
      vertex -65 0 5
      vertex -64.7815 2.07912 0.0010004
      vertex -64.7815 2.07912 5
    endloop
  endfacet
  facet normal 0.994522 -0.104527 0
    outer loop
      vertex -64.7815 2.07912 0.0010004
      vertex -65 0 5
      vertex -65 0 0.0010004
    endloop
  endfacet
  facet normal 0 -1 0
    outer loop
      vertex -56.0453 9.94522 0.0010004
      vertex -53.9547 9.94522 5
      vertex -56.0453 9.94522 5
    endloop
  endfacet
  facet normal 0 -1 -0
    outer loop
      vertex -53.9547 9.94522 5
      vertex -56.0453 9.94522 0.0010004
      vertex -53.9547 9.94522 0.0010004
    endloop
  endfacet
  facet normal 0 1 -0
    outer loop
      vertex -53.9547 -9.94522 0.0010004
      vertex -56.0453 -9.94522 5
      vertex -53.9547 -9.94522 5
    endloop
  endfacet
  facet normal 0 1 0
    outer loop
      vertex -56.0453 -9.94522 5
      vertex -53.9547 -9.94522 0.0010004
      vertex -56.0453 -9.94522 0.0010004
    endloop
  endfacet
  facet normal -0.587785 -0.809017 0
    outer loop
      vertex -50 8.66025 0.0010004
      vertex -48.3087 7.43145 5
      vertex -50 8.66025 5
    endloop
  endfacet
  facet normal -0.587785 -0.809017 -0
    outer loop
      vertex -48.3087 7.43145 5
      vertex -50 8.66025 0.0010004
      vertex -48.3087 7.43145 0.0010004
    endloop
  endfacet
  facet normal -0.406737 -0.913545 0
    outer loop
      vertex -51.9098 9.51056 0.0010004
      vertex -50 8.66025 5
      vertex -51.9098 9.51056 5
    endloop
  endfacet
  facet normal -0.406737 -0.913545 -0
    outer loop
      vertex -50 8.66025 5
      vertex -51.9098 9.51056 0.0010004
      vertex -50 8.66025 0.0010004
    endloop
  endfacet
  facet normal 0.743145 -0.669131 0
    outer loop
      vertex -63.0902 5.87785 5
      vertex -61.6913 7.43145 0.0010004
      vertex -61.6913 7.43145 5
    endloop
  endfacet
  facet normal 0.743145 -0.669131 0
    outer loop
      vertex -61.6913 7.43145 0.0010004
      vertex -63.0902 5.87785 5
      vertex -63.0902 5.87785 0.0010004
    endloop
  endfacet
  facet normal 0.866026 -0.499998 0
    outer loop
      vertex -64.1355 4.06737 5
      vertex -63.0902 5.87785 0.0010004
      vertex -63.0902 5.87785 5
    endloop
  endfacet
  facet normal 0.866026 -0.499998 0
    outer loop
      vertex -63.0902 5.87785 0.0010004
      vertex -64.1355 4.06737 5
      vertex -64.1355 4.06737 0.0010004
    endloop
  endfacet
  facet normal 0.406737 -0.913545 0
    outer loop
      vertex -60 8.66025 0.0010004
      vertex -58.0902 9.51056 5
      vertex -60 8.66025 5
    endloop
  endfacet
  facet normal 0.406737 -0.913545 0
    outer loop
      vertex -58.0902 9.51056 5
      vertex -60 8.66025 0.0010004
      vertex -58.0902 9.51056 0.0010004
    endloop
  endfacet
  facet normal -0.951056 0.309018 0
    outer loop
      vertex -45.8645 -4.06737 0.0010004
      vertex -45.2185 -2.07912 5
      vertex -45.2185 -2.07912 0.0010004
    endloop
  endfacet
  facet normal -0.951056 0.309018 0
    outer loop
      vertex -45.2185 -2.07912 5
      vertex -45.8645 -4.06737 0.0010004
      vertex -45.8645 -4.06737 5
    endloop
  endfacet
  facet normal -0.866026 -0.499998 0
    outer loop
      vertex -45.8645 4.06737 0.0010004
      vertex -46.9098 5.87785 5
      vertex -46.9098 5.87785 0.0010004
    endloop
  endfacet
  facet normal -0.866026 -0.499998 0
    outer loop
      vertex -46.9098 5.87785 5
      vertex -45.8645 4.06737 0.0010004
      vertex -45.8645 4.06737 5
    endloop
  endfacet
  facet normal -0.951056 -0.309018 0
    outer loop
      vertex -45.2185 2.07912 0.0010004
      vertex -45.8645 4.06737 5
      vertex -45.8645 4.06737 0.0010004
    endloop
  endfacet
  facet normal -0.951056 -0.309018 0
    outer loop
      vertex -45.8645 4.06737 5
      vertex -45.2185 2.07912 0.0010004
      vertex -45.2185 2.07912 5
    endloop
  endfacet
  facet normal -0.743145 -0.669131 0
    outer loop
      vertex -46.9098 5.87785 0.0010004
      vertex -48.3087 7.43145 5
      vertex -48.3087 7.43145 0.0010004
    endloop
  endfacet
  facet normal -0.743145 -0.669131 0
    outer loop
      vertex -48.3087 7.43145 5
      vertex -46.9098 5.87785 0.0010004
      vertex -46.9098 5.87785 5
    endloop
  endfacet
  facet normal -0.207911 -0.978148 0
    outer loop
      vertex -53.9547 9.94522 0.0010004
      vertex -51.9098 9.51056 5
      vertex -53.9547 9.94522 5
    endloop
  endfacet
  facet normal -0.207911 -0.978148 -0
    outer loop
      vertex -51.9098 9.51056 5
      vertex -53.9547 9.94522 0.0010004
      vertex -51.9098 9.51056 0.0010004
    endloop
  endfacet
  facet normal 0.951056 -0.309019 0
    outer loop
      vertex -64.7815 2.07912 5
      vertex -64.1355 4.06737 0.0010004
      vertex -64.1355 4.06737 5
    endloop
  endfacet
  facet normal 0.951056 -0.309019 0
    outer loop
      vertex -64.1355 4.06737 0.0010004
      vertex -64.7815 2.07912 5
      vertex -64.7815 2.07912 0.0010004
    endloop
  endfacet
  facet normal 0.587785 -0.809017 0
    outer loop
      vertex -61.6913 7.43145 0.0010004
      vertex -60 8.66025 5
      vertex -61.6913 7.43145 5
    endloop
  endfacet
  facet normal 0.587785 -0.809017 0
    outer loop
      vertex -60 8.66025 5
      vertex -61.6913 7.43145 0.0010004
      vertex -60 8.66025 0.0010004
    endloop
  endfacet
  facet normal 0.207911 -0.978148 0
    outer loop
      vertex -58.0902 9.51056 0.0010004
      vertex -56.0453 9.94522 5
      vertex -58.0902 9.51056 5
    endloop
  endfacet
  facet normal 0.207911 -0.978148 0
    outer loop
      vertex -56.0453 9.94522 5
      vertex -58.0902 9.51056 0.0010004
      vertex -56.0453 9.94522 0.0010004
    endloop
  endfacet
  facet normal -0.994522 0.104529 0
    outer loop
      vertex -45.2185 -2.07912 0.0010004
      vertex -45 0 5
      vertex -45 0 0.0010004
    endloop
  endfacet
  facet normal -0.994522 0.104529 0
    outer loop
      vertex -45 0 5
      vertex -45.2185 -2.07912 0.0010004
      vertex -45.2185 -2.07912 5
    endloop
  endfacet
  facet normal 0 0 1
    outer loop
      vertex -45.2185 2.07912 0.0010004
      vertex -50.3806 1.91342 0.0010004
      vertex -50 0 0.0010004
    endloop
  endfacet
  facet normal 0 0 1
    outer loop
      vertex -48.3087 7.43145 0.0010004
      vertex -51.4645 3.53553 0.0010004
      vertex -50.3806 1.91342 0.0010004
    endloop
  endfacet
  facet normal 0 0 1
    outer loop
      vertex -53.0866 4.6194 0.0010004
      vertex -50 8.66025 0.0010004
      vertex -51.9098 9.51056 0.0010004
    endloop
  endfacet
  facet normal 0 0 1
    outer loop
      vertex -50 8.66025 0.0010004
      vertex -53.0866 4.6194 0.0010004
      vertex -51.4645 3.53553 0.0010004
    endloop
  endfacet
  facet normal 0 0 1
    outer loop
      vertex -53.9547 9.94522 0.0010004
      vertex -53.0866 4.6194 0.0010004
      vertex -51.9098 9.51056 0.0010004
    endloop
  endfacet
  facet normal 0 0 1
    outer loop
      vertex -53.9547 9.94522 0.0010004
      vertex -55 5 0.0010004
      vertex -53.0866 4.6194 0.0010004
    endloop
  endfacet
  facet normal -0 0 1
    outer loop
      vertex -56.0453 9.94522 0.0010004
      vertex -55 5 0.0010004
      vertex -53.9547 9.94522 0.0010004
    endloop
  endfacet
  facet normal 0 0 1
    outer loop
      vertex -56.0453 9.94522 0.0010004
      vertex -56.9134 4.6194 0.0010004
      vertex -55 5 0.0010004
    endloop
  endfacet
  facet normal -0 0 1
    outer loop
      vertex -58.0902 9.51056 0.0010004
      vertex -56.9134 4.6194 0.0010004
      vertex -56.0453 9.94522 0.0010004
    endloop
  endfacet
  facet normal -0 0 1
    outer loop
      vertex -60 8.66025 0.0010004
      vertex -56.9134 4.6194 0.0010004
      vertex -58.0902 9.51056 0.0010004
    endloop
  endfacet
  facet normal 0 0 1
    outer loop
      vertex -56.9134 4.6194 0.0010004
      vertex -60 8.66025 0.0010004
      vertex -58.5355 3.53553 0.0010004
    endloop
  endfacet
  facet normal -0 0 1
    outer loop
      vertex -61.6913 7.43145 0.0010004
      vertex -58.5355 3.53553 0.0010004
      vertex -60 8.66025 0.0010004
    endloop
  endfacet
  facet normal -0 0 1
    outer loop
      vertex -63.0902 5.87785 0.0010004
      vertex -58.5355 3.53553 0.0010004
      vertex -61.6913 7.43145 0.0010004
    endloop
  endfacet
  facet normal 0 0 1
    outer loop
      vertex -58.5355 3.53553 0.0010004
      vertex -63.0902 5.87785 0.0010004
      vertex -59.6194 1.91342 0.0010004
    endloop
  endfacet
  facet normal -0 0 1
    outer loop
      vertex -64.1355 4.06737 0.0010004
      vertex -59.6194 1.91342 0.0010004
      vertex -63.0902 5.87785 0.0010004
    endloop
  endfacet
  facet normal 0 0 1
    outer loop
      vertex -60 0 0.0010004
      vertex -61.6913 -7.43145 0.0010004
      vertex -60 -8.66025 0.0010004
    endloop
  endfacet
  facet normal -0 0 1
    outer loop
      vertex -64.7815 2.07912 0.0010004
      vertex -59.6194 1.91342 0.0010004
      vertex -64.1355 4.06737 0.0010004
    endloop
  endfacet
  facet normal 0 0 1
    outer loop
      vertex -60 0 0.0010004
      vertex -63.0902 -5.87785 0.0010004
      vertex -61.6913 -7.43145 0.0010004
    endloop
  endfacet
  facet normal 0 0 1
    outer loop
      vertex -59.6194 1.91342 0.0010004
      vertex -64.7815 2.07912 0.0010004
      vertex -60 0 0.0010004
    endloop
  endfacet
  facet normal 0 0 1
    outer loop
      vertex -60 0 0.0010004
      vertex -64.1355 -4.06737 0.0010004
      vertex -63.0902 -5.87785 0.0010004
    endloop
  endfacet
  facet normal 0 0 1
    outer loop
      vertex -65 0 0.0010004
      vertex -60 0 0.0010004
      vertex -64.7815 2.07912 0.0010004
    endloop
  endfacet
  facet normal 0 0 1
    outer loop
      vertex -60 0 0.0010004
      vertex -64.7815 -2.07912 0.0010004
      vertex -64.1355 -4.06737 0.0010004
    endloop
  endfacet
  facet normal 0 0 1
    outer loop
      vertex -60 0 0.0010004
      vertex -65 0 0.0010004
      vertex -64.7815 -2.07912 0.0010004
    endloop
  endfacet
  facet normal 0 0 1
    outer loop
      vertex -50 0 0.0010004
      vertex -45 0 0.0010004
      vertex -45.2185 2.07912 0.0010004
    endloop
  endfacet
  facet normal 0 0 1
    outer loop
      vertex -50.3806 1.91342 0.0010004
      vertex -45.2185 2.07912 0.0010004
      vertex -45.8645 4.06737 0.0010004
    endloop
  endfacet
  facet normal 0 0 1
    outer loop
      vertex -45 0 0.0010004
      vertex -50 0 0.0010004
      vertex -45.2185 -2.07912 0.0010004
    endloop
  endfacet
  facet normal 0 0 1
    outer loop
      vertex -50.3806 1.91342 0.0010004
      vertex -45.8645 4.06737 0.0010004
      vertex -46.9098 5.87785 0.0010004
    endloop
  endfacet
  facet normal -0 0 1
    outer loop
      vertex -50.3806 -1.91342 0.0010004
      vertex -45.2185 -2.07912 0.0010004
      vertex -50 0 0.0010004
    endloop
  endfacet
  facet normal 0 0 1
    outer loop
      vertex -50.3806 1.91342 0.0010004
      vertex -46.9098 5.87785 0.0010004
      vertex -48.3087 7.43145 0.0010004
    endloop
  endfacet
  facet normal 0 0 1
    outer loop
      vertex -45.2185 -2.07912 0.0010004
      vertex -50.3806 -1.91342 0.0010004
      vertex -45.8645 -4.06737 0.0010004
    endloop
  endfacet
  facet normal 0 0 1
    outer loop
      vertex -51.4645 3.53553 0.0010004
      vertex -48.3087 7.43145 0.0010004
      vertex -50 8.66025 0.0010004
    endloop
  endfacet
  facet normal 0 0 1
    outer loop
      vertex -45.8645 -4.06737 0.0010004
      vertex -50.3806 -1.91342 0.0010004
      vertex -46.9098 -5.87785 0.0010004
    endloop
  endfacet
  facet normal -0 0 1
    outer loop
      vertex -51.4645 -3.53553 0.0010004
      vertex -46.9098 -5.87785 0.0010004
      vertex -50.3806 -1.91342 0.0010004
    endloop
  endfacet
  facet normal 0 0 1
    outer loop
      vertex -46.9098 -5.87785 0.0010004
      vertex -51.4645 -3.53553 0.0010004
      vertex -48.3087 -7.43145 0.0010004
    endloop
  endfacet
  facet normal 0 0 1
    outer loop
      vertex -48.3087 -7.43145 0.0010004
      vertex -51.4645 -3.53553 0.0010004
      vertex -50 -8.66025 0.0010004
    endloop
  endfacet
  facet normal -0 0 1
    outer loop
      vertex -53.0866 -4.6194 0.0010004
      vertex -50 -8.66025 0.0010004
      vertex -51.4645 -3.53553 0.0010004
    endloop
  endfacet
  facet normal 0 0 1
    outer loop
      vertex -50 -8.66025 0.0010004
      vertex -53.0866 -4.6194 0.0010004
      vertex -51.9098 -9.51056 0.0010004
    endloop
  endfacet
  facet normal 0 0 1
    outer loop
      vertex -53.0866 -4.6194 0.0010004
      vertex -53.9547 -9.94522 0.0010004
      vertex -51.9098 -9.51056 0.0010004
    endloop
  endfacet
  facet normal -0 0 1
    outer loop
      vertex -55 -5 0.0010004
      vertex -53.9547 -9.94522 0.0010004
      vertex -53.0866 -4.6194 0.0010004
    endloop
  endfacet
  facet normal 0 0 1
    outer loop
      vertex -55 -5 0.0010004
      vertex -56.0453 -9.94522 0.0010004
      vertex -53.9547 -9.94522 0.0010004
    endloop
  endfacet
  facet normal 0 0 1
    outer loop
      vertex -56.9134 -4.6194 0.0010004
      vertex -56.0453 -9.94522 0.0010004
      vertex -55 -5 0.0010004
    endloop
  endfacet
  facet normal 0 0 1
    outer loop
      vertex -56.9134 -4.6194 0.0010004
      vertex -58.0902 -9.51056 0.0010004
      vertex -56.0453 -9.94522 0.0010004
    endloop
  endfacet
  facet normal 0 0 1
    outer loop
      vertex -60 -8.66025 0.0010004
      vertex -56.9134 -4.6194 0.0010004
      vertex -58.5355 -3.53553 0.0010004
    endloop
  endfacet
  facet normal 0 0 1
    outer loop
      vertex -60 -8.66025 0.0010004
      vertex -58.5355 -3.53553 0.0010004
      vertex -59.6194 -1.91342 0.0010004
    endloop
  endfacet
  facet normal 0 0 1
    outer loop
      vertex -56.9134 -4.6194 0.0010004
      vertex -60 -8.66025 0.0010004
      vertex -58.0902 -9.51056 0.0010004
    endloop
  endfacet
  facet normal 0 0 1
    outer loop
      vertex -60 -8.66025 0.0010004
      vertex -59.6194 -1.91342 0.0010004
      vertex -60 0 0.0010004
    endloop
  endfacet
  facet normal -0.207911 0.978148 0
    outer loop
      vertex -51.9098 -9.51056 0.0010004
      vertex -53.9547 -9.94522 5
      vertex -51.9098 -9.51056 5
    endloop
  endfacet
  facet normal -0.207911 0.978148 0
    outer loop
      vertex -53.9547 -9.94522 5
      vertex -51.9098 -9.51056 0.0010004
      vertex -53.9547 -9.94522 0.0010004
    endloop
  endfacet
  facet normal -0.866026 0.499998 0
    outer loop
      vertex -46.9098 -5.87785 0.0010004
      vertex -45.8645 -4.06737 5
      vertex -45.8645 -4.06737 0.0010004
    endloop
  endfacet
  facet normal -0.866026 0.499998 0
    outer loop
      vertex -45.8645 -4.06737 5
      vertex -46.9098 -5.87785 0.0010004
      vertex -46.9098 -5.87785 5
    endloop
  endfacet
  facet normal 0.866026 0.499998 0
    outer loop
      vertex -63.0902 -5.87785 5
      vertex -64.1355 -4.06737 0.0010004
      vertex -64.1355 -4.06737 5
    endloop
  endfacet
  facet normal 0.866026 0.499998 0
    outer loop
      vertex -64.1355 -4.06737 0.0010004
      vertex -63.0902 -5.87785 5
      vertex -63.0902 -5.87785 0.0010004
    endloop
  endfacet
  facet normal 0.994522 0.104527 0
    outer loop
      vertex -64.7815 -2.07912 5
      vertex -65 0 0.0010004
      vertex -65 0 5
    endloop
  endfacet
  facet normal 0.994522 0.104527 0
    outer loop
      vertex -65 0 0.0010004
      vertex -64.7815 -2.07912 5
      vertex -64.7815 -2.07912 0.0010004
    endloop
  endfacet
  facet normal -0.587785 0.809017 0
    outer loop
      vertex -48.3087 -7.43145 0.0010004
      vertex -50 -8.66025 5
      vertex -48.3087 -7.43145 5
    endloop
  endfacet
  facet normal -0.587785 0.809017 0
    outer loop
      vertex -50 -8.66025 5
      vertex -48.3087 -7.43145 0.0010004
      vertex -50 -8.66025 0.0010004
    endloop
  endfacet
  facet normal -0.406737 0.913545 0
    outer loop
      vertex -50 -8.66025 0.0010004
      vertex -51.9098 -9.51056 5
      vertex -50 -8.66025 5
    endloop
  endfacet
  facet normal -0.406737 0.913545 0
    outer loop
      vertex -51.9098 -9.51056 5
      vertex -50 -8.66025 0.0010004
      vertex -51.9098 -9.51056 0.0010004
    endloop
  endfacet
  facet normal 0.207911 0.978148 -0
    outer loop
      vertex -56.0453 -9.94522 0.0010004
      vertex -58.0902 -9.51056 5
      vertex -56.0453 -9.94522 5
    endloop
  endfacet
  facet normal 0.207911 0.978148 0
    outer loop
      vertex -58.0902 -9.51056 5
      vertex -56.0453 -9.94522 0.0010004
      vertex -58.0902 -9.51056 0.0010004
    endloop
  endfacet
  facet normal 0.743145 0.669131 0
    outer loop
      vertex -61.6913 -7.43145 5
      vertex -63.0902 -5.87785 0.0010004
      vertex -63.0902 -5.87785 5
    endloop
  endfacet
  facet normal 0.743145 0.669131 0
    outer loop
      vertex -63.0902 -5.87785 0.0010004
      vertex -61.6913 -7.43145 5
      vertex -61.6913 -7.43145 0.0010004
    endloop
  endfacet
  facet normal 0.951056 0.309019 0
    outer loop
      vertex -64.1355 -4.06737 5
      vertex -64.7815 -2.07912 0.0010004
      vertex -64.7815 -2.07912 5
    endloop
  endfacet
  facet normal 0.951056 0.309019 0
    outer loop
      vertex -64.7815 -2.07912 0.0010004
      vertex -64.1355 -4.06737 5
      vertex -64.1355 -4.06737 0.0010004
    endloop
  endfacet
  facet normal -0.743145 0.669131 0
    outer loop
      vertex -48.3087 -7.43145 0.0010004
      vertex -46.9098 -5.87785 5
      vertex -46.9098 -5.87785 0.0010004
    endloop
  endfacet
  facet normal -0.743145 0.669131 0
    outer loop
      vertex -46.9098 -5.87785 5
      vertex -48.3087 -7.43145 0.0010004
      vertex -48.3087 -7.43145 5
    endloop
  endfacet
  facet normal 0.406737 0.913545 -0
    outer loop
      vertex -58.0902 -9.51056 0.0010004
      vertex -60 -8.66025 5
      vertex -58.0902 -9.51056 5
    endloop
  endfacet
  facet normal 0.406737 0.913545 0
    outer loop
      vertex -60 -8.66025 5
      vertex -58.0902 -9.51056 0.0010004
      vertex -60 -8.66025 0.0010004
    endloop
  endfacet
  facet normal 0.587785 0.809017 -0
    outer loop
      vertex -60 -8.66025 0.0010004
      vertex -61.6913 -7.43145 5
      vertex -60 -8.66025 5
    endloop
  endfacet
  facet normal 0.587785 0.809017 0
    outer loop
      vertex -61.6913 -7.43145 5
      vertex -60 -8.66025 0.0010004
      vertex -61.6913 -7.43145 0.0010004
    endloop
  endfacet
endsolid OpenSCAD_Model
