solid OpenSCAD_Model
  facet normal 0 0 -1
    outer loop
      vertex 40 -0.5 0
      vertex 3 3 0
      vertex 40 0.5 0
    endloop
  endfacet
  facet normal -0 0 -1
    outer loop
      vertex 40 -0.5 0
      vertex 3 -3 0
      vertex 3 3 0
    endloop
  endfacet
  facet normal 0 0 -1
    outer loop
      vertex 0 3 0
      vertex 3 -3 0
      vertex 0 -3 0
    endloop
  endfacet
  facet normal -0 -0 -1
    outer loop
      vertex 3 3 0
      vertex 3 -3 0
      vertex 0 3 0
    endloop
  endfacet
  facet normal 0 -0 -1
    outer loop
      vertex 3 3.5 0
      vertex 3 3 0
      vertex 0 3 0
    endloop
  endfacet
  facet normal -0 -0 -1
    outer loop
      vertex 3 -3 0
      vertex 3 -3.5 0
      vertex 0 -3 0
    endloop
  endfacet
  facet normal 0 0 1
    outer loop
      vertex 40 0.5 20
      vertex 3 3 20
      vertex 40 -0.5 20
    endloop
  endfacet
  facet normal 0 0 1
    outer loop
      vertex 3 3 20
      vertex 3 -3 20
      vertex 40 -0.5 20
    endloop
  endfacet
  facet normal 0 0 1
    outer loop
      vertex 0 -3 20
      vertex 3 -3 20
      vertex 0 3 20
    endloop
  endfacet
  facet normal -0 0 1
    outer loop
      vertex 0 3 20
      vertex 3 -3 20
      vertex 3 3 20
    endloop
  endfacet
  facet normal 0 0 1
    outer loop
      vertex 0 3 20
      vertex 3 3 20
      vertex 3 3.5 20
    endloop
  endfacet
  facet normal -0 0 1
    outer loop
      vertex 0 -3 20
      vertex 3 -3.5 20
      vertex 3 -3 20
    endloop
  endfacet
  facet normal 0.0674139 -0.997725 0
    outer loop
      vertex 40 -0.5 0
      vertex 3 -3 20
      vertex 3 -3 0
    endloop
  endfacet
  facet normal 0.0674139 -0.997725 0
    outer loop
      vertex 40 -0.5 0
      vertex 40 -0.5 20
      vertex 3 -3 20
    endloop
  endfacet
  facet normal 1 0 0
    outer loop
      vertex 40 0.5 0
      vertex 40 -0.5 20
      vertex 40 -0.5 0
    endloop
  endfacet
  facet normal 1 0 -0
    outer loop
      vertex 40 0.5 0
      vertex 40 0.5 20
      vertex 40 -0.5 20
    endloop
  endfacet
  facet normal 0.0674139 0.997725 0
    outer loop
      vertex 3 3 0
      vertex 40 0.5 20
      vertex 40 0.5 0
    endloop
  endfacet
  facet normal 0.0674139 0.997725 -0
    outer loop
      vertex 3 3 0
      vertex 3 3 20
      vertex 40 0.5 20
    endloop
  endfacet
  facet normal 1 0 0
    outer loop
      vertex 3 3.5 0
      vertex 3 3 20
      vertex 3 3 0
    endloop
  endfacet
  facet normal 1 0 -0
    outer loop
      vertex 3 3.5 0
      vertex 3 3.5 20
      vertex 3 3 20
    endloop
  endfacet
  facet normal -0.164399 0.986394 0
    outer loop
      vertex 0 3 0
      vertex 3 3.5 20
      vertex 3 3.5 0
    endloop
  endfacet
  facet normal -0.164399 0.986394 0
    outer loop
      vertex 0 3 0
      vertex 0 3 20
      vertex 3 3.5 20
    endloop
  endfacet
  facet normal -1 0 0
    outer loop
      vertex 0 -3 0
      vertex 0 3 20
      vertex 0 3 0
    endloop
  endfacet
  facet normal -1 0 0
    outer loop
      vertex 0 -3 0
      vertex 0 -3 20
      vertex 0 3 20
    endloop
  endfacet
  facet normal -0.164399 -0.986394 0
    outer loop
      vertex 3 -3.5 0
      vertex 0 -3 20
      vertex 0 -3 0
    endloop
  endfacet
  facet normal -0.164399 -0.986394 0
    outer loop
      vertex 3 -3.5 0
      vertex 3 -3.5 20
      vertex 0 -3 20
    endloop
  endfacet
  facet normal 1 0 0
    outer loop
      vertex 3 -3 0
      vertex 3 -3.5 20
      vertex 3 -3.5 0
    endloop
  endfacet
  facet normal 1 0 -0
    outer loop
      vertex 3 -3 0
      vertex 3 -3 20
      vertex 3 -3.5 20
    endloop
  endfacet
endsolid OpenSCAD_Model
