  0
SECTION
  2
HEADER
  9
$ACADVER
  1
AC1014
  9
$HANDSEED
  5
FFFF
  9
$MEASUREMENT
 70
     1
  0
ENDSEC
  0
SECTION
  2
TABLES
  0
TABLE
  2
VPORT
  5
8
330
0
100
AcDbSymbolTable
 70
     4
  0
VPORT
  5
2E
330
8
100
AcDbSymbolTableRecord
100
AcDbViewportTableRecord
  2
*ACTIVE
 70
     0
 10
0.0
 20
0.0
 11
1.0
 21
1.0
 12
210.0
 22
148.5
 13
0.0
 23
0.0
 14
10.0
 24
10.0
 15
10.0
 25
10.0
 16
0.0
 26
0.0
 36
1.0
 17
0.0
 27
0.0
 37
0.0
 40
341.0
 41
1.24
 42
50.0
 43
0.0
 44
0.0
 50
0.0
 51
0.0
 71
     0
 72
   100
 73
     1
 74
     3
 75
     0
 76
     0
 77
     0
 78
     0
  0
ENDTAB
  0
TABLE
  2
LTYPE
  5
5
330
0
100
AcDbSymbolTable
 70
     1
  0
LTYPE
  5
14
330
5
100
AcDbSymbolTableRecord
100
AcDbLinetypeTableRecord
  2
BYBLOCK
 70
     0
  3

 72
    65
 73
     0
 40
0.0
  0
LTYPE
  5
15
330
5
100
AcDbSymbolTableRecord
100
AcDbLinetypeTableRecord
  2
BYLAYER
 70
     0
  3

 72
    65
 73
     0
 40
0.0
  0
LTYPE
  5
16
330
5
100
AcDbSymbolTableRecord
100
AcDbLinetypeTableRecord
  2
CONTINUOUS
 70
     0
  3
Solid line
 72
    65
 73
     0
 40
0.0
  0
ENDTAB
  0
TABLE
  2
LAYER
  5
2
100
AcDbSymbolTable
 70
2
  0
LAYER
  5
50
100
AcDbSymbolTableRecord
100
AcDbLayerTableRecord
  2
0
 70
0
  6
CONTINUOUS
  0
LAYER
  5
51
100
AcDbSymbolTableRecord
100
AcDbLayerTableRecord
  2
Layer_1
 70
0
  6
CONTINUOUS
  0
ENDTAB
  0
TABLE
  2
STYLE
  5
3
330
0
100
AcDbSymbolTable
 70
     1
  0
STYLE
  5
11
330
3
100
AcDbSymbolTableRecord
100
AcDbTextStyleTableRecord
  2
STANDARD
 70
     0
 40
0.0
 41
1.0
 50
0.0
 71
     0
 42
2.5
  3
txt
  4

  0
ENDTAB
  0
TABLE
  2
VIEW
  5
6
330
0
100
AcDbSymbolTable
 70
     0
  0
ENDTAB
  0
TABLE
  2
UCS
  5
7
330
0
100
AcDbSymbolTable
 70
     0
  0
ENDTAB
  0
TABLE
  2
APPID
  5
9
330
0
100
AcDbSymbolTable
 70
     2
  0
APPID
  5
12
330
9
100
AcDbSymbolTableRecord
100
AcDbRegAppTableRecord
  2
ACAD
 70
     0
  0
ENDTAB
  0
TABLE
  2
DIMSTYLE
  5
A
330
0
100
AcDbSymbolTable
 70
     1
  0
DIMSTYLE
105
27
330
A
100
AcDbSymbolTableRecord
100
AcDbDimStyleTableRecord
  2
ISO-25
 70
     0
  3

  4

  5

  6

  7

 40
1.0
 41
2.5
 42
0.625
 43
3.75
 44
1.25
 45
0.0
 46
0.0
 47
0.0
 48
0.0
140
2.5
141
2.5
142
0.0
143
0.03937007874016
144
1.0
145
0.0
146
1.0
147
0.625
 71
     0
 72
     0
 73
     0
 74
     0
 75
     0
 76
     0
 77
     1
 78
     8
170
     0
171
     3
172
     1
173
     0
174
     0
175
     0
176
     0
177
     0
178
     0
270
     2
271
     2
272
     2
273
     2
274
     3
340
11
275
     0
280
     0
281
     0
282
     0
283
     0
284
     8
285
     0
286
     0
287
     3
288
     0
  0
ENDTAB
  0
TABLE
  2
BLOCK_RECORD
  5
1
330
0
100
AcDbSymbolTable
 70
     1
  0
BLOCK_RECORD
  5
1F
330
1
100
AcDbSymbolTableRecord
100
AcDbBlockTableRecord
  2
*MODEL_SPACE
  0
BLOCK_RECORD
  5
1B
330
1
100
AcDbSymbolTableRecord
100
AcDbBlockTableRecord
  2
*PAPER_SPACE
  0
ENDTAB
  0
ENDSEC
  0
SECTION
  2
BLOCKS
  0
BLOCK
  5
20
330
1F
100
AcDbEntity
  8
0
100
AcDbBlockBegin
  2
*MODEL_SPACE
 70
     0
 10
0.0
 20
0.0
 30
0.0
  3
*MODEL_SPACE
  1

  0
ENDBLK
  5
21
330
1F
100
AcDbEntity
  8
0
100
AcDbBlockEnd
  0
BLOCK
  5
1C
330
1B
100
AcDbEntity
 67
     1
  8
0
100
AcDbBlockBegin
  2
*PAPER_SPACE
  1

  0
ENDBLK
  5
1D
330
1B
100
AcDbEntity
 67
     1
  8
0
100
AcDbBlockEnd
  0
ENDSEC
  0
SECTION
  2
ENTITIES
  0
LWPOLYLINE
  5
100
100
AcDbEntity
  8
Layer_1
 62
7
100
AcDbPolyline
 90
481
 70
0
 10
87.272024
 20
127.220646
 30
0.0
 10
88.519229
 20
128.121715
 30
0.0
 10
89.706551
 20
129.074517
 30
0.0
 10
90.833472
 20
130.076442
 30
0.0
 10
91.899509
 20
131.124878
 30
0.0
 10
92.904194
 20
132.217217
 30
0.0
 10
93.847027
 20
133.350849
 30
0.0
 10
94.727507
 20
134.523163
 30
0.0
 10
95.545167
 20
135.731549
 30
0.0
 10
96.299523
 20
136.973400
 30
0.0
 10
96.990075
 20
138.246103
 30
0.0
 10
97.616338
 20
139.547050
 30
0.0
 10
98.177812
 20
140.873630
 30
0.0
 10
98.674029
 20
142.223234
 30
0.0
 10
99.104508
 20
143.593250
 30
0.0
 10
99.468728
 20
144.981071
 30
0.0
 10
99.766241
 20
146.384085
 30
0.0
 10
99.996528
 20
147.799682
 30
0.0
 10
100.159107
 20
149.225253
 30
0.0
 10
100.253509
 20
150.658190
 30
0.0
 10
100.279218
 20
152.095879
 30
0.0
 10
100.235783
 20
153.535714
 30
0.0
 10
100.122686
 20
154.975083
 30
0.0
 10
99.939462
 20
156.411375
 30
0.0
 10
99.685591
 20
157.841977
 30
0.0
 10
99.360625
 20
159.264304
 30
0.0
 10
98.964044
 20
160.675711
 30
0.0
 10
98.495383
 20
162.073591
 30
0.0
 10
97.954141
 20
163.455368
 30
0.0
 10
97.339834
 20
164.818399
 30
0.0
 10
96.651977
 20
166.160076
 30
0.0
 10
95.890088
 20
167.477806
 30
0.0
 10
95.053665
 20
168.768982
 30
0.0
 10
94.282568
 20
168.241699
 30
0.0
 10
93.511470
 20
167.714417
 30
0.0
 10
92.740355
 20
167.187135
 30
0.0
 10
91.969257
 20
166.659853
 30
0.0
 10
91.198159
 20
166.132570
 30
0.0
 10
90.427061
 20
165.605288
 30
0.0
 10
89.655946
 20
165.078006
 30
0.0
 10
88.884848
 20
164.550724
 30
0.0
 10
88.113751
 20
164.023424
 30
0.0
 10
87.342653
 20
163.496142
 30
0.0
 10
86.571538
 20
162.968860
 30
0.0
 10
85.800440
 20
162.441577
 30
0.0
 10
85.029342
 20
161.914295
 30
0.0
 10
84.258244
 20
161.387013
 30
0.0
 10
83.487129
 20
160.859731
 30
0.0
 10
82.716031
 20
160.332448
 30
0.0
 10
81.944933
 20
159.805166
 30
0.0
 10
81.173836
 20
159.277884
 30
0.0
 10
80.402720
 20
158.750601
 30
0.0
 10
79.631623
 20
158.223319
 30
0.0
 10
78.860525
 20
157.696037
 30
0.0
 10
78.089427
 20
157.168755
 30
0.0
 10
77.318312
 20
156.641472
 30
0.0
 10
76.547214
 20
156.114182
 30
0.0
 10
75.776116
 20
155.586898
 30
0.0
 10
75.005018
 20
155.059615
 30
0.0
 10
74.233903
 20
154.532331
 30
0.0
 10
73.462806
 20
154.005047
 30
0.0
 10
72.691708
 20
153.477765
 30
0.0
 10
71.920610
 20
152.950481
 30
0.0
 10
71.149495
 20
152.423199
 30
0.0
 10
70.378397
 20
151.895915
 30
0.0
 10
70.378345
 20
151.895915
 30
0.0
 10
70.378293
 20
151.895915
 30
0.0
 10
70.378241
 20
151.895915
 30
0.0
 10
70.378190
 20
151.895915
 30
0.0
 10
70.378121
 20
151.895915
 30
0.0
 10
70.378069
 20
151.895915
 30
0.0
 10
70.378017
 20
151.895915
 30
0.0
 10
70.377965
 20
151.895915
 30
0.0
 10
70.377913
 20
151.895915
 30
0.0
 10
70.377861
 20
151.895915
 30
0.0
 10
70.377810
 20
151.895915
 30
0.0
 10
70.377758
 20
151.895915
 30
0.0
 10
70.377689
 20
151.895915
 30
0.0
 10
70.377637
 20
151.895915
 30
0.0
 10
70.377585
 20
151.895915
 30
0.0
 10
70.377533
 20
151.895915
 30
0.0
 10
70.377481
 20
151.895915
 30
0.0
 10
70.377429
 20
151.895915
 30
0.0
 10
70.377378
 20
151.895915
 30
0.0
 10
70.377326
 20
151.895915
 30
0.0
 10
70.377257
 20
151.895915
 30
0.0
 10
70.377205
 20
151.895915
 30
0.0
 10
70.377153
 20
151.895915
 30
0.0
 10
70.377101
 20
151.895915
 30
0.0
 10
70.377049
 20
151.895915
 30
0.0
 10
70.376998
 20
151.895915
 30
0.0
 10
70.376946
 20
151.895915
 30
0.0
 10
70.376894
 20
151.895915
 30
0.0
 10
70.376825
 20
151.895915
 30
0.0
 10
70.376773
 20
151.895915
 30
0.0
 10
70.376721
 20
151.895915
 30
0.0
 10
70.376669
 20
151.895915
 30
0.0
 10
69.731868
 20
151.477781
 30
0.0
 10
69.073728
 20
151.096871
 30
0.0
 10
68.403563
 20
150.752945
 30
0.0
 10
67.722653
 20
150.445765
 30
0.0
 10
67.032326
 20
150.175089
 30
0.0
 10
66.333878
 20
149.940677
 30
0.0
 10
65.628624
 20
149.742290
 30
0.0
 10
64.917858
 20
149.579688
 30
0.0
 10
64.202911
 20
149.452630
 30
0.0
 10
63.485044
 20
149.360876
 30
0.0
 10
62.765605
 20
149.304188
 30
0.0
 10
62.045889
 20
149.282323
 30
0.0
 10
61.327193
 20
149.295039
 30
0.0
 10
60.610847
 20
149.342104
 30
0.0
 10
59.898111
 20
149.423274
 30
0.0
 10
59.190352
 20
149.538309
 30
0.0
 10
58.488812
 20
149.686969
 30
0.0
 10
57.794857
 20
149.869011
 30
0.0
 10
57.109747
 20
150.084200
 30
0.0
 10
56.434814
 20
150.332294
 30
0.0
 10
55.771353
 20
150.613053
 30
0.0
 10
55.120677
 20
150.926237
 30
0.0
 10
54.484082
 20
151.271604
 30
0.0
 10
53.862899
 20
151.648917
 30
0.0
 10
53.258405
 20
152.057933
 30
0.0
 10
52.671914
 20
152.498415
 30
0.0
 10
52.104756
 20
152.970124
 30
0.0
 10
51.558192
 20
153.472815
 30
0.0
 10
51.033570
 20
154.006252
 30
0.0
 10
50.532187
 20
154.570193
 30
0.0
 10
50.055319
 20
155.164400
 30
0.0
 10
49.604316
 20
155.788631
 30
0.0
 10
49.185880
 20
156.434198
 30
0.0
 10
48.804745
 20
157.093024
 30
0.0
 10
48.460670
 20
157.763827
 30
0.0
 10
48.153395
 20
158.445274
 30
0.0
 10
47.882697
 20
159.136067
 30
0.0
 10
47.648314
 20
159.834929
 30
0.0
 10
47.449990
 20
160.540529
 30
0.0
 10
47.287498
 20
161.251572
 30
0.0
 10
47.160580
 20
161.966761
 30
0.0
 10
47.069011
 20
162.684766
 30
0.0
 10
47.012514
 20
163.404326
 30
0.0
 10
46.990849
 20
164.124110
 30
0.0
 10
47.003806
 20
164.842824
 30
0.0
 10
47.051094
 20
165.559170
 30
0.0
 10
47.132487
 20
166.271819
 30
0.0
 10
47.247726
 20
166.979493
 30
0.0
 10
47.396586
 20
167.680877
 30
0.0
 10
47.578791
 20
168.374677
 30
0.0
 10
47.794134
 20
169.059579
 30
0.0
 10
48.042338
 20
169.734287
 30
0.0
 10
48.323161
 20
170.397489
 30
0.0
 10
48.636379
 20
171.047888
 30
0.0
 10
48.981715
 20
171.684190
 30
0.0
 10
49.358945
 20
172.305080
 30
0.0
 10
49.767810
 20
172.909245
 30
0.0
 10
50.208067
 20
173.495408
 30
0.0
 10
50.679492
 20
174.062238
 30
0.0
 10
51.181809
 20
174.608456
 30
0.0
 10
51.714775
 20
175.132732
 30
0.0
 10
52.278149
 20
175.633787
 30
0.0
 10
52.871690
 20
176.110309
 30
0.0
 10
53.495154
 20
176.560985
 30
0.0
 10
53.495154
 20
176.560985
 30
0.0
 10
53.495154
 20
176.560985
 30
0.0
 10
53.495154
 20
176.560985
 30
0.0
 10
53.495154
 20
176.560985
 30
0.0
 10
53.495154
 20
176.560985
 30
0.0
 10
53.495154
 20
176.560985
 30
0.0
 10
53.495154
 20
176.560985
 30
0.0
 10
53.495154
 20
176.560985
 30
0.0
 10
53.495154
 20
176.560985
 30
0.0
 10
53.495154
 20
176.560985
 30
0.0
 10
53.495154
 20
176.560985
 30
0.0
 10
53.495154
 20
176.560985
 30
0.0
 10
53.495154
 20
176.560985
 30
0.0
 10
53.495154
 20
176.560985
 30
0.0
 10
53.495154
 20
176.560985
 30
0.0
 10
53.495154
 20
176.560985
 30
0.0
 10
53.495154
 20
176.560985
 30
0.0
 10
53.495154
 20
176.560985
 30
0.0
 10
53.495154
 20
176.560985
 30
0.0
 10
53.495154
 20
176.560985
 30
0.0
 10
53.495154
 20
176.560985
 30
0.0
 10
53.495154
 20
176.560985
 30
0.0
 10
53.495154
 20
176.560985
 30
0.0
 10
53.495154
 20
176.560985
 30
0.0
 10
53.495154
 20
176.560985
 30
0.0
 10
53.495154
 20
176.560985
 30
0.0
 10
53.495154
 20
176.560985
 30
0.0
 10
53.495154
 20
176.560985
 30
0.0
 10
53.495154
 20
176.560985
 30
0.0
 10
53.495154
 20
176.560985
 30
0.0
 10
53.495154
 20
176.560985
 30
0.0
 10
53.495154
 20
176.560985
 30
0.0
 10
54.198180
 20
177.042206
 30
0.0
 10
54.901188
 20
177.523427
 30
0.0
 10
55.604214
 20
178.004649
 30
0.0
 10
56.307240
 20
178.485870
 30
0.0
 10
57.010248
 20
178.967108
 30
0.0
 10
57.713274
 20
179.448330
 30
0.0
 10
58.416282
 20
179.929551
 30
0.0
 10
59.119308
 20
180.410772
 30
0.0
 10
59.822334
 20
180.891994
 30
0.0
 10
60.525342
 20
181.373215
 30
0.0
 10
61.228368
 20
181.854436
 30
0.0
 10
61.931394
 20
182.335675
 30
0.0
 10
62.634402
 20
182.816896
 30
0.0
 10
63.337428
 20
183.298117
 30
0.0
 10
64.040436
 20
183.779339
 30
0.0
 10
64.743462
 20
184.260560
 30
0.0
 10
65.446488
 20
184.741781
 30
0.0
 10
66.149496
 20
185.223002
 30
0.0
 10
66.852522
 20
185.704224
 30
0.0
 10
67.555548
 20
186.185462
 30
0.0
 10
68.258556
 20
186.666684
 30
0.0
 10
68.961582
 20
187.147905
 30
0.0
 10
69.664590
 20
187.629126
 30
0.0
 10
70.367616
 20
188.110348
 30
0.0
 10
71.070642
 20
188.591569
 30
0.0
 10
71.773650
 20
189.072790
 30
0.0
 10
72.476676
 20
189.554011
 30
0.0
 10
73.179702
 20
190.035250
 30
0.0
 10
73.882710
 20
190.516471
 30
0.0
 10
74.585736
 20
190.997693
 30
0.0
 10
75.288744
 20
191.478914
 30
0.0
 10
75.991770
 20
191.960135
 30
0.0
 10
76.444052
 20
192.269932
 30
0.0
 10
76.896334
 20
192.579747
 30
0.0
 10
77.348616
 20
192.889544
 30
0.0
 10
77.800915
 20
193.199341
 30
0.0
 10
78.253197
 20
193.509138
 30
0.0
 10
78.705479
 20
193.818952
 30
0.0
 10
79.157761
 20
194.128750
 30
0.0
 10
79.610043
 20
194.438547
 30
0.0
 10
80.062325
 20
194.748344
 30
0.0
 10
80.514607
 20
195.058158
 30
0.0
 10
80.966890
 20
195.367955
 30
0.0
 10
81.419189
 20
195.677752
 30
0.0
 10
81.871471
 20
195.987549
 30
0.0
 10
82.323753
 20
196.297364
 30
0.0
 10
82.776035
 20
196.607161
 30
0.0
 10
83.228317
 20
196.916958
 30
0.0
 10
83.680599
 20
197.226755
 30
0.0
 10
84.132881
 20
197.536570
 30
0.0
 10
84.585163
 20
197.846367
 30
0.0
 10
85.037462
 20
198.156164
 30
0.0
 10
85.489744
 20
198.465961
 30
0.0
 10
85.942026
 20
198.775775
 30
0.0
 10
86.394308
 20
199.085572
 30
0.0
 10
86.846590
 20
199.395370
 30
0.0
 10
87.298872
 20
199.705167
 30
0.0
 10
87.751154
 20
200.014981
 30
0.0
 10
88.203436
 20
200.324778
 30
0.0
 10
88.655736
 20
200.634575
 30
0.0
 10
89.108018
 20
200.944372
 30
0.0
 10
89.560300
 20
201.254187
 30
0.0
 10
90.012582
 20
201.563984
 30
0.0
 10
90.464864
 20
201.873781
 30
0.0
 10
91.712242
 20
202.775011
 30
0.0
 10
92.899702
 20
203.727933
 30
0.0
 10
94.026796
 20
204.729975
 30
0.0
 10
95.092988
 20
205.778510
 30
0.0
 10
96.097829
 20
206.870929
 30
0.0
 10
97.040818
 20
208.004623
 30
0.0
 10
97.921453
 20
209.176983
 30
0.0
 10
98.739251
 20
210.385418
 30
0.0
 10
99.493745
 20
211.627285
 30
0.0
 10
100.184435
 20
212.899991
 30
0.0
 10
100.810819
 20
214.200945
 30
0.0
 10
101.372414
 20
215.527522
 30
0.0
 10
101.868753
 20
216.877094
 30
0.0
 10
102.299317
 20
218.247088
 30
0.0
 10
102.663641
 20
219.634878
 30
0.0
 10
102.961241
 20
221.037854
 30
0.0
 10
103.191597
 20
222.453390
 30
0.0
 10
103.354245
 20
223.878913
 30
0.0
 10
103.448699
 20
225.311796
 30
0.0
 10
103.474459
 20
226.749430
 30
0.0
 10
103.431042
 20
228.189207
 30
0.0
 10
103.317963
 20
229.628517
 30
0.0
 10
103.134738
 20
231.064734
 30
0.0
 10
102.880867
 20
232.495285
 30
0.0
 10
102.555866
 20
233.917542
 30
0.0
 10
102.159251
 20
235.328898
 30
0.0
 10
101.690521
 20
236.726725
 30
0.0
 10
101.149210
 20
238.108450
 30
0.0
 10
100.534799
 20
239.471447
 30
0.0
 10
99.846839
 20
240.813089
 30
0.0
 10
99.084812
 20
242.130803
 30
0.0
 10
98.248233
 20
243.421944
 30
0.0
 10
97.477464
 20
242.894350
 30
0.0
 10
96.706677
 20
242.366740
 30
0.0
 10
95.935907
 20
241.839146
 30
0.0
 10
95.165121
 20
241.311536
 30
0.0
 10
94.394351
 20
240.783943
 30
0.0
 10
93.623564
 20
240.256332
 30
0.0
 10
92.852795
 20
239.728739
 30
0.0
 10
92.082008
 20
239.201128
 30
0.0
 10
91.311238
 20
238.673535
 30
0.0
 10
90.540451
 20
238.145925
 30
0.0
 10
89.769682
 20
237.618331
 30
0.0
 10
88.998895
 20
237.090721
 30
0.0
 10
88.228125
 20
236.563128
 30
0.0
 10
87.457339
 20
236.035517
 30
0.0
 10
86.686569
 20
235.507924
 30
0.0
 10
85.915782
 20
234.980313
 30
0.0
 10
85.145013
 20
234.452720
 30
0.0
 10
84.374226
 20
233.925110
 30
0.0
 10
83.603456
 20
233.397516
 30
0.0
 10
82.832669
 20
232.869906
 30
0.0
 10
82.061900
 20
232.342313
 30
0.0
 10
81.291113
 20
231.814702
 30
0.0
 10
80.520344
 20
231.287109
 30
0.0
 10
79.749557
 20
230.759498
 30
0.0
 10
78.978787
 20
230.231905
 30
0.0
 10
78.208000
 20
229.704295
 30
0.0
 10
77.437231
 20
229.176701
 30
0.0
 10
76.666444
 20
228.649091
 30
0.0
 10
75.895674
 20
228.121498
 30
0.0
 10
75.124888
 20
227.593887
 30
0.0
 10
74.354118
 20
227.066294
 30
0.0
 10
73.583331
 20
226.538683
 30
0.0
 10
72.428628
 20
225.748149
 30
0.0
 10
71.273908
 20
224.957614
 30
0.0
 10
70.119205
 20
224.167062
 30
0.0
 10
68.964502
 20
223.376527
 30
0.0
 10
67.809781
 20
222.585993
 30
0.0
 10
66.655078
 20
221.795458
 30
0.0
 10
65.500358
 20
221.004906
 30
0.0
 10
64.345655
 20
220.214371
 30
0.0
 10
63.190952
 20
219.423837
 30
0.0
 10
62.036232
 20
218.633302
 30
0.0
 10
60.881528
 20
217.842750
 30
0.0
 10
59.726825
 20
217.052216
 30
0.0
 10
58.572105
 20
216.261681
 30
0.0
 10
57.417402
 20
215.471146
 30
0.0
 10
56.262682
 20
214.680594
 30
0.0
 10
55.107979
 20
213.890060
 30
0.0
 10
53.953276
 20
213.099525
 30
0.0
 10
52.798555
 20
212.308990
 30
0.0
 10
51.643852
 20
211.518439
 30
0.0
 10
50.489149
 20
210.727904
 30
0.0
 10
49.334429
 20
209.937369
 30
0.0
 10
48.179726
 20
209.146835
 30
0.0
 10
47.025006
 20
208.356283
 30
0.0
 10
45.870302
 20
207.565748
 30
0.0
 10
44.715599
 20
206.775213
 30
0.0
 10
43.560879
 20
205.984679
 30
0.0
 10
42.406176
 20
205.194127
 30
0.0
 10
41.251473
 20
204.403592
 30
0.0
 10
40.096753
 20
203.613057
 30
0.0
 10
38.942050
 20
202.822523
 30
0.0
 10
37.787329
 20
202.031971
 30
0.0
 10
36.632626
 20
201.241436
 30
0.0
 10
36.630899
 20
201.239709
 30
0.0
 10
36.629171
 20
201.237981
 30
0.0
 10
36.627443
 20
201.236253
 30
0.0
 10
36.625715
 20
201.234525
 30
0.0
 10
36.623988
 20
201.232798
 30
0.0
 10
36.622260
 20
201.231070
 30
0.0
 10
36.620532
 20
201.229342
 30
0.0
 10
36.618805
 20
201.227615
 30
0.0
 10
36.617077
 20
201.225887
 30
0.0
 10
36.615349
 20
201.224159
 30
0.0
 10
36.613621
 20
201.222431
 30
0.0
 10
36.611894
 20
201.220704
 30
0.0
 10
36.610166
 20
201.218976
 30
0.0
 10
36.608438
 20
201.217248
 30
0.0
 10
36.606710
 20
201.215520
 30
0.0
 10
36.604983
 20
201.215520
 30
0.0
 10
36.603255
 20
201.215520
 30
0.0
 10
36.601527
 20
201.215520
 30
0.0
 10
36.599800
 20
201.215520
 30
0.0
 10
36.598072
 20
201.215520
 30
0.0
 10
36.596344
 20
201.215520
 30
0.0
 10
36.594616
 20
201.215520
 30
0.0
 10
36.592889
 20
201.215520
 30
0.0
 10
36.591161
 20
201.215520
 30
0.0
 10
36.589433
 20
201.215520
 30
0.0
 10
36.587706
 20
201.215520
 30
0.0
 10
36.585978
 20
201.215520
 30
0.0
 10
36.584250
 20
201.213793
 30
0.0
 10
36.582522
 20
201.212065
 30
0.0
 10
36.580795
 20
201.210337
 30
0.0
 10
36.579067
 20
201.208610
 30
0.0
 10
36.577339
 20
201.206882
 30
0.0
 10
34.707136
 20
199.855720
 30
0.0
 10
32.926740
 20
198.426897
 30
0.0
 10
31.236894
 20
196.924301
 30
0.0
 10
29.638305
 20
195.351887
 30
0.0
 10
28.131718
 20
193.713544
 30
0.0
 10
26.717875
 20
192.013228
 30
0.0
 10
25.397518
 20
190.254808
 30
0.0
 10
24.171374
 20
188.442259
 30
0.0
 10
23.040185
 20
186.579468
 30
0.0
 10
22.004677
 20
184.670357
 30
0.0
 10
21.065576
 20
182.718848
 30
0.0
 10
20.223642
 20
180.728880
 30
0.0
 10
19.479600
 20
178.704340
 30
0.0
 10
18.834194
 20
176.649185
 30
0.0
 10
18.288131
 20
174.567302
 30
0.0
 10
17.842190
 20
172.462613
 30
0.0
 10
17.497061
 20
170.339075
 30
0.0
 10
17.253505
 20
168.200557
 30
0.0
 10
17.112264
 20
166.051017
 30
0.0
 10
17.074046
 20
163.894358
 30
0.0
 10
17.139613
 20
161.734521
 30
0.0
 10
17.309707
 20
159.575392
 30
0.0
 10
17.585019
 20
157.420910
 30
0.0
 10
17.966326
 20
155.274986
 30
0.0
 10
18.454355
 20
153.141553
 30
0.0
 10
19.049848
 20
151.024525
 30
0.0
 10
19.753512
 20
148.927820
 30
0.0
 10
20.566093
 20
146.855360
 30
0.0
 10
21.488349
 20
144.811065
 30
0.0
 10
22.521006
 20
142.798854
 30
0.0
 10
23.664772
 20
140.822649
 30
0.0
 10
24.920426
 20
138.886366
 30
0.0
 10
26.271415
 20
137.015213
 30
0.0
 10
27.700100
 20
135.233949
 30
0.0
 10
29.202523
 20
133.543308
 30
0.0
 10
30.774764
 20
131.944017
 30
0.0
 10
32.412934
 20
130.436804
 30
0.0
 10
34.113112
 20
129.022402
 30
0.0
 10
35.871342
 20
127.701538
 30
0.0
 10
37.683735
 20
126.474943
 30
0.0
 10
39.546354
 20
125.343344
 30
0.0
 10
41.455275
 20
124.307474
 30
0.0
 10
43.406594
 20
123.368062
 30
0.0
 10
45.396389
 20
122.525835
 30
0.0
 10
47.420739
 20
121.781526
 30
0.0
 10
49.475722
 20
121.135862
 30
0.0
 10
51.557397
 20
120.589573
 30
0.0
 10
53.661879
 20
120.143390
 30
0.0
 10
55.785227
 20
119.798042
 30
0.0
 10
57.923520
 20
119.554257
 30
0.0
 10
60.072853
 20
119.412766
 30
0.0
 10
62.229287
 20
119.374298
 30
0.0
 10
64.388900
 20
119.439583
 30
0.0
 10
66.547804
 20
119.609352
 30
0.0
 10
68.702044
 20
119.884332
 30
0.0
 10
70.847714
 20
120.265253
 30
0.0
 10
72.980876
 20
120.752846
 30
0.0
 10
75.097641
 20
121.347841
 30
0.0
 10
77.194072
 20
122.050963
 30
0.0
 10
79.266262
 20
122.862948
 30
0.0
 10
81.310256
 20
123.784523
 30
0.0
 10
83.322167
 20
124.816414
 30
0.0
 10
85.298071
 20
125.959357
 30
0.0
 10
87.234031
 20
127.214076
 30
0.0
 10
87.234031
 20
127.213730
 30
0.0
 10
87.234031
 20
127.213385
 30
0.0
 10
87.234031
 20
127.213039
 30
0.0
 10
87.234031
 20
127.212694
 30
0.0
 10
87.234031
 20
127.212348
 30
0.0
 10
87.234031
 20
127.212003
 30
0.0
 10
87.234031
 20
127.211657
 30
0.0
 10
87.234031
 20
127.211312
 30
0.0
 10
87.234031
 20
127.210966
 30
0.0
 10
87.234031
 20
127.210620
 30
0.0
 10
87.234031
 20
127.210275
 30
0.0
 10
87.234031
 20
127.209929
 30
0.0
 10
87.234031
 20
127.209584
 30
0.0
 10
87.234031
 20
127.209238
 30
0.0
 10
87.234031
 20
127.208893
 30
0.0
 10
87.234031
 20
127.208547
 30
0.0
 10
87.234031
 20
127.208202
 30
0.0
 10
87.234031
 20
127.207856
 30
0.0
 10
87.234031
 20
127.207511
 30
0.0
 10
87.234031
 20
127.207165
 30
0.0
 10
87.234031
 20
127.206819
 30
0.0
 10
87.234031
 20
127.206474
 30
0.0
 10
87.234031
 20
127.206128
 30
0.0
 10
87.234031
 20
127.205783
 30
0.0
 10
87.234031
 20
127.205437
 30
0.0
 10
87.234031
 20
127.205092
 30
0.0
 10
87.234031
 20
127.204746
 30
0.0
 10
87.234031
 20
127.204401
 30
0.0
 10
87.234031
 20
127.204055
 30
0.0
 10
87.234031
 20
127.203710
 30
0.0
 10
87.234031
 20
127.203364
 30
0.0
 10
87.234031
 20
127.203018
 30
0.0
  0
LWPOLYLINE
  5
101
100
AcDbEntity
  8
Layer_1
 62
7
100
AcDbPolyline
 90
577
 70
0
 10
119.706474
 20
185.669519
 30
0.0
 10
119.706474
 20
185.669364
 30
0.0
 10
119.706474
 20
185.669191
 30
0.0
 10
119.706474
 20
185.669035
 30
0.0
 10
119.706474
 20
185.668880
 30
0.0
 10
119.706474
 20
185.668707
 30
0.0
 10
119.706474
 20
185.668552
 30
0.0
 10
119.706474
 20
185.668379
 30
0.0
 10
119.706474
 20
185.668223
 30
0.0
 10
119.706474
 20
185.668068
 30
0.0
 10
119.706474
 20
185.667895
 30
0.0
 10
119.706474
 20
185.667740
 30
0.0
 10
119.706474
 20
185.667584
 30
0.0
 10
119.706474
 20
185.667411
 30
0.0
 10
119.706474
 20
185.667256
 30
0.0
 10
119.706474
 20
185.667083
 30
0.0
 10
119.706474
 20
185.666928
 30
0.0
 10
119.706474
 20
185.666772
 30
0.0
 10
119.706474
 20
185.666599
 30
0.0
 10
119.706474
 20
185.666444
 30
0.0
 10
119.706474
 20
185.666288
 30
0.0
 10
119.706474
 20
185.666115
 30
0.0
 10
119.706474
 20
185.665960
 30
0.0
 10
119.706474
 20
185.665787
 30
0.0
 10
119.706474
 20
185.665632
 30
0.0
 10
119.706474
 20
185.665476
 30
0.0
 10
119.706474
 20
185.665303
 30
0.0
 10
119.706474
 20
185.665148
 30
0.0
 10
119.706474
 20
185.664992
 30
0.0
 10
119.706474
 20
185.664992
 30
0.0
 10
119.706474
 20
185.664837
 30
0.0
 10
119.706474
 20
185.664664
 30
0.0
 10
119.706474
 20
185.664509
 30
0.0
 10
119.706474
 20
185.664509
 30
0.0
 10
119.706474
 20
185.664509
 30
0.0
 10
119.706474
 20
185.664509
 30
0.0
 10
119.706474
 20
185.664509
 30
0.0
 10
119.706474
 20
185.664509
 30
0.0
 10
119.706474
 20
185.664509
 30
0.0
 10
119.706474
 20
185.664509
 30
0.0
 10
119.706474
 20
185.664509
 30
0.0
 10
119.706474
 20
185.664509
 30
0.0
 10
119.706474
 20
185.664509
 30
0.0
 10
119.706474
 20
185.664509
 30
0.0
 10
119.706474
 20
185.664509
 30
0.0
 10
119.706474
 20
185.664509
 30
0.0
 10
119.706474
 20
185.664509
 30
0.0
 10
119.706474
 20
185.664509
 30
0.0
 10
119.706474
 20
185.664509
 30
0.0
 10
119.706474
 20
185.664509
 30
0.0
 10
119.706474
 20
185.664509
 30
0.0
 10
119.706474
 20
185.664509
 30
0.0
 10
119.706474
 20
185.664509
 30
0.0
 10
119.706474
 20
185.664509
 30
0.0
 10
119.706474
 20
185.664509
 30
0.0
 10
119.706474
 20
185.664509
 30
0.0
 10
119.706474
 20
185.664509
 30
0.0
 10
119.706474
 20
185.664509
 30
0.0
 10
119.706474
 20
185.664509
 30
0.0
 10
119.706474
 20
185.664509
 30
0.0
 10
119.706474
 20
185.664509
 30
0.0
 10
119.706474
 20
185.664509
 30
0.0
 10
119.706474
 20
185.664509
 30
0.0
 10
119.706474
 20
185.664509
 30
0.0
 10
119.706474
 20
185.664509
 30
0.0
 10
119.701636
 20
185.660881
 30
0.0
 10
119.696798
 20
185.657252
 30
0.0
 10
119.691961
 20
185.653624
 30
0.0
 10
119.687123
 20
185.649996
 30
0.0
 10
119.682286
 20
185.646195
 30
0.0
 10
119.677448
 20
185.642394
 30
0.0
 10
119.672610
 20
185.638593
 30
0.0
 10
119.667773
 20
185.634792
 30
0.0
 10
119.662935
 20
185.630991
 30
0.0
 10
119.658097
 20
185.627190
 30
0.0
 10
119.653260
 20
185.623389
 30
0.0
 10
119.648422
 20
185.619415
 30
0.0
 10
119.643585
 20
185.615442
 30
0.0
 10
119.638747
 20
185.611468
 30
0.0
 10
119.633909
 20
185.607494
 30
0.0
 10
119.629072
 20
185.603520
 30
0.0
 10
119.624234
 20
185.599547
 30
0.0
 10
119.619397
 20
185.595573
 30
0.0
 10
119.614559
 20
185.591599
 30
0.0
 10
119.609721
 20
185.587625
 30
0.0
 10
119.604884
 20
185.583652
 30
0.0
 10
119.600046
 20
185.579678
 30
0.0
 10
119.595209
 20
185.575704
 30
0.0
 10
119.590371
 20
185.571730
 30
0.0
 10
119.585533
 20
185.567757
 30
0.0
 10
119.580696
 20
185.563956
 30
0.0
 10
119.575858
 20
185.560155
 30
0.0
 10
119.571020
 20
185.556354
 30
0.0
 10
119.566183
 20
185.552553
 30
0.0
 10
119.561345
 20
185.548752
 30
0.0
 10
119.556508
 20
185.544951
 30
0.0
 10
119.551670
 20
185.541150
 30
0.0
 10
119.557372
 20
185.545123
 30
0.0
 10
119.563073
 20
185.549270
 30
0.0
 10
119.568774
 20
185.553244
 30
0.0
 10
119.574476
 20
185.557390
 30
0.0
 10
119.580177
 20
185.561364
 30
0.0
 10
119.585879
 20
185.565338
 30
0.0
 10
119.591580
 20
185.569484
 30
0.0
 10
119.597282
 20
185.573458
 30
0.0
 10
119.602983
 20
185.577432
 30
0.0
 10
119.608685
 20
185.581578
 30
0.0
 10
119.614386
 20
185.585552
 30
0.0
 10
119.620088
 20
185.589699
 30
0.0
 10
119.625789
 20
185.593672
 30
0.0
 10
119.631491
 20
185.597646
 30
0.0
 10
119.637192
 20
185.601793
 30
0.0
 10
119.642894
 20
185.605766
 30
0.0
 10
119.648595
 20
185.609740
 30
0.0
 10
119.654297
 20
185.613887
 30
0.0
 10
119.659998
 20
185.617860
 30
0.0
 10
119.665699
 20
185.622007
 30
0.0
 10
119.671401
 20
185.625981
 30
0.0
 10
119.677102
 20
185.629954
 30
0.0
 10
119.682804
 20
185.634101
 30
0.0
 10
119.688505
 20
185.638075
 30
0.0
 10
119.694207
 20
185.642048
 30
0.0
 10
119.699908
 20
185.646195
 30
0.0
 10
119.705610
 20
185.650169
 30
0.0
 10
119.711311
 20
185.654315
 30
0.0
 10
119.717013
 20
185.658289
 30
0.0
 10
119.722714
 20
185.662263
 30
0.0
 10
119.728416
 20
185.666409
 30
0.0
 10
119.734117
 20
185.670383
 30
0.0
 10
118.486739
 20
184.769153
 30
0.0
 10
117.299279
 20
183.816213
 30
0.0
 10
116.172202
 20
182.814154
 30
0.0
 10
115.105992
 20
181.765585
 30
0.0
 10
114.101169
 20
180.673131
 30
0.0
 10
113.158198
 20
179.539386
 30
0.0
 10
112.277563
 20
178.366973
 30
0.0
 10
111.459782
 20
177.158504
 30
0.0
 10
110.705305
 20
175.916586
 30
0.0
 10
110.014667
 20
174.643810
 30
0.0
 10
109.388300
 20
173.342804
 30
0.0
 10
108.826740
 20
172.016193
 30
0.0
 10
108.330470
 20
170.666552
 30
0.0
 10
107.899957
 20
169.296506
 30
0.0
 10
107.535685
 20
167.908664
 30
0.0
 10
107.238189
 20
166.505654
 30
0.0
 10
107.007902
 20
165.090048
 30
0.0
 10
106.845341
 20
163.664508
 30
0.0
 10
106.751007
 20
162.231590
 30
0.0
 10
106.725368
 20
160.793939
 30
0.0
 10
106.768907
 20
159.354145
 30
0.0
 10
106.882141
 20
157.914835
 30
0.0
 10
107.065521
 20
156.478600
 30
0.0
 10
107.319565
 20
155.048074
 30
0.0
 10
107.644756
 20
153.625848
 30
0.0
 10
108.041595
 20
152.214537
 30
0.0
 10
108.510533
 20
150.816751
 30
0.0
 10
109.052086
 20
149.435100
 30
0.0
 10
109.666756
 20
148.072195
 30
0.0
 10
110.354993
 20
146.730644
 30
0.0
 10
111.117314
 20
145.413059
 30
0.0
 10
111.954203
 20
144.122048
 30
0.0
 10
112.724921
 20
144.649655
 30
0.0
 10
113.495656
 20
145.177262
 30
0.0
 10
114.266373
 20
145.704869
 30
0.0
 10
115.037108
 20
146.232476
 30
0.0
 10
115.807826
 20
146.760085
 30
0.0
 10
116.578544
 20
147.287692
 30
0.0
 10
117.349279
 20
147.815299
 30
0.0
 10
118.119997
 20
148.342906
 30
0.0
 10
118.890714
 20
148.870513
 30
0.0
 10
119.661449
 20
149.398120
 30
0.0
 10
120.432167
 20
149.925727
 30
0.0
 10
121.202902
 20
150.453336
 30
0.0
 10
121.973620
 20
150.980943
 30
0.0
 10
122.744337
 20
151.508550
 30
0.0
 10
123.515072
 20
152.036157
 30
0.0
 10
124.285790
 20
152.563764
 30
0.0
 10
125.056508
 20
153.091371
 30
0.0
 10
125.827243
 20
153.618978
 30
0.0
 10
126.597961
 20
154.146585
 30
0.0
 10
127.368696
 20
154.674194
 30
0.0
 10
128.139413
 20
155.201801
 30
0.0
 10
128.910131
 20
155.729408
 30
0.0
 10
129.680866
 20
156.257015
 30
0.0
 10
130.451584
 20
156.784631
 30
0.0
 10
131.222301
 20
157.312224
 30
0.0
 10
131.993036
 20
157.839835
 30
0.0
 10
132.763754
 20
158.367445
 30
0.0
 10
133.534489
 20
158.895056
 30
0.0
 10
134.305207
 20
159.422667
 30
0.0
 10
135.075925
 20
159.950260
 30
0.0
 10
135.846660
 20
160.477870
 30
0.0
 10
136.617377
 20
161.005481
 30
0.0
 10
136.617377
 20
161.005481
 30
0.0
 10
136.617377
 20
161.005481
 30
0.0
 10
136.617377
 20
161.005481
 30
0.0
 10
136.617377
 20
161.005481
 30
0.0
 10
136.617377
 20
161.005481
 30
0.0
 10
136.617377
 20
161.005481
 30
0.0
 10
136.617377
 20
161.005481
 30
0.0
 10
136.617377
 20
161.005481
 30
0.0
 10
136.617377
 20
161.005481
 30
0.0
 10
136.617377
 20
161.005481
 30
0.0
 10
136.617377
 20
161.005481
 30
0.0
 10
136.617377
 20
161.005481
 30
0.0
 10
136.617377
 20
161.005481
 30
0.0
 10
136.617377
 20
161.005481
 30
0.0
 10
136.617377
 20
161.005481
 30
0.0
 10
136.617377
 20
161.005481
 30
0.0
 10
136.617377
 20
161.005481
 30
0.0
 10
136.617377
 20
161.005481
 30
0.0
 10
136.617377
 20
161.005481
 30
0.0
 10
136.617377
 20
161.005481
 30
0.0
 10
136.617377
 20
161.005481
 30
0.0
 10
136.617377
 20
161.005481
 30
0.0
 10
136.617377
 20
161.005481
 30
0.0
 10
136.617377
 20
161.005481
 30
0.0
 10
136.617377
 20
161.005481
 30
0.0
 10
136.617377
 20
161.005481
 30
0.0
 10
136.617377
 20
161.005481
 30
0.0
 10
136.617377
 20
161.005481
 30
0.0
 10
136.617377
 20
161.005481
 30
0.0
 10
136.617377
 20
161.005481
 30
0.0
 10
136.617377
 20
161.005481
 30
0.0
 10
136.617377
 20
161.005481
 30
0.0
 10
137.263129
 20
161.424107
 30
0.0
 10
137.922167
 20
161.805466
 30
0.0
 10
138.593213
 20
162.149818
 30
0.0
 10
139.274936
 20
162.457403
 30
0.0
 10
139.966023
 20
162.728448
 30
0.0
 10
140.665196
 20
162.963210
 30
0.0
 10
141.371107
 20
163.161932
 30
0.0
 10
142.082478
 20
163.324839
 30
0.0
 10
142.797978
 20
163.452189
 30
0.0
 10
143.516328
 20
163.544207
 30
0.0
 10
144.236182
 20
163.601152
 30
0.0
 10
144.956260
 20
163.623250
 30
0.0
 10
145.675250
 20
163.610810
 30
0.0
 10
146.391838
 20
163.563972
 30
0.0
 10
147.104712
 20
163.483011
 30
0.0
 10
147.812558
 20
163.368187
 30
0.0
 10
148.514081
 20
163.219724
 30
0.0
 10
149.207984
 20
163.037882
 30
0.0
 10
149.892921
 20
162.822885
 30
0.0
 10
150.567629
 20
162.574992
 30
0.0
 10
151.230762
 20
162.294428
 30
0.0
 10
151.881023
 20
161.981451
 30
0.0
 10
152.517100
 20
161.636288
 30
0.0
 10
153.137713
 20
161.259179
 30
0.0
 10
153.741516
 20
160.850384
 30
0.0
 10
154.327213
 20
160.410144
 30
0.0
 10
154.893507
 20
159.938667
 30
0.0
 10
155.439085
 20
159.436246
 30
0.0
 10
155.962619
 20
158.903073
 30
0.0
 10
156.462827
 20
158.339422
 30
0.0
 10
156.938399
 20
157.745519
 30
0.0
 10
157.388003
 20
157.121623
 30
0.0
 10
157.807372
 20
156.476061
 30
0.0
 10
158.189388
 20
155.817213
 30
0.0
 10
158.534292
 20
155.146385
 30
0.0
 10
158.842327
 20
154.464879
 30
0.0
 10
159.113752
 20
153.774003
 30
0.0
 10
159.348790
 20
153.075060
 30
0.0
 10
159.547720
 20
152.369355
 30
0.0
 10
159.710765
 20
151.658193
 30
0.0
 10
159.838166
 20
150.942878
 30
0.0
 10
159.930202
 20
150.224716
 30
0.0
 10
159.987113
 20
149.505011
 30
0.0
 10
160.009124
 20
148.785067
 30
0.0
 10
159.996512
 20
148.066191
 30
0.0
 10
159.949483
 20
147.349686
 30
0.0
 10
159.868332
 20
146.636859
 30
0.0
 10
159.753266
 20
145.929013
 30
0.0
 10
159.604562
 20
145.227452
 30
0.0
 10
159.422443
 20
144.533481
 30
0.0
 10
159.207169
 20
143.848408
 30
0.0
 10
158.959000
 20
143.173534
 30
0.0
 10
158.678159
 20
142.510166
 30
0.0
 10
158.364907
 20
141.859608
 30
0.0
 10
158.019484
 20
141.223165
 30
0.0
 10
157.642150
 20
140.602142
 30
0.0
 10
157.233148
 20
139.997843
 30
0.0
 10
156.792718
 20
139.411573
 30
0.0
 10
156.321120
 20
138.844638
 30
0.0
 10
155.818579
 20
138.298341
 30
0.0
 10
155.285370
 20
137.773989
 30
0.0
 10
154.721720
 20
137.272885
 30
0.0
 10
154.127886
 20
136.796333
 30
0.0
 10
153.504110
 20
136.345641
 30
0.0
 10
153.504110
 20
136.345641
 30
0.0
 10
153.504110
 20
136.345641
 30
0.0
 10
153.504110
 20
136.345641
 30
0.0
 10
153.504110
 20
136.345641
 30
0.0
 10
153.504110
 20
136.345641
 30
0.0
 10
153.504110
 20
136.345641
 30
0.0
 10
153.504110
 20
136.345641
 30
0.0
 10
153.504110
 20
136.345641
 30
0.0
 10
153.504110
 20
136.345641
 30
0.0
 10
153.504110
 20
136.345641
 30
0.0
 10
153.504110
 20
136.345641
 30
0.0
 10
153.504110
 20
136.345641
 30
0.0
 10
153.504110
 20
136.345641
 30
0.0
 10
153.504110
 20
136.345641
 30
0.0
 10
153.504110
 20
136.345641
 30
0.0
 10
153.504110
 20
136.345641
 30
0.0
 10
153.504110
 20
136.345641
 30
0.0
 10
153.504110
 20
136.345641
 30
0.0
 10
153.504110
 20
136.345641
 30
0.0
 10
153.504110
 20
136.345641
 30
0.0
 10
153.504110
 20
136.345641
 30
0.0
 10
153.504110
 20
136.345641
 30
0.0
 10
153.504110
 20
136.345641
 30
0.0
 10
153.504110
 20
136.345641
 30
0.0
 10
153.504110
 20
136.345641
 30
0.0
 10
153.504110
 20
136.345641
 30
0.0
 10
153.504110
 20
136.345641
 30
0.0
 10
153.504110
 20
136.345641
 30
0.0
 10
153.504110
 20
136.345641
 30
0.0
 10
153.504110
 20
136.345641
 30
0.0
 10
153.504110
 20
136.345641
 30
0.0
 10
153.504110
 20
136.345641
 30
0.0
 10
152.800601
 20
135.863981
 30
0.0
 10
152.097091
 20
135.382319
 30
0.0
 10
151.393599
 20
134.900659
 30
0.0
 10
150.690090
 20
134.418997
 30
0.0
 10
149.986580
 20
133.937337
 30
0.0
 10
149.283071
 20
133.455677
 30
0.0
 10
148.579578
 20
132.974015
 30
0.0
 10
147.876069
 20
132.492355
 30
0.0
 10
147.172560
 20
132.010694
 30
0.0
 10
146.469067
 20
131.529033
 30
0.0
 10
145.765558
 20
131.047372
 30
0.0
 10
145.062048
 20
130.565711
 30
0.0
 10
144.358539
 20
130.084050
 30
0.0
 10
143.655047
 20
129.602390
 30
0.0
 10
142.951537
 20
129.120728
 30
0.0
 10
142.248028
 20
128.639068
 30
0.0
 10
141.544518
 20
128.157408
 30
0.0
 10
140.841026
 20
127.675746
 30
0.0
 10
140.137516
 20
127.194086
 30
0.0
 10
139.434007
 20
126.712424
 30
0.0
 10
138.730497
 20
126.230764
 30
0.0
 10
138.027005
 20
125.749104
 30
0.0
 10
137.323496
 20
125.267442
 30
0.0
 10
136.619986
 20
124.785782
 30
0.0
 10
135.916477
 20
124.304122
 30
0.0
 10
135.212985
 20
123.822460
 30
0.0
 10
134.509475
 20
123.340800
 30
0.0
 10
133.805966
 20
122.859138
 30
0.0
 10
133.102456
 20
122.377478
 30
0.0
 10
132.398964
 20
121.895818
 30
0.0
 10
131.695454
 20
121.414156
 30
0.0
 10
130.991945
 20
120.932496
 30
0.0
 10
130.539559
 20
120.622764
 30
0.0
 10
130.087156
 20
120.313033
 30
0.0
 10
129.634771
 20
120.003301
 30
0.0
 10
129.182385
 20
119.693570
 30
0.0
 10
128.729982
 20
119.383840
 30
0.0
 10
128.277596
 20
119.074109
 30
0.0
 10
127.825193
 20
118.764377
 30
0.0
 10
127.372808
 20
118.454646
 30
0.0
 10
126.920422
 20
118.144914
 30
0.0
 10
126.468019
 20
117.835183
 30
0.0
 10
126.015633
 20
117.525451
 30
0.0
 10
125.563248
 20
117.215722
 30
0.0
 10
125.110845
 20
116.905990
 30
0.0
 10
124.658459
 20
116.596259
 30
0.0
 10
124.206056
 20
116.286527
 30
0.0
 10
123.753670
 20
115.976796
 30
0.0
 10
123.301285
 20
115.667064
 30
0.0
 10
122.848882
 20
115.357333
 30
0.0
 10
122.396496
 20
115.047601
 30
0.0
 10
121.944110
 20
114.737872
 30
0.0
 10
121.491707
 20
114.428140
 30
0.0
 10
121.039322
 20
114.118409
 30
0.0
 10
120.586919
 20
113.808677
 30
0.0
 10
120.134533
 20
113.498946
 30
0.0
 10
119.682147
 20
113.189214
 30
0.0
 10
119.229744
 20
112.879483
 30
0.0
 10
118.777359
 20
112.569752
 30
0.0
 10
118.324973
 20
112.260020
 30
0.0
 10
117.872570
 20
111.950290
 30
0.0
 10
117.420184
 20
111.640559
 30
0.0
 10
116.967781
 20
111.330827
 30
0.0
 10
116.515396
 20
111.021096
 30
0.0
 10
115.267707
 20
110.119713
 30
0.0
 10
114.079918
 20
109.166617
 30
0.0
 10
112.952547
 20
108.164418
 30
0.0
 10
111.886062
 20
107.115728
 30
0.0
 10
110.880962
 20
106.023152
 30
0.0
 10
109.937714
 20
104.889302
 30
0.0
 10
109.056854
 20
103.716788
 30
0.0
 10
108.238814
 20
102.508220
 30
0.0
 10
107.484130
 20
101.266205
 30
0.0
 10
106.793250
 20
99.993354
 30
0.0
 10
106.166710
 20
98.692277
 30
0.0
 10
105.604960
 20
97.365583
 30
0.0
 10
105.108500
 20
96.015881
 30
0.0
 10
104.677832
 20
94.645783
 30
0.0
 10
104.313422
 20
93.257895
 30
0.0
 10
104.015788
 20
91.854829
 30
0.0
 10
103.785397
 20
90.439194
 30
0.0
 10
103.622749
 20
89.013599
 30
0.0
 10
103.528312
 20
87.580655
 30
0.0
 10
103.502604
 20
86.142969
 30
0.0
 10
103.546108
 20
84.703153
 30
0.0
 10
103.659291
 20
83.263815
 30
0.0
 10
103.842671
 20
81.827565
 30
0.0
 10
104.096714
 20
80.397014
 30
0.0
 10
104.421940
 20
78.974769
 30
0.0
 10
104.818797
 20
77.563441
 30
0.0
 10
105.287803
 20
76.165640
 30
0.0
 10
105.829425
 20
74.783973
 30
0.0
 10
106.444182
 20
73.421054
 30
0.0
 10
107.132539
 20
72.079488
 30
0.0
 10
107.894981
 20
70.761887
 30
0.0
 10
108.732026
 20
69.470860
 30
0.0
 10
109.502917
 20
69.998348
 30
0.0
 10
110.273807
 20
70.525838
 30
0.0
 10
111.044680
 20
71.053326
 30
0.0
 10
111.815571
 20
71.580815
 30
0.0
 10
112.586461
 20
72.108303
 30
0.0
 10
113.357352
 20
72.635791
 30
0.0
 10
114.128225
 20
73.163280
 30
0.0
 10
114.899116
 20
73.690768
 30
0.0
 10
115.670006
 20
74.218256
 30
0.0
 10
116.440897
 20
74.745746
 30
0.0
 10
117.211770
 20
75.273234
 30
0.0
 10
117.982660
 20
75.800721
 30
0.0
 10
118.753551
 20
76.328211
 30
0.0
 10
119.524441
 20
76.855699
 30
0.0
 10
120.295314
 20
77.383188
 30
0.0
 10
121.066205
 20
77.910676
 30
0.0
 10
121.837095
 20
78.438164
 30
0.0
 10
122.607986
 20
78.965654
 30
0.0
 10
123.378859
 20
79.493142
 30
0.0
 10
124.149750
 20
80.020631
 30
0.0
 10
124.920640
 20
80.548119
 30
0.0
 10
125.691531
 20
81.075607
 30
0.0
 10
126.462404
 20
81.603096
 30
0.0
 10
127.233294
 20
82.130584
 30
0.0
 10
128.004185
 20
82.658072
 30
0.0
 10
128.775075
 20
83.185562
 30
0.0
 10
129.545949
 20
83.713050
 30
0.0
 10
130.316839
 20
84.240537
 30
0.0
 10
131.087730
 20
84.768027
 30
0.0
 10
131.858620
 20
85.295515
 30
0.0
 10
132.629493
 20
85.823004
 30
0.0
 10
133.400384
 20
86.350492
 30
0.0
 10
134.556227
 20
87.142117
 30
0.0
 10
135.712070
 20
87.933740
 30
0.0
 10
136.867914
 20
88.725365
 30
0.0
 10
138.023757
 20
89.516988
 30
0.0
 10
139.179600
 20
90.308613
 30
0.0
 10
140.335444
 20
91.100238
 30
0.0
 10
141.491287
 20
91.891861
 30
0.0
 10
142.647130
 20
92.683486
 30
0.0
 10
143.802974
 20
93.475111
 30
0.0
 10
144.958817
 20
94.266734
 30
0.0
 10
146.114660
 20
95.058359
 30
0.0
 10
147.270504
 20
95.849982
 30
0.0
 10
148.426347
 20
96.641607
 30
0.0
 10
149.582191
 20
97.433231
 30
0.0
 10
150.738034
 20
98.224855
 30
0.0
 10
151.893877
 20
99.016479
 30
0.0
 10
153.049721
 20
99.808104
 30
0.0
 10
154.205564
 20
100.599727
 30
0.0
 10
155.361407
 20
101.391352
 30
0.0
 10
156.517251
 20
102.182975
 30
0.0
 10
157.673094
 20
102.974600
 30
0.0
 10
158.828937
 20
103.766225
 30
0.0
 10
159.984781
 20
104.557848
 30
0.0
 10
161.140624
 20
105.349473
 30
0.0
 10
162.296467
 20
106.141098
 30
0.0
 10
163.452311
 20
106.932721
 30
0.0
 10
164.608154
 20
107.724346
 30
0.0
 10
165.763997
 20
108.515970
 30
0.0
 10
166.919841
 20
109.307594
 30
0.0
 10
168.075684
 20
110.099218
 30
0.0
 10
169.231527
 20
110.890842
 30
0.0
 10
170.387371
 20
111.682466
 30
0.0
 10
170.387371
 20
111.682575
 30
0.0
 10
170.387371
 20
111.682682
 30
0.0
 10
170.387371
 20
111.682791
 30
0.0
 10
170.387371
 20
111.682898
 30
0.0
 10
170.387371
 20
111.683007
 30
0.0
 10
170.387371
 20
111.683114
 30
0.0
 10
170.387371
 20
111.683221
 30
0.0
 10
170.387371
 20
111.683330
 30
0.0
 10
170.387371
 20
111.683437
 30
0.0
 10
170.387371
 20
111.683546
 30
0.0
 10
170.387371
 20
111.683653
 30
0.0
 10
170.387371
 20
111.683762
 30
0.0
 10
170.387371
 20
111.683869
 30
0.0
 10
170.387371
 20
111.683978
 30
0.0
 10
170.387371
 20
111.684087
 30
0.0
 10
170.387371
 20
111.684194
 30
0.0
 10
170.387371
 20
111.684303
 30
0.0
 10
170.387371
 20
111.684410
 30
0.0
 10
170.387371
 20
111.684517
 30
0.0
 10
170.387371
 20
111.684626
 30
0.0
 10
170.387371
 20
111.684733
 30
0.0
 10
170.387371
 20
111.684842
 30
0.0
 10
170.387371
 20
111.684949
 30
0.0
 10
170.387371
 20
111.685058
 30
0.0
 10
170.387371
 20
111.685165
 30
0.0
 10
170.387371
 20
111.685274
 30
0.0
 10
170.387371
 20
111.685381
 30
0.0
 10
170.387371
 20
111.685490
 30
0.0
 10
170.387371
 20
111.685597
 30
0.0
 10
170.387371
 20
111.685706
 30
0.0
 10
170.387371
 20
111.685813
 30
0.0
 10
170.387371
 20
111.685922
 30
0.0
 10
172.258213
 20
113.037187
 30
0.0
 10
174.039214
 20
114.466057
 30
0.0
 10
175.729682
 20
115.968613
 30
0.0
 10
177.328841
 20
117.540944
 30
0.0
 10
178.835998
 20
119.179133
 30
0.0
 10
180.250377
 20
120.879268
 30
0.0
 10
181.571287
 20
122.637434
 30
0.0
 10
182.797949
 20
124.449713
 30
0.0
 10
183.929656
 20
126.312195
 30
0.0
 10
184.965665
 20
128.220964
 30
0.0
 10
185.905233
 20
130.172104
 30
0.0
 10
186.747651
 20
132.161702
 30
0.0
 10
187.492159
 20
134.185843
 30
0.0
 10
188.138049
 20
136.240613
 30
0.0
 10
188.684544
 20
138.322098
 30
0.0
 10
189.130951
 20
140.426381
 30
0.0
 10
189.476512
 20
142.549550
 30
0.0
 10
189.720501
 20
144.687689
 30
0.0
 10
189.862191
 20
146.836885
 30
0.0
 10
189.900840
 20
148.993221
 30
0.0
 10
189.835688
 20
151.152785
 30
0.0
 10
189.666043
 20
153.311662
 30
0.0
 10
189.391163
 20
155.465937
 30
0.0
 10
189.010288
 20
157.611690
 30
0.0
 10
188.522691
 20
159.745024
 30
0.0
 10
187.927648
 20
161.861997
 30
0.0
 10
187.224432
 20
163.958721
 30
0.0
 10
186.412283
 20
166.031274
 30
0.0
 10
185.490494
 20
168.075735
 30
0.0
 10
184.458303
 20
170.088181
 30
0.0
 10
183.315003
 20
172.064725
 30
0.0
 10
182.059833
 20
174.001427
 30
0.0
 10
180.708050
 20
175.872702
 30
0.0
 10
179.278639
 20
177.654065
 30
0.0
 10
177.775542
 20
179.344810
 30
0.0
 10
176.202628
 20
180.944176
 30
0.0
 10
174.563870
 20
182.451454
 30
0.0
 10
172.863139
 20
183.865902
 30
0.0
 10
171.104391
 20
185.186812
 30
0.0
 10
169.291514
 20
186.413440
 30
0.0
 10
167.428446
 20
187.545043
 30
0.0
 10
165.519093
 20
188.580914
 30
0.0
 10
163.567394
 20
189.520326
 30
0.0
 10
161.577236
 20
190.362537
 30
0.0
 10
159.552575
 20
191.106803
 30
0.0
 10
157.497299
 20
191.752434
 30
0.0
 10
155.415329
 20
192.298669
 30
0.0
 10
153.310606
 20
192.744801
 30
0.0
 10
151.187033
 20
193.090068
 30
0.0
 10
149.048516
 20
193.333780
 30
0.0
 10
146.898993
 20
193.475176
 30
0.0
 10
144.742369
 20
193.513549
 30
0.0
 10
142.582583
 20
193.448172
 30
0.0
 10
140.423523
 20
193.278286
 30
0.0
 10
138.269128
 20
193.003198
 30
0.0
 10
136.123319
 20
192.622150
 30
0.0
 10
133.990002
 20
192.134433
 30
0.0
 10
131.873098
 20
191.539303
 30
0.0
 10
129.776547
 20
190.836035
 30
0.0
 10
127.704218
 20
190.023904
 30
0.0
 10
125.660086
 20
189.102184
 30
0.0
 10
123.648020
 20
188.070149
 30
0.0
 10
121.671977
 20
186.927039
 30
0.0
 10
119.735862
 20
185.672163
 30
0.0
  0
ENDSEC
  0
SECTION
  2
OBJECTS
  0
DICTIONARY
  5
C
330
0
100
AcDbDictionary
  3
ACAD_GROUP
350
D
  3
ACAD_MLINESTYLE
350
17
  0
DICTIONARY
  5
D
330
C
100
AcDbDictionary
  0
DICTIONARY
  5
1A
330
C
100
AcDbDictionary
  0
DICTIONARY
  5
17
330
C
100
AcDbDictionary
  3
STANDARD
350
18
  0
DICTIONARY
  5
19
330
C
100
AcDbDictionary
  0
ENDSEC
  0
EOF
